SplineFontDB: 3.0
FontName: KisStM-Italic
FullName: Sorts Mill Kis Italic
FamilyName: Sorts Mill Kis
Weight: Regular
Copyright: Copyright (C) 2010 Barry Schwartz
UComments: "Cut 3200-dpi samples to 640 pixels high. Scale by a factor of 1.1.+AAoACgAA-Cut 6400-dpi samples to 1280 pixels high. Scale by a factor of 1.1." 
Version: 001.000
ItalicAngle: -14
UnderlinePosition: -100
UnderlineWidth: 49
Ascent: 700
Descent: 300
Descent: 300
LayerCount: 3
Layer: 0 0 "Back"  1
Layer: 1 0 "Fore"  0
Layer: 2 0 "backup"  1
NeedsXUIDChange: 1
XUID: [1021 658 797806517 2478896]
FSType: 0
OS2Version: 0
OS2_WeightWidthSlopeOnly: 0
OS2_UseTypoMetrics: 1
CreationTime: 1263111985
ModificationTime: 1267831166
OS2TypoAscent: 0
OS2TypoAOffset: 1
OS2TypoDescent: 0
OS2TypoDOffset: 1
OS2TypoLinegap: 90
OS2WinAscent: 0
OS2WinAOffset: 1
OS2WinDescent: 0
OS2WinDOffset: 1
HheadAscent: 0
HheadAOffset: 1
HheadDescent: 0
HheadDOffset: 1
OS2Vendor: 'PfEd'
Lookup: 3 0 0 "'aalt' Access All Alternates lookup 0"  {"'aalt' Access All Alternates lookup 0 subtable"  } ['aalt' ('DFLT' <'dflt' > ) ]
Lookup: 3 0 0 "'aalt' Access All Alternates in Latin lookup 0"  {"'aalt' Access All Alternates in Latin lookup 0 subtable"  } ['aalt' ('latn' <'TRK ' 'AZE ' 'CRT ' 'dflt' > ) ]
Lookup: 1 0 0 "turkish"  {"turkish subtable"  } ['locl' ('latn' <'TRK ' 'AZE ' 'CRT ' > ) ]
Lookup: 1 0 0 "'ss01' Style Set 1 in Latin lookup 1"  {"'ss01' Style Set 1 in Latin lookup 1 subtable"  } ['ss01' ('latn' <'dflt' > 'DFLT' <'dflt' > ) ]
Lookup: 260 0 0 "spacing anchors"  {"spacing anchors-1"  } []
Lookup: 260 0 0 "accent anchors"  {"accent anchors-1"  } []
Lookup: 258 0 0 "'kern' Horizontal Kerning in Latin lookup 2"  {"'kern' Horizontal Kerning in Latin lookup 2 subtable"  } ['kern' ('latn' <'dflt' > 'DFLT' <'dflt' > ) ]
MarkAttachClasses: 1
DEI: 91125
KernClass2: 9 11 "'kern' Horizontal Kerning in Latin lookup 2 subtable" 
 30 Euro bar bracketright question
 47 c cacute ccaron ccedilla ccircumflex cdotaccent

StartChar: a
Encoding: 97 97 0
Width: 352
VWidth: 0
Flags: HW
HStem: -13 63<50.073 103.946> 350 54<169.632 227.562>
VStem: 5 68<51.0185 162.276> 192 69<2.93932 120.453>
AnchorPoint: "l;k;bl" -10 10 basechar 0
AnchorPoint: "l;o" 0 200 basechar 0
AnchorPoint: "l;x" 50 385 basechar 0
AnchorPoint: "r;bl" 352 10 basechar 0
AnchorPoint: "r;k;o" 357 200 basechar 0
AnchorPoint: "r;k;x" 372 385 basechar 0
LayerCount: 3
Fore
SplineSet
193 350 m 0
 137 350 73 183 73 98 c 0
 73 69 81 50 98 50 c 0
 131 50 196 172 210 200 c 0
 227 235 241 267 241 290 c 0
 241 325 212 350 193 350 c 0
332 83 m 0
 336 83 338 79 338 77 c 0
 338 57 259 -13 213 -13 c 0
 202 -13 192 -9 192 13 c 0
 192 37 220 143 225 170 c 0
 227 182 223 174 220 169 c 0
 198 134 131 -13 48 -13 c 0
 24 -13 5 7 5 54 c 0
 5 197 145 404 216 404 c 0
 261 404 261 315 266 315 c 0
 267 315 269 323 274 340 c 2
 290 394 l 2
 293 403 299 404 309 404 c 2
 332 404 l 2
 342 404 352 403 352 395 c 0
 352 383 311 268 284 172 c 0
 278 150 261 82 261 60 c 0
 261 48 265 44 271 44 c 0
 289 44 324 83 332 83 c 0
EndSplineSet
EndChar

StartChar: M
Encoding: 77 77 1
Width: 890
VWidth: 0
Flags: W
HStem: 0 23<564.135 635.184> 613 23<230.136 309.738 843.417 918.819>
VStem: 29 112<8 59>
DStem2: 445 123 409 10 0.540758 0.841178<0 501.767>
LayerCount: 3
Fore
SplineSet
272 613 m 0
 251 614 230 613 230 626 c 0
 230 630 231 634 232 636 c 1
 375 636 l 2
 387 636 395 636 397 620 c 2
 445 123 l 1
 769 627 l 2
 773 634 778 636 786 636 c 2
 916 636 l 1
 917 634 919 630 919 626 c 0
 919 611 891 616 868 613 c 0
 838 609 842 604 829 540 c 0
 744 125 741 86 741 66 c 2
 741 61 l 2
 741 25 758 30 793 24 c 0
 812 21 830 22 830 10 c 0
 830 6 829 2 828 0 c 1
 567 0 l 1
 566 2 564 6 564 10 c 0
 564 22 584 21 606 23 c 0
 639 26 639 31 656 96 c 0
 664 127 728 434 743 512 c 0
 745 521 744 528 743 528 c 0
 741 528 736.741367971 520.538444675 731 512 c 0
 697.741367971 462.538444675 601 312 409 10 c 0
 401 -2 399 -4 390 -4 c 2
 388 -4 l 2
 378 -4 371 -3 369 12 c 2
 328 445 l 2
 326 471 323 492 321 492 c 0
 318 492 304 464 292 436 c 0
 162 142 141 72 141 46 c 0
 141 26 149 27 159 24 c 0
 172 21 190 19 190 10 c 0
 190 6 189 2 188 0 c 1
 32 0 l 1
 31 2 29 6 29 10 c 0
 29 27 71 17 86 39 c 0
 105 68 104 112 295 507 c 0
 309 536 316 558 316 576 c 0
 316 611 299 612 272 613 c 0
EndSplineSet
EndChar

StartChar: b
Encoding: 98 98 2
Width: 411
VWidth: 0
Flags: HW
HStem: -13 33<95.5 193.841> 351 53<269.047 362> 644 20G<218 274>
VStem: 13 86<13.5 103.738> 341 65<230.546 344.977>
LayerCount: 3
Fore
SplineSet
114 -13 m 0
 77 -13 13 -4 13 31 c 0
 13 47 179 557 179 586 c 0
 179 609 149 614 133 618 c 0
 125 620 123 625 123 630 c 0
 123 653 164 631 272 664 c 1
 276 663 279 658 279 654 c 1
 159 292 l 2
 153 274 149 260 149 257 c 0
 149 256 149 256 150 256 c 0
 152 256 168 279 180 295 c 0
 237 370 287 404 343 404 c 0
 381 404 406 379 406 326 c 0
 406 228 316 60 195 4 c 0
 169 -8 142 -13 114 -13 c 0
155 20 m 0
 235 20 341 213 341 299 c 0
 341 331 324 351 298 351 c 0
 259 351 207 299 165 236 c 0
 126 177 99 99 99 65 c 0
 99 47 124 20 155 20 c 0
EndSplineSet
EndChar

StartChar: c
Encoding: 99 99 3
Width: 294
VWidth: 0
Flags: HW
HStem: -13 44<68 162.325> 376 28<190.379 256>
VStem: 15 76<34.7452 189.33>
AnchorPoint: "l;k;bl" -5 10 basechar 0
AnchorPoint: "l;o" 0 200 basechar 0
AnchorPoint: "l;x" 70 385 basechar 0
AnchorPoint: "r;bl" 254 10 basechar 0
AnchorPoint: "r;o" 294 200 basechar 0
AnchorPoint: "r;k;x" 324 385 basechar 0
LayerCount: 3
Fore
SplineSet
126 31 m 0
 186 31 213 128 235 128 c 0
 239 128 243 123 243 120 c 0
 243 104 188 -13 97 -13 c 0
 39 -13 15 30 15 88 c 0
 15 165 100 404 234 404 c 0
 278 404 309 382 309 350 c 0
 309 328 293 307 267 307 c 0
 225 307 235 376 210 376 c 0
 202 376 191 368 176 344 c 0
 107 231 91 141 91 90 c 0
 91 65 100 31 126 31 c 0
EndSplineSet
EndChar

StartChar: d
Encoding: 100 100 4
Width: 419
VWidth: 0
Flags: HW
HStem: -13 46<69.6728 148.227> 365 39<185.878 283.944> 644 20G<403 463>
VStem: 17 68<37.7702 188.667> 237 70<3.56555 118.281>
LayerCount: 3
Fore
SplineSet
274 173 m 1
 265 173 190 -13 89 -13 c 0
 47 -13 17 24 17 86 c 0
 17 134 35 196 78 270 c 0
 121 343 180 404 255 404 c 0
 295 404 314 389 321 384 c 1
 343 459 369 561 369 586 c 0
 369 609 336 614 320 618 c 0
 312 620 310 625 310 630 c 0
 310 654 345 629 461 664 c 1
 465 663 468 658 468 654 c 1
 449 594 307 111 307 56 c 0
 307 45 310 39 315 39 c 0
 326 39 349 65 371 94 c 0
 383 110 388 115 394 115 c 0
 396 115 401 113 401 107 c 0
 401 103 399 98 394 90 c 0
 344 17 299 -13 267 -13 c 0
 247 -13 237 -2 237 17 c 0
 237 54 274 166 274 173 c 1
302 303 m 0
 302 353 253 365 228 365 c 0
 116 365 85 138 85 97 c 0
 85 50 103 33 124 33 c 0
 175 33 302 261 302 303 c 0
EndSplineSet
EndChar

StartChar: e
Encoding: 101 101 5
Width: 332
VWidth: 0
Flags: HW
HStem: -11 43<65 156.197> 375 27<207.406 282.5>
VStem: 15 73<34.7589 185.708> 251 66<293.13 374.876>
AnchorPoint: "l;k;bl" -10 10 basechar 0
AnchorPoint: "l;o" 0 200 basechar 0
AnchorPoint: "l;x" 40 385 basechar 0
AnchorPoint: "r;bl" 252 10 basechar 0
AnchorPoint: "r;o" 292 200 basechar 0
AnchorPoint: "r;x" 332 385 basechar 0
LayerCount: 3
Fore
SplineSet
232 375 m 0
 205.401367188 375 151.978515625 310.275390625 114 209 c 1
 226.297851562 254.94140625 251 321.799804688 251 350 c 0
 251 366 244 375 232 375 c 0
15 79 m 0
 15 194 121 402 259 402 c 0
 306 402 317 368 317 347 c 0
 317 273.030273438 204.237304688 222.532226562 106 187 c 1
 104 182 88 129 88 87 c 0
 88 51 100 32 120 32 c 0
 144 32 179 60 212 107 c 0
 218 116 224 125 232 125 c 0
 236 125 240 122 240 116 c 0
 240 105 182 -11 90 -11 c 0
 40 -11 15 28 15 79 c 0
EndSplineSet
EndChar

StartChar: f
Encoding: 102 102 6
Width: 256
VWidth: 0
Flags: HW
HStem: -223 36<-110 -23.5752> 351 26<47.7728 131 202 281.227> 606 58<262.5 351.9>
DStem2: -12.1143 -223 55.2715 -223 0.241922 0.970296<365.206 591.572 633.976 837.486>
LayerCount: 3
Back
SplineSet
-46 -246 m 4
 6 -246 122 317 131 351 c 5
 47 351 l 5
 45 358 47 370 50 377 c 5
 136 377 l 5
 186 580 229 618 272 643 c 4
 283 650 306 664 331 664 c 4
 359 664 379 647 379 613 c 4
 379 586 365 561 336 561 c 4
 294 561 284 606 266 606 c 4
 246 606 252 575 233 500 c 6
 202 377 l 5
 282 377 l 5
 284 371 282 357 279 351 c 5
 197 351 l 5
 156 181 l 6
 126 57 94 -96 39 -189 c 4
 19 -223 -34 -282 -105 -282 c 4
 -145 -282 -163 -258 -163 -234 c 4
 -163 -212 -148 -191 -121 -191 c 4
 -78 -191 -71 -246 -46 -246 c 4
EndSplineSet
Fore
SplineSet
337 578 m 0
 297 578 284 606 266 606 c 0
 259 606 252 575 233 500 c 2
 202 377 l 1
 282 377 l 1
 284 371 282 357 279 351 c 1
 197 351 l 1
 156 181 l 2
 126 57 109 -37 54 -130 c 0
 34 -164 -19 -223 -90 -223 c 0
 -130 -223 -148 -199 -148 -175 c 0
 -148 -153 -133 -132 -106 -132 c 0
 -63 -132 -56 -187 -31 -187 c 0
 21 -187 122 317 131 351 c 1
 47 351 l 1
 45 358 47 370 50 377 c 1
 136 377 l 1
 172 522 204 583 235 615 c 0
 248 628 293 664 331 664 c 0
 363 664 379 642 379 620 c 0
 379 599 365 578 337 578 c 0
EndSplineSet
AlternateSubs2: "'aalt' Access All Alternates lookup 0 subtable" f.ld
AlternateSubs2: "'aalt' Access All Alternates in Latin lookup 0 subtable" f.ld
Substitution2: "'ss01' Style Set 1 in Latin lookup 1 subtable" f.ld
EndChar

StartChar: g
Encoding: 103 103 7
Width: 403
VWidth: 0
Flags: HMW
HStem: -224 24<75.779 227.31> 92 19<117.071 166.904> 382 24<172.411 233.495>
VStem: -43 52<-162.034 -69.4221> 36 63<136.387 291.704> 50 47<12.5 78.5323> 257 59<202.209 339.073> 280 56<-160.105 -87.0916> 336 66<300.276 341.999>
LayerCount: 3
Fore
SplineSet
204 382 m 0xfa
 141 382 99 257 99 183 c 0
 99 142 111 111 141 111 c 0
 188 111 257 196 257 302 c 0
 257 353 233 382 204 382 c 0xfa
9 -114 m 0
 9 -165 62 -200 163 -200 c 0
 205 -200 239 -187 258 -170 c 0
 272 -158 280 -144 280 -128 c 0xf1
 280 -71 181 -44 113 -22 c 1
 78 -29 9 -59 9 -114 c 0
300 345 m 1
 305 348 322 374 358 374 c 0
 389 374 402 354 402 334 c 0
 402 315 390 297 372 297 c 0
 340 297 344 332 336 339 c 0
 334 341 332 342 328 342 c 0
 317 342 309 326 309 326 c 1
 312 312 316 310 316 271 c 0xfa80
 316 173 244 92 144 92 c 0
 124 92 119 95 116 95 c 0
 105 95 97 85 97 74 c 0
 97 45 114 42 217 9 c 0
 252 -3 336 -35 336 -103 c 0
 336 -163 266 -224 147 -224 c 0
 67 -224 -43 -197 -43 -117 c 0
 -43 -59 44 -22 95 -18 c 1
 95 -18 50 -2 50 27 c 0xf5
 50 69 94 100 94 100 c 1
 51 129 36 172 36 216 c 0xf8
 36 308 94 406 194 406 c 0
 258 406 290 365 300 345 c 1
EndSplineSet
AlternateSubs2: "'aalt' Access All Alternates lookup 0 subtable" g.ld
AlternateSubs2: "'aalt' Access All Alternates in Latin lookup 0 subtable" g.ld
Substitution2: "'ss01' Style Set 1 in Latin lookup 1 subtable" g.ld
EndChar

StartChar: h
Encoding: 104 104 8
Width: 443
VWidth: 0
Flags: HW
HStem: -5 43<312.003 335.481> 372 32<272.444 337.799> 644 20G<202.5 259>
VStem: 19 74<1.19188 86.1082> 234 78<9.3457 105.045> 342 69<266.322 369.531>
LayerCount: 3
Fore
SplineSet
234 20 m 0
 234 93 342 282 342 342 c 0
 342 352 334 372 307 372 c 0
 273 372 252 335 218 278 c 2
 160 183 l 1
 123 120 110 82 93 27 c 0
 89 15 87 5 80 1 c 0
 78 0 76 0 74 -0 c 2
 31 0 l 2
 22 0 19 1 19 6 c 0
 19 20 165 536 165 586 c 0
 165 609 135 614 119 618 c 0
 111 620 109 625 109 630 c 0
 109 653 148 631 257 664 c 1
 261 663 264 658 264 654 c 1
 131 194 l 2
 130 192 132 191 133 191 c 0
 134 191 156 231 194 290 c 0
 254 381 264 404 336 404 c 0
 377 404 411 394 411 356 c 0
 411 271 312 88 312 50 c 0
 312 41 316 38 324 38 c 0
 331 38 339 44 348 51 c 0
 382 78 410 127 421 127 c 0
 425 127 427 124 427 120 c 0
 427 99 361 -5 258 -5 c 2
 257 -5 l 2
 241 -5 234 4 234 20 c 0
EndSplineSet
EndChar

StartChar: i
Encoding: 105 105 9
Width: 231
VWidth: 0
Flags: HW
LayerCount: 3
Fore
Refer: 174 775 N 1 0 0 1 405 0 2
Refer: 175 305 N 1 0 0 1 0 0 2
Layer: 2
SplineSet
111 65 m 4xf8
 111 57 113 53 118 53 c 4
 125 53 137 61 151 75 c 4
 175 97 187 118 196 118 c 4
 198 118 204 116 204 110 c 4
 204 75 103 -13 55 -13 c 4
 40 -13 31 -5 31 16 c 4
 31 90 121 280 121 338 c 4
 121 346 117 348 114 348 c 4
 97 348 71 319 59 304 c 4
 50 293 44 284 39 284 c 4
 36 284 31 286 31 294 c 4
 31 324 116 406 173 406 c 4
 195 406 201 392 201 378 c 4
 201 322 111 103 111 65 c 4xf8
132 589 m 4xf4
 132 613 152 633 176 633 c 4
 200 633 220 613 220 589 c 4
 220 565 200 546 176 546 c 4
 152 546 132 565 132 589 c 4xf4
EndSplineSet
AlternateSubs2: "'aalt' Access All Alternates in Latin lookup 0 subtable" i.TRK
Substitution2: "turkish subtable" i.TRK
EndChar

StartChar: j
Encoding: 106 106 10
Width: 267
VWidth: 0
Flags: HW
LayerCount: 3
Fore
Refer: 174 775 N 1 0 0 1 435 0 2
Refer: 176 567 N 1 0 0 1 0 0 2
Layer: 2
SplineSet
162 589 m 4
 162 613 182 633 206 633 c 4
 230 633 250 613 250 589 c 4
 250 565 230 546 206 546 c 4
 182 546 162 565 162 589 c 4
-97 -126 m 4
 -44 -126 -58 -195 -23 -195 c 4
 3 -195 24 -155 45 -83 c 4
 87 65 168 337 168 344 c 4
 168 353 164 357 157 357 c 4
 144 357 104 332 64 281 c 4
 53 267 45 263 41 263 c 4
 37 263 36 267 36 271 c 4
 36 313 152 406 219 406 c 4
 238 406 246 395 246 383 c 4
 246 339 191 196 146 29 c 4
 117 -76 106 -112 86 -140 c 4
 69 -164 15 -224 -59 -224 c 4
 -114 -224 -140 -193 -140 -166 c 4
 -140 -142 -120 -126 -97 -126 c 4
EndSplineSet
AlternateSubs2: "'aalt' Access All Alternates lookup 0 subtable" j.ld
AlternateSubs2: "'aalt' Access All Alternates in Latin lookup 0 subtable" j.ld
Substitution2: "'ss01' Style Set 1 in Latin lookup 1 subtable" j.ld
EndChar

StartChar: k
Encoding: 107 107 11
Width: 377
VWidth: 0
Flags: HW
HStem: 0 21G<16.5 66 219 346.5> 368 40<250.304 338> 644 20G<197 253>
VStem: 8 71<0 60.0556> 304 65<279.636 366.191>
LayerCount: 3
Back
SplineSet
346 0 m 5
 229 0 l 6
 209 0 212 3 134 173 c 5
 115 168 l 5
 79 34 l 6
 73 12 71 0 61 0 c 6
 20 0 l 6
 13 0 8 0 8 8 c 4
 8 20 158 526 158 586 c 4
 158 609 128 614 112 618 c 4
 104 620 102 625 102 630 c 4
 102 653 143 631 251 664 c 5
 255 663 258 658 258 654 c 5
 164 339 l 5
 226 382 286 408 323 408 c 4
 353 408 369 390 369 350 c 4
 369 259 303 237 193 192 c 5
 267 38 260 24 323 20 c 4
 337 19 348 17 348 8 c 4
 348 5 347 2 346 0 c 5
120 192 m 5
 215 221 304 247 304 329 c 4
 304 357 293 368 271 368 c 4
 232 368 154 308 154 308 c 5
 120 192 l 5
EndSplineSet
Fore
SplineSet
346 0 m 1
 229 0 l 2
 209 0 212 3 134 173 c 1
 115 168 l 1
 79 34 l 2
 73 12 71 0 61 0 c 2
 20 0 l 2
 13 0 8 0 8 8 c 0
 8 20 158 526 158 586 c 0
 158 609 128 614 112 618 c 0
 104 620 102 625 102 630 c 0
 102 653 143 631 251 664 c 1
 255 663 258 658 258 654 c 1
 164 339 l 1
 226 382 286 408 323 408 c 0
 353 408 369 390 369 350 c 0
 369 259 303 237 193 192 c 5
 242 91 256 50 277 33 c 4
 303 12 348 28 348 8 c 4
 348 5 347 2 346 0 c 1
120 192 m 1
 215 221 304 247 304 329 c 0
 304 357 293 368 271 368 c 0
 232 368 154 308 154 308 c 1
 120 192 l 1
EndSplineSet
EndChar

StartChar: l
Encoding: 108 108 12
Width: 231
VWidth: 0
Flags: HW
HStem: -16 73<33.5029 125> 644 20G<202 258>
VStem: 21 78<4.12744 88.606>
LayerCount: 3
Fore
SplineSet
199 131 m 0
 199 90 103 -16 43 -16 c 0
 28 -16 21 -7 21 15 c 0
 21 62 164 522 164 586 c 0
 164 609 134 614 118 618 c 0
 110 620 108 625 108 630 c 0
 108 653 148 631 256 664 c 1
 260 663 263 658 263 654 c 1
 202 452 99 92 99 69 c 0
 99 62 101 57 106 57 c 0
 144 57 182 136 193 136 c 0
 197 136 199 134 199 131 c 0
EndSplineSet
EndChar

StartChar: m
Encoding: 109 109 13
Width: 725
VWidth: 0
Flags: HW
HStem: -5 37<550.185 617.169> 352 52<599.02 661.499> 360 44<360.147 431.998> 373 26<117.97 206.498>
VStem: 20 23<232.02 295.578> 266 79<0.457081 64.3438> 400 74<293.005 386.288> 512 76<8.27258 89.185> 628 77<278.584 383.96>
AnchorPoint: "l;bl" 0 10 basechar 0
AnchorPoint: "l;o" 0 200 basechar 0
AnchorPoint: "l;x" 10 385 basechar 0
AnchorPoint: "r;bl" 715 10 basechar 0
AnchorPoint: "r;o" 725 200 basechar 0
AnchorPoint: "r;x" 725 385 basechar 0
LayerCount: 3
Fore
SplineSet
588 41 m 0xaf80
 588 34 591 32 597 32 c 0
 628 32 684 103 689 103 c 0
 692 103 697 102 697 93 c 0
 697 84 650 -5 534 -5 c 0
 518 -5 512 4 512 19 c 0
 512 80 628 264 628 340 c 0
 628 345 625 352 615 352 c 0xcf80
 577 352 398 148 345 31 c 0
 331 2 333 0 314 0 c 2
 278 0 l 2
 270 0 266 2 266 9 c 0
 266 32 400 296 400 347 c 0
 400 355 394 360 383 360 c 0xaf80
 339 360 189 202 129 42 c 0
 114 2 118 0 98 0 c 2
 67 0 l 2
 48 0 45 0 45 9 c 0
 45 16 50 26 58 47 c 2
 165 321 l 2
 173 342 177 354 177 362 c 0
 177 371 172 373 164 373 c 0
 112 373 43 318 43 251 c 0
 43 239 41 232 31 232 c 0
 23 232 20 246 20 262 c 0
 20 278 24 298 30 313 c 0
 50 367 107 399 216 399 c 0x9f80
 236 399 253 398 253 385 c 0
 253 371 184 210 184 198 c 0
 184 197 185 197 185 197 c 1
 188 197 196 211 210 233 c 0
 305 380 394 404 440 404 c 0
 464 404 474 390 474 370 c 0
 474 338 451 288 430 244 c 0
 424 232 393 163 393 155 c 0
 393 154 394 154 394 154 c 1
 397 154 408 173 416 182 c 0
 496 287 570 404 672 404 c 0
 695 404 705 389 705 366 c 0
 705 282 588 85 588 41 c 0xaf80
EndSplineSet
EndChar

StartChar: n
Encoding: 110 110 14
Width: 471
VWidth: 0
Flags: HW
HStem: -5 37<295.608 360.187> 369 30<110.637 191.923 300.571 401.205>
VStem: 256 79<4.04248 83.5395> 378 68<276.237 369.453>
AnchorPoint: "l;bl" 0 10 basechar 0
AnchorPoint: "l;o" 0 200 basechar 0
AnchorPoint: "l;x" 10 385 basechar 0
AnchorPoint: "r;bl" 461 10 basechar 0
AnchorPoint: "r;o" 471 200 basechar 0
AnchorPoint: "r;x" 471 385 basechar 0
LayerCount: 3
Fore
SplineSet
446 352 m 0
 446 286.125 335 94.3125 335 42 c 0
 335 35 338 32 347 32 c 0
 370 32 425 101 429 105 c 0
 435 111 439 117 444 117 c 0
 447 117 451 116 451 111 c 0
 451 99 400 -5 278 -5 c 0
 268 -5 256 -4 256 10 c 0
 256 60 378 299 378 345 c 0
 378 364 351 374 336 374 c 0
 306 374 286 336 266 304 c 0
 173 152 173 160 125 52 c 0
 103 2 106 0 93 0 c 2
 45 0 l 2
 41 0 39 2 39 7 c 0
 39 18 51 45 71 98 c 0
 106 191 149 311 156 354 c 0
 158 365 152 369 141 369 c 0
 122 369 88 356 67 327 c 0
 44 297 44 259 27 259 c 0
 22 259 20 263 20 272 c 0
 20 323 55 399 213 399 c 0
 225 399 228 394 228 388 c 0
 228 353 163 205 163 194 c 0
 163 193 163 192 164 192 c 0
 171 192 250 336 278 368 c 0
 294 386 318 404 375 404 c 0
 427 404 446 386 446 352 c 0
EndSplineSet
EndChar

StartChar: o
Encoding: 111 111 15
Width: 364
VWidth: 0
Flags: HW
HStem: -15 29<81.3113 143.164> 381 27<219.212 280.959>
VStem: 15 56<25.9695 153.894> 293 56<237.812 361.562>
AnchorPoint: "l;bl" 0 10 basechar 0
AnchorPoint: "l;o" 0 200 basechar 0
AnchorPoint: "l;x" 40 385 basechar 0
AnchorPoint: "r;bl" 324 10 basechar 0
AnchorPoint: "r;o" 364 200 basechar 0
AnchorPoint: "r;x" 364 385 basechar 0
LayerCount: 3
Fore
SplineSet
293 333 m 0
 293 375 263 381 250 381 c 0
 179 381 71 140 71 64 c 0
 71 29 87 14 113 14 c 0
 179 14 293 237 293 333 c 0
245 408 m 0
 313 408 349 345 349 280 c 0
 349 136 218 -15 113 -15 c 0
 48 -15 15 42 15 108 c 0
 15 210 110 408 245 408 c 0
EndSplineSet
EndChar

StartChar: p
Encoding: 112 112 16
Width: 446
VWidth: 0
Flags: HW
HStem: -211 21G<-58.5 178.5> -8 25<180.915 249.41> 367 37<243.077 366>
VStem: 189 62<440.448 478> 359 69<174.09 343.208>
DStem2: 9.54166 -211 77.582 -211 0.241922 0.970296<67.4564 250.85 377.128 558.907 561.02 612.153 655.252 714.91>
LayerCount: 3
Fore
SplineSet
154 329 m 1
 83 301 25 235 15 235 c 0
 12 235 8 238 8 243 c 0
 8 269 111 334 160 357 c 1
 189 467 l 2
 192 477 196 478 204 478 c 2
 230 478 l 2
 250 478 251 474 251 468 c 0
 251 464 228 381 228 381 c 1
 276 397 310 404 341 404 c 0
 391 404 428 378 428 292 c 0
 428 142 321 -8 215 -8 c 0
 165 -8 136 16 136 16 c 1
 108 -89 l 2
 99 -121 93 -148 93 -163 c 0
 93 -205 180 -180 180 -203 c 0
 180 -206 179 -209 178 -211 c 1
 -58 -211 l 1
 -59 -209 -60 -206 -60 -203 c 0
 -60 -187 -17 -199 9 -180 c 0
 20 -172 23 -155 25 -149 c 2
 154 329 l 1
216 17 m 0
 278 17 359 160 359 269 c 0
 359 324 337 367 281 367 c 0
 248 367 221 354 221 354 c 1
 197 263 160 136 160 82 c 0
 160 58 170 17 216 17 c 0
EndSplineSet
AlternateSubs2: "'aalt' Access All Alternates lookup 0 subtable" p.ld
AlternateSubs2: "'aalt' Access All Alternates in Latin lookup 0 subtable" p.ld
Substitution2: "'ss01' Style Set 1 in Latin lookup 1 subtable" p.ld
EndChar

StartChar: q
Encoding: 113 113 17
Width: 428
VWidth: 0
Flags: HW
HStem: -211 21G<123.5 360.5> -13 42<65.5 163.325> 364 40<228.838 300.845>
VStem: 13 71<36.9459 149.405> 322 98<242.5 400>
DStem2: 207 -149 290 -89 0.268377 0.963314<5.4502 288.104 484.757 580.108>
LayerCount: 3
Fore
SplineSet
92 -13 m 0
 39 -13 13 26 13 72 c 0
 13 133 68 216 123 285 c 0
 176 351 235 404 285 404 c 0
 316 404 327 369 337 318 c 1
 358 393 l 2
 361 403 366 404 374 404 c 2
 399 404 l 2
 413 404 420 404 420 396 c 0
 420 393 418 383 417 380 c 2
 290 -89 l 2
 281 -121 275 -148 275 -163 c 0
 275 -205 362 -180 362 -203 c 0
 362 -206 361 -209 360 -211 c 1
 124 -211 l 1
 123 -209 122 -206 122 -203 c 0
 122 -187 165 -199 191 -180 c 0
 202 -172 205 -155 207 -149 c 2
 277 110 l 2
 280 121 283 127 283 129 c 1
 282 130 l 1
 278 130 241 69 205 38 c 0
 163 2 134 -13 92 -13 c 0
259 364 m 0
 182 364 84 153 84 87 c 0
 84 61 94 29 133 29 c 0
 197 29 322 197 322 288 c 0
 322 322 299 364 259 364 c 0
EndSplineSet
AlternateSubs2: "'aalt' Access All Alternates lookup 0 subtable" q.ld
AlternateSubs2: "'aalt' Access All Alternates in Latin lookup 0 subtable" q.ld
Substitution2: "'ss01' Style Set 1 in Latin lookup 1 subtable" q.ld
EndChar

StartChar: r
Encoding: 114 114 18
Width: 318
VWidth: 0
Flags: HW
HStem: -0 21G<55 105> 329 70<252.716 318.144> 362 37<108.867 190.998>
VStem: 48 71<0.000743866 91.9153> 133 68<290.931 389.121>
LayerCount: 3
Fore
SplineSet
48 6 m 0xd8
 48 18 133 321 133 352 c 0
 133 355 131 362 123 362 c 0
 81 362 56 311 51 297 c 0
 42 272 42 248 31 248 c 0
 26 248 18 255 18 275 c 0
 18 281 19 288 21 297 c 0
 38 375 128 399 181 399 c 0xb8
 196 399 201 393 201 381 c 0
 201 343 161 243 161 223 c 0
 161 221 162 220 163 220 c 0
 177 220 228 404 300 404 c 0
 329 404 342 386 342 367 c 0
 342 345 325 322 298 322 c 0
 286 322 278 329 268 329 c 0
 257 329 238 326 197 232 c 0
 143 110 131 66 119 23 c 0
 113 0 114 0 96 0 c 2
 59 -0 l 2
 51 0 48 1 48 6 c 0xd8
EndSplineSet
EndChar

StartChar: s
Encoding: 115 115 19
Width: 291
VWidth: 0
Flags: HW
HStem: -13 34<49.5 145.932> 375 29<143.196 225.5>
VStem: 76 57<272.117 358.412> 156 59<41.8402 140.542>
LayerCount: 3
Fore
SplineSet
215 105 m 0
 215 42 158 -13 76 -13 c 0
 23 -13 1 13 1 37 c 0
 1 57 17 76 43 76 c 0
 81 76 83 21 114 21 c 0
 138 21 156 39 156 68 c 0
 156 128 76 226 76 295 c 0
 76 371 147 404 204 404 c 0
 247 404 283 385 283 349 c 0
 283 335 268 320 250 320 c 0
 238 320 225 326 209 346 c 0
 192 368 178 375 167 375 c 0
 146 375 133 348 133 335 c 0
 133 292 215 174 215 105 c 0
EndSplineSet
EndChar

StartChar: t
Encoding: 116 116 20
Width: 295
VWidth: 0
Flags: HW
HStem: -13 46<69.5 157.544> 354 40<71.995 140 216 283.151>
VStem: 45 74<3.01323 108.758> 173 70<447.182 494.709>
DStem2: 39.3784 -13 112.497 -13 0.241922 0.970296<159.622 380.441 437.639 527.542>
AnchorPoint: "l;bl" 0 10 basechar 0
AnchorPoint: "l;o" 20 200 basechar 0
AnchorPoint: "l;x" 30 385 basechar 0
AnchorPoint: "r;bl" 255 10 basechar 0
AnchorPoint: "r;o" 275 200 basechar 0
AnchorPoint: "r;x" 295 385 basechar 0
LayerCount: 3
Fore
SplineSet
131 33 m 0
 164 33 226 102 241 102 c 0
 245 102 247 99 247 95 c 0
 247 89 245 81 236 70 c 0
 187 12 118 -13 85 -13 c 0
 54 -13 45 0 45 17 c 0
 45 35 65 105 87 178 c 2
 140 354 l 1
 65 354 l 1
 65 369 70 384 75 394 c 1
 151 394 l 1
 173 472 l 2
 180 494 182 495 207 495 c 2
 223 495 l 2
 239 495 243 492 243 483 c 0
 243 472 228 437 216 394 c 1
 290 394 l 1
 290 382 286 365 280 354 c 1
 204 354 l 1
 204 354 119 67 119 46 c 0
 119 36 125 33 131 33 c 0
EndSplineSet
EndChar

StartChar: u
Encoding: 117 117 21
Width: 454
VWidth: 0
Flags: HW
HStem: -13 39<74.591 150.123 290.018 346.422> 369 30<96.7597 197>
VStem: 17 23<254.976 309.122> 32 71<26.2255 133.103> 145 79<317.881 390.311> 252 76<-0.476885 84.9964>
LayerCount: 3
Fore
SplineSet
224 382 m 0xec
 224 338 103 125 103 50 c 0
 103 35 108 26 120 26 c 0
 135 26 159 38 184 62 c 0
 302 176 364 376 373 390 c 0
 378 398 380 399 415 399 c 0
 439 399 441 397 441 392 c 0
 441 371 328 87 328 45 c 0
 328 36 332 32 337 32 c 0
 366 32 429 111 436 111 c 0
 442 111 443 105 443 103 c 0
 443 87 374 -13 271 -13 c 0
 257 -13 252 -5 252 8 c 0
 252 40 285 110 300 156 c 1
 300 156 310 181 307 181 c 0
 300 181 202 -13 86 -13 c 0
 46 -13 32 8 32 41 c 0xdc
 32 132 145 306 145 361 c 0
 145 366 141 369 134 369 c 0
 115 369 63 352 40 283 c 0
 35 268 36 254 24 254 c 0
 19 254 17 263 17 272 c 0
 17 320 50 399 182 399 c 0
 212 399 224 399 224 382 c 0xec
EndSplineSet
EndChar

StartChar: v
Encoding: 118 118 22
Width: 485
VWidth: 0
Flags: HW
HStem: -13 74<215.339 297.317> 337 62<64.549 224.996> 386 20G<418.5 437.5>
VStem: 10 43<214.904 309.678> 128 63<85.4198 185.041> 225 47<328.581 390.5> 439 38<242.554 369.5>
LayerCount: 3
Fore
SplineSet
477 346 m 0xbe
 477 216 362 -13 225 -13 c 0
 172 -13 128 24 128 89 c 0
 128 196 225 311 225 331 c 0
 225 337 220 337 203 337 c 2
 110 337 l 2
 72 337 53 327 53 289 c 0
 53 261 72 254 72 231 c 0
 72 211 55 200 39 200 c 0
 24 200 10 209 10 229 c 0
 10 283 41 325 67 384 c 0
 73 396 82 399 97 399 c 2
 260 399 l 2xde
 269 399 272 394 272 387 c 0
 272 351 191 230 191 157 c 0
 191 110 211 61 267 61 c 0
 372 61 439 249 439 293 c 0
 439 326 387 315 387 366 c 0
 387 388 408 406 429 406 c 0
 446 406 477 393 477 346 c 0xbe
EndSplineSet
EndChar

StartChar: w
Encoding: 119 119 23
Width: 694
VWidth: 0
Flags: HW
HStem: -13 68<233.89 311.04 455.169 535.47> 337 62<57.0018 244.993> 386 20G<608 646>
VStem: 6 46<217.933 315.268> 143 65<81.6881 175.882> 409 80<279.95 394.189> 426 13<220 242> 643 32<191.138 306.739>
LayerCount: 3
Fore
SplineSet
282 55 m 0xdb
 377 55 426 220 426 275 c 0xdb
 426 316 409 327 409 358 c 0
 409 379 424 399 452 399 c 0
 475 399 489 386 489 355 c 0xdd
 489 313 439 242 439 141 c 0
 439 81 464 55 499 55 c 0
 591 55 643 207 643 270 c 0
 643 327 577 316 577 365 c 0
 577 387 596 406 620 406 c 0xbb
 672 406 675 345 675 287 c 0
 675 153 578 -13 464 -13 c 0
 401 -13 385 21 376 73 c 1
 340 22 292 -13 246 -13 c 0
 178 -13 143 24 143 84 c 0
 143 179 245 319 245 331 c 0
 245 337 236 337 215 337 c 2
 90 337 l 2
 64 337 52 321 52 292 c 0
 52 260 68 258 68 231 c 0
 68 214 56 202 37 202 c 0
 21 202 6 215 6 242 c 0
 6 275 37 334 57 379 c 0
 63 391 66 399 81 399 c 2
 277 399 l 2
 299 399 294 389 292 382 c 0
 282 352 208 198 208 144 c 0
 208 102 236 55 282 55 c 0xdb
EndSplineSet
EndChar

StartChar: x
Encoding: 120 120 24
Width: 434
VWidth: 0
Flags: HW
HStem: -13 61<240 316.59> -13 51<61.3648 116.023> 348 58<133.777 219 338.285 403.5>
VStem: 18 43<38.7883 104.871> 78 42<269.674 339.866> 204 52<71.3374 151 160.512 306.219> 380 42<282.568 350.993>
LayerCount: 3
Fore
SplineSet
194 406 m 0x7e
 244 406 241 355 250 240 c 1
 297 341 334 406 389 406 c 0
 418 406 422 382 422 360 c 0
 422 325 410 278 392 278 c 0
 382 278 380 285 380 295 c 0
 380 306 383 318 383 329 c 0
 383 341 379 351 363 351 c 0
 319 351 256 200 256 200 c 1
 259 165 267 48 300 48 c 0
 341 48 348 124 368 124 c 0
 378 124 382 118 382 109 c 0
 382 70 318 -13 267 -13 c 0xbe
 213 -13 214 71 204 151 c 1
 169 85 128 -13 72 -13 c 0x7e
 39 -13 18 11 18 48 c 0xbe
 18 99 51 116 59 116 c 0
 68 116 71 113 71 108 c 0
 71 99 61 87 61 63 c 0
 61 45 71 38 83 38 c 0
 122 38 189 173 198 187 c 1
 183 310 181 348 156 348 c 0
 141 348 126 329 120 317 c 0
 109 294 106 266 91 266 c 0
 84 266 78 271 78 282 c 0
 79 336 130 406 194 406 c 0x7e
EndSplineSet
EndChar

StartChar: y
Encoding: 121 121 25
Width: 434
VWidth: 0
Flags: HW
HStem: -224 57<11.625 88.0115> 348 58<95.5716 161> 379 20G<368 396.5>
VStem: 194 38<61.0461 169.865> 352 59<300.381 398.815>
LayerCount: 3
Fore
SplineSet
25 -136 m 0xb8
 62 -136 58 -167 76 -167 c 0
 107 -167 194 -53 194 17 c 0
 194 43 162 348 114 348 c 0
 69 348 57 230 41 230 c 0
 32 230 28 238 28 250 c 0
 28 296 82 406 141 406 c 0xd8
 181 406 207 383 232 226 c 0
 248 124 248 61 251 61 c 0
 254 61 264 85 277 111 c 0
 328 211 349 328 352 350 c 4
 357 394 356 399 380 399 c 6
 392 399 l 6
 401 399 411 398 411 384 c 4
 411 340 358 203 285 70 c 0
 157 -164 82 -224 35 -224 c 0
 5 -224 -18 -208 -18 -180 c 0
 -18 -158 -2 -136 25 -136 c 0xb8
EndSplineSet
AlternateSubs2: "'aalt' Access All Alternates lookup 0 subtable" y.ld
AlternateSubs2: "'aalt' Access All Alternates in Latin lookup 0 subtable" y.ld
Substitution2: "'ss01' Style Set 1 in Latin lookup 1 subtable" y.ld
EndChar

StartChar: z
Encoding: 122 122 26
Width: 409
VWidth: 0
Flags: HW
HStem: -22 57<233.582 325.725> 313 54<250.134 285> 359 53<94.5911 195.495>
VStem: 29 44<266.5 347.219> 343 41<42.1339 121.5>
LayerCount: 3
Fore
SplineSet
301 35 m 0xd8
 333 35 343 59 343 70 c 0
 343 91 313 97 313 125 c 0
 313 140 327 155 349 155 c 0
 366 155 384 141 384 102 c 0
 384 69 368 45 346 20 c 0
 324 -5 306 -22 262 -22 c 0
 192 -22 147 22 104 22 c 0
 56 22 38 -26 28 -26 c 0
 17 -26 10 -17 10 -8 c 0
 10 1 285 306 285 313 c 1xd8
 270 316 260 312 221 327 c 0
 187 340 153 359 118 359 c 0
 99 359 73 349 73 325 c 0
 73 303 102 293 102 267 c 0
 102 246 87 236 71 236 c 0
 51 236 29 251 29 282 c 0
 29 323 48 348 74 374 c 0
 103 403 146 412 169 412 c 0xb8
 228 412 270 367 320 367 c 0
 330 367 339 372 347 379 c 0
 357 388 364 397 366 397 c 0
 371 397 382 388 382 382 c 0
 382 378 381 375 379 373 c 0
 333 325 124 84 124 84 c 1
 248 65 257 35 301 35 c 0xd8
EndSplineSet
EndChar

StartChar: A
Encoding: 65 65 27
Width: 720
VWidth: 0
Flags: W
HStem: 0 21G<12.5 252.5 391.5 661.5> 257 36<334.004 509.001> 560 89<550.5 635.52>
VStem: 389 192<8 118.5>
DStem2: 457 509 380 364 0.631673 0.775235<-440.722 -285.241 -241.074 98.0283>
LayerCount: 3
Fore
SplineSet
334 298 m 0
 334 293 340 293 347 293 c 2
 502 293 l 2
 520 293 523 328 527 347 c 2
 551 484 l 2
 557 517 561 537 561 548 c 0
 561 557 559 560 554 560 c 0
 547 560 534 549 525 538 c 0
 508 519 477 481 380 364 c 0
 347 324 334 303 334 298 c 0
628 649 m 0
 647 649 648 644 648 625 c 0
 648 595 581 168 581 69 c 0
 581 53 584 42 589 36 c 0
 604 16 663 30 663 10 c 0
 663 6 662 2 661 0 c 1
 392 0 l 1
 391 2 389 6 389 10 c 0
 389 31 444 15 463 34 c 0
 471 42 475 55 479 76 c 0
 488 117 502 192 509 235 c 0
 511 249 506 257 500 257 c 2
 317 257 l 2
 305 257 292 255 283 241 c 2
 177 90 l 2
 160 65 150 47 150 38 c 0
 150 13 254 34 254 10 c 0
 254 6 253 2 252 0 c 1
 13 0 l 1
 12 2 10 6 10 10 c 0
 10 30 40 10 80 44 c 0
 113 72 149 124 193 181 c 0
 263 272 368 407 457 509 c 0
 554 621 594 649 628 649 c 0
EndSplineSet
EndChar

StartChar: B
Encoding: 66 66 28
Width: 572
VWidth: 0
Flags: W
HStem: -0 30<188.246 330.078> 307 23<253 349.556> 611 25<323.75 423.196>
VStem: 425 88<108.141 253.213> 473 88<422.572 577.406>
DStem2: 83.3004 0 171.3 0 0.241922 0.970296<78.7272 337.483 361.252 599.93>
LayerCount: 3
Fore
SplineSet
23 0 m 1xf0
 22 2 20 6 20 10 c 0
 20 30 74 11 89 36 c 0
 93 44 97 56 102 75 c 2
 222 561 l 6
 224 569 226 577 226 583 c 4
 226 632 149 604 149 626 c 4
 149 630 150 634 151 636 c 5
 382 636 l 2
 451 636 561 633 561 499 c 0xe8
 561 445 528 386 470 351 c 0
 415 317 374 322 374 318 c 0
 374 316 392 318 419 309 c 0
 491 285 513 218 513 191 c 0
 513 0 348 0 279 -0 c 2
 23 0 l 1xf0
279 307 m 2
 247 307 l 1
 190 75 l 2
 188 68 187 61 187 55 c 0
 187 33 197 30 246 30 c 2
 250 30 l 2
 375 30 425 109 425 193 c 0xf0
 425 253 384 307 279 307 c 2
473 517 m 0xe8
 473 554 455 611 360 611 c 0
 321 611 319 596 310 560 c 2
 253 330 l 1
 368 330 473 362 473 517 c 0xe8
EndSplineSet
EndChar

StartChar: C
Encoding: 67 67 29
Width: 556
VWidth: 0
Flags: W
HStem: -21 32<187.547 326.017> 627 27<317.529 437.044>
VStem: 23 94<120.371 338.061> 498 34<455.398 565.904>
LayerCount: 3
Fore
SplineSet
253 11 m 0
 392 11 422 151 441 151 c 0
 446 151 455 148 455 140 c 0
 455 126 442 87 426 32 c 0
 417 1 422 -3 397 -5 c 0
 384 -6 371 -8 362 -8 c 0
 352 -8 292 -21 240 -21 c 0
 97 -21 23 111 23 230 c 0
 23 422 156 654 379 654 c 0
 452 654 501 608 506 608 c 0
 512 608 528 618 535 618 c 0
 540 618 542 616 542 610 c 0
 542 607 537 576 532 543 c 0
 520 458 523 455 511 455 c 0
 499 455 498 462 498 479 c 0
 497 505 500 627 376 627 c 0
 180 627 117 293 117 186 c 0
 117 89 151 11 253 11 c 0
EndSplineSet
EndChar

StartChar: D
Encoding: 68 68 30
Width: 708
VWidth: 0
Flags: W
HStem: 0 31<182.836 368.876> 608 28<314.355 478.74>
VStem: 597 84<255.413 503.092>
DStem2: 77.3004 0 165.3 0 0.241922 0.970296<80.5739 599.93>
LayerCount: 3
Fore
SplineSet
145 636 m 1
 369 636 l 2
 530 636 681 598 681 389 c 0
 681 323 665 218 606 138 c 0
 505 1 332 0 271 0 c 2
 17 0 l 1
 16 2 14 6 14 10 c 0
 14 30 68 11 83 36 c 0
 87 44 91 56 96 75 c 2
 216 561 l 2
 218 569 220 577 220 583 c 0
 220 632 143 604 143 626 c 0
 143 630 144 634 145 636 c 1
181 57 m 0
 181 33 202 31 239 31 c 2
 255 31 l 2
 529 31 597 246 597 402 c 0
 597 578 488 608 386 608 c 0
 308 608 314 602 304 561 c 2
 184 75 l 2
 181 62 181 61 181 57 c 0
EndSplineSet
EndChar

StartChar: E
Encoding: 69 69 31
Width: 634
VWidth: 0
Flags: W
HStem: 0 27<197.646 422.498> 330 21<271.311 379.483> 609 27<331.313 517.078>
VStem: 412 27<219.04 302.845>
DStem2: 94.3004 -0 182.3 -0 0.241922 0.970296<71.7842 366.604 389.326 599.93>
LayerCount: 3
Fore
SplineSet
162 636 m 1
 490 636 l 2
 538 636 575 640 585 640 c 0
 601 640 600 638 604 588 c 0
 608 543 614 518 614 505 c 0
 614 496 611 494 603 494 c 0
 592 494 583 521 556 562 c 0
 529 603 490 609 409 609 c 2
 359 609 l 2
 329 609 329 593 321 561 c 2
 275 375 l 2
 273 366 271 361 271 357 c 0
 271 352 276 351 293 351 c 2
 361 351 l 2
 468 351 436 439 467 439 c 0
 475 439 477 434 477 429 c 0
 477 411 469 410 439 241 c 0
 436 225 438 219 424 219 c 0
 413 219 412 225 412 235 c 2
 412 245 l 2
 412 282 408 330 336 330 c 2
 297 330 l 2
 262 330 263 326 259 308 c 2
 201 75 l 2
 198 65 197 56 197 48 c 0
 197 31 204 27 223 27 c 2
 369 27 l 2
 441 27 493 94 544 157 c 0
 548 162 552 162 555 162 c 0
 561 162 566 156 566 153 c 0
 566 147 550 101 540 61 c 0
 529 16 535 0 509 -0 c 2
 34 0 l 1
 33 2 31 6 31 10 c 0
 31 30 85 11 100 36 c 0
 104 44 108 56 113 75 c 2
 233 561 l 2
 235 569 237 577 237 583 c 0
 237 632 160 604 160 626 c 0
 160 630 161 634 162 636 c 1
EndSplineSet
Layer: 2
SplineSet
237 583 m 4
 237 628 170 604 170 626 c 4
 170 630 171 634 172 636 c 5
 490 636 l 6
 538 636 579 640 589 640 c 4
 605 640 598 629 609 562 c 4
 612 544 612 529 612 517 c 6
 612 502 l 6
 612 495 608 494 605 493 c 4
 597 490 592 500 591 501 c 4
 576 523 540 609 514 609 c 6
 359 609 l 6
 329 609 329 593 321 561 c 6
 276 379 l 6
 274 370 272 365 272 361 c 4
 272 356 277 355 294 355 c 6
 349 355 l 6
 452 355 445 384 472 431 c 4
 476 438 475 440 483 440 c 4
 491 440 493 439 493 431 c 4
 493 418 486 414 461 336 c 4
 437 260 428 238 428 225 c 4
 428 217 426 216 418 216 c 4
 410 216 408 217 407 225 c 4
 401 261 421 334 349 334 c 6
 298 334 l 6
 263 334 264 326 260 312 c 6
 201 75 l 6
 199 65 197 56 197 48 c 4
 197 31 204 27 223 27 c 6
 366 27 l 6
 438 27 470 72 541 155 c 4
 544 158 546 163 552 161 c 4
 558 159 559 159 559 153 c 4
 559 142 529 0 509 0 c 6
 34 0 l 5
 33 2 31 6 31 10 c 4
 31 30 85 11 100 36 c 4
 104 44 108 56 113 75 c 6
 233 561 l 6
 235 570 237 577 237 583 c 4
EndSplineSet
EndChar

StartChar: F
Encoding: 70 70 32
Width: 587
VWidth: 0
Flags: W
HStem: 0 21G<19.5 265.5> 327 21<258.552 353.318> 609 27<321.005 502.526>
VStem: 386 25<216.007 295.076>
DStem2: 80.3004 0 168.3 0 0.241922 0.970296<77.7571 363.579 390.63 599.93>
LayerCount: 3
Fore
SplineSet
148 636 m 1
 462 636 l 2
 510 636 556 641 566 641 c 0
 574 641 579 638 579 629 c 0
 579 624 574 551 574 528 c 0
 574 525 574 510 566 510 c 0
 559 510 556 511 550 525 c 0
 540 547 525 573 507 591 c 0
 492 607 492 609 438 609 c 2
 366 609 l 2
 331 609 319 608 307 561 c 2
 263 385 l 2
 260 372 258 364 258 358 c 0
 258 350 263 348 282 348 c 2
 335 348 l 2
 441 348 410 436 442 436 c 0
 456 436 451 419 449 412 c 0
 436 364 412 239 411 226 c 0
 411 217 403 216 398 216 c 0
 387 216 386 222 386 232 c 2
 386 242 l 2
 386 279 382 327 310 327 c 2
 283 327 l 2
 266 327 250 327 247 316 c 2
 187 75 l 2
 186 67 184 60 184 54 c 0
 184 49 185 43 190 37 c 0
 211 13 267 30 267 10 c 0
 267 6 266 2 265 0 c 1
 20 0 l 1
 19 2 17 6 17 10 c 0
 17 30 71 11 86 36 c 0
 90 44 94 56 99 75 c 2
 219 561 l 2
 221 569 223 577 223 583 c 0
 223 632 146 604 146 626 c 0
 146 630 147 634 148 636 c 1
EndSplineSet
EndChar

StartChar: G
Encoding: 71 71 33
Width: 644
VWidth: 0
Flags: MW
HStem: -22 33<236.489 394.374> 626 28<350.028 477.347>
VStem: 33 101<123.861 347.816> 578 48<468.203 544.939> 578 23<437.014 509.488>
DStem2: 394.834 -22 474.566 -22 0.241922 0.970296<94.3688 242.367>
LayerCount: 3
Fore
SplineSet
443 176 m 2xf0
 447 195 448 205 448 215 c 0
 448 225 445 231 434 235 c 0
 395 251 332 238 332 257 c 0
 332 261 333 265 334 267 c 1
 618 267 l 1
 619 265 621 261 621 257 c 0
 621 230 542 269 525 192 c 2
 499 76 l 2
 496 65 495 56 495 50 c 0
 495 36 502 34 515 34 c 2
 530 34 l 2
 546 34 547 29 547 19 c 0
 547 9 545 11 514 8 c 0
 431 0 358 -22 300 -22 c 0
 142 -22 33 84 33 226 c 0
 33 384 142 654 412 654 c 0
 519 654 586 583 595 583 c 2
 606 583 l 2
 620 583 626 583 626 574 c 0xf0
 626 562 612 520 601 449 c 0
 599 439 593 437 589 437 c 0
 581 437 578 441 578 449 c 2xe8
 578 472 l 2
 578 556 502 626 409 626 c 0
 262 626 134 407 134 201 c 0
 134 83 204 11 317 11 c 0
 341 11 393 20 403 34 c 0
 410 43 416 61 426 103 c 2
 443 176 l 2xf0
EndSplineSet
EndChar

StartChar: H
Encoding: 72 72 34
Width: 811
VWidth: 0
Flags: W
HStem: 0 21G<17.5 262.5 423.5 668.5> 308 31<255 576> 616 20G<145.5 398.5 561.5 804.5>
DStem2: 83.3004 0 171.3 0 0.241922 0.970296<71.7844 338.696 370.468 599.688> 499.3 0 587.3 0 0.241922 0.970296<71.7851 317.406 349.179 599.93>
LayerCount: 3
Fore
SplineSet
225 583 m 0
 225 630 144 604 144 626 c 0
 144 630 145 634 146 636 c 1
 398 636 l 1
 399 634 401 630 401 626 c 0
 401 608 342 623 326 603 c 0
 320 595 316 584 310 561 c 2
 255 339 l 1
 583 339 l 1
 638 561 l 2
 640 569 642 577 642 583 c 0
 642 629 560 605 560 626 c 0
 560 630 561 634 562 636 c 1
 804 636 l 1
 805 634 807 630 807 626 c 0
 807 606 754 629 737 597 c 0
 732 587 730 575 726 561 c 2
 606 75 l 2
 604 66 602 56 602 48 c 0
 602 7 670 35 670 10 c 0
 670 6 669 2 668 0 c 1
 424 0 l 1
 423 2 421 6 421 10 c 0
 421 31 494 7 510 47 c 0
 513 54 515 62 518 75 c 2
 576 308 l 1
 248 308 l 1
 190 75 l 2
 188 65 186 56 186 48 c 0
 186 5.36875 264 33.8390625 264 10 c 0
 264 6 263 2 262 0 c 1
 18 0 l 1
 17 2 15 6 15 10 c 0
 15 28.8681208594 70.2597769716 13.5166747827 85.875 32 c 0
 92 39.25 96 52 102 75 c 2
 222 561 l 2
 224 569 225 577 225 583 c 0
EndSplineSet
EndChar

StartChar: I
Encoding: 73 73 35
Width: 384
VWidth: 0
Flags: W
HStem: 0 21G<12.5 251.5> 616 20G<140.5 379.5>
DStem2: 73.3004 0 161.3 0 0.241922 0.970296<76.5456 599.93>
LayerCount: 3
Fore
SplineSet
379 636 m 1
 380 634 382 630 382 626 c 0
 382 606 331 625 314 601 c 0
 308 593 305 581 300 561 c 2
 180 75 l 2
 178 67 176 59 176 53 c 0
 176 4 253 32 253 10 c 0
 253 6 252 2 251 0 c 1
 13 0 l 1
 12 2 10 6 10 10 c 0
 10 26 49 17 69 29 c 0
 81 37 86 51 92 75 c 2
 212 561 l 2
 214 569 216 577 216 583 c 0
 216 632 139 604 139 626 c 0
 139 630 140 634 141 636 c 1
 379 636 l 1
EndSplineSet
EndChar

StartChar: J
Encoding: 74 74 36
Width: 363
VWidth: 0
Flags: W
HStem: -188 34<-81.7969 -12.4665> 616 20G<107.5 350.5>
DStem2: 4.15053 -188 89.4267 -188 0.241922 0.970296<106.754 795.847>
LayerCount: 3
Fore
SplineSet
106 626 m 0
 106 630 107 634 108 636 c 1
 350 636 l 1
 351 634 353 630 353 626 c 0
 353 607 302 629 285 596 c 0
 280 587 279 575 275 561 c 2
 155 75 l 2
 136 -1 118 -59 86 -104 c 0
 30 -183 -53 -188 -72 -188 c 2
 -76 -188 l 1
 -76 -188 -82 -177 -82 -168 c 0
 -82 -163 -81 -159 -78 -154 c 1
 14 -143 20 -131 60 36 c 2
 187 561 l 2
 189 569 191 578 191 586 c 0
 191 629 106 604 106 626 c 0
EndSplineSet
EndChar

StartChar: K
Encoding: 75 75 37
Width: 714
VWidth: 0
Flags: W
HStem: 0 21G<42.5 272.5 421.5 672.5> 349 16<274 319> 616 20G<160.5 383.5 484.5 721.5>
DStem2: 222 561 310 561 0.201539 0.97948<-505.33 -203.58 -178.985 22.0782>
LayerCount: 3
Fore
SplineSet
672 0 m 1
 422 0 l 1
 421 2 419 6 419 10 c 0
 419 32 486 11 486 44 c 0
 486 53 480 61 469 82 c 0
 334 337 334 349 319 349 c 0
 314 349 307 346 298 343 c 0
 291 341 284 339 277 337 c 0
 264 333 263 334 260 318 c 2
 210 75 l 2
 208 65 206 56 206 48 c 0
 206 41 208 35 212 31 c 0
 228 16 274 30 274 10 c 0
 274 6 273 2 272 0 c 1
 43 0 l 1
 42 2 40 6 40 10 c 0
 40 30 94 11 109 36 c 0
 113 44 118 56 122 75 c 2
 222 561 l 2
 224 570 226 577 226 583 c 0
 226 628 159 604 159 626 c 0
 159 630 160 634 161 636 c 1
 383 636 l 1
 384 634 386 630 386 626 c 0
 386 607 340 627 322 599 c 0
 315 588 313 573 310 561 c 0
 271 369 271 372 271 368 c 0
 271 366 272 365 274 365 c 0
 277 365 281 366 288 368 c 0
 396 398 509 519 528 541 c 0
 534 548 558 571 558 588 c 0
 558 626 483 606 483 626 c 0
 483 630 484 634 485 636 c 1
 721 636 l 1
 722 634 724 630 724 626 c 0
 724 610 701 619 670 609 c 0
 611 589 573 525 446 421 c 0
 422 402 411 398 411 390 c 0
 411 385 415 377 423 363 c 0
 588 61 585 66 590 60 c 0
 601 45 610 37 620 31 c 0
 644 18 674 27 674 10 c 0
 674 6 673 2 672 0 c 1
EndSplineSet
Layer: 2
SplineSet
226 583 m 4
 226 628 159 604 159 626 c 4
 159 630 160 634 161 636 c 5
 383 636 l 5
 384 634 386 630 386 626 c 4
 386 607 340 627 322 599 c 4
 315 588 313 573 310 561 c 6
 269.567687444 364.498961096 l 5
 382.204155875 384.997457759 507.721118293 519.690940567 528 543 c 4
 534.051391602 549.955627441 558 571 558 588 c 4
 558 626 483 606 483 626 c 4
 483 630 484 634 485 636 c 5
 721 636 l 5
 722 634 724 630 724 626 c 4
 724 610 701.01165807 618.963744011 670 609 c 4
 620.018799401 592.941526538 587.247386637 555.925220995 552 520 c 4
 448 414 412 399.533752441 412 392 c 4
 412 384 399 391 423 363 c 5
 584 72 l 6
 628.200092717 -7.88960857565 694 31 694 10 c 4
 694 6 693 2 692 0 c 5
 417 0 l 5
 416 2 414 6 414 10 c 4
 414 32 488 11 488 44 c 4
 488 53 479 61 468 82 c 6
 348 309 l 6
 337 331 331 363 279 338 c 4
 277.231528303 337.149773223 270.754145667 335.979133746 263.476810643 334.897300096 c 5
 210 75 l 6
 208 65 206 56 206 48 c 4
 206 41 208 35 212 31 c 4
 228 16 274 30 274 10 c 4
 274 6 273 2 272 0 c 5
 43 0 l 5
 42 2 40 6 40 10 c 4
 40 30 94 11 109 36 c 4
 113 44 118 56 122 75 c 6
 222 561 l 6
 224 570 226 577 226 583 c 4
EndSplineSet
EndChar

StartChar: L
Encoding: 76 76 38
Width: 603
VWidth: 0
Flags: W
HStem: 0 28<194.285 421.094> 616 20G<155.5 398.5>
DStem2: 88.3004 -0 176.3 -0 0.241922 0.970296<77.7563 599.93>
LayerCount: 3
Fore
SplineSet
156 636 m 1
 398 636 l 1
 399 634 401 630 401 626 c 0
 401 608 346 627 327 599 c 0
 320 588 318 573 315 561 c 2
 195 75 l 2
 193 66 192 60 192 54 c 0
 192 29 211 28 241 28 c 2
 324 28 l 2
 401 28 480 50 542 119 c 0
 562 141 566 145 573 145 c 0
 579 145 581 141 581 137 c 0
 581 133 579 128 578 125 c 2
 539 30 l 2
 527 1 522 0 503 -0 c 2
 28 0 l 1
 27 2 25 6 25 10 c 0
 25 30 79 11 94 36 c 0
 98 44 102 56 107 75 c 2
 227 561 l 2
 229 569 231 577 231 583 c 0
 231 632 154 604 154 626 c 0
 154 630 155 634 156 636 c 1
EndSplineSet
EndChar

StartChar: N
Encoding: 78 78 39
Width: 856
VWidth: 0
Flags: W
HStem: 0 21G<24.5 279.5 562 572> 613 23<763.139 830.793>
LayerCount: 3
Fore
SplineSet
144 626 m 0
 144 630 146 634 147 636 c 1
 279 636 l 2
 308 636 314 633 328 607 c 0
 584 143 583 139 588 139 c 0
 593 139 629 231 680 446 c 0
 691 493 695 529 695 556 c 0
 695 582 687 599 664 607 c 0
 634 618 596 609 596 626 c 0
 596 630 597 634 598 636 c 1
 828 636 l 1
 829 634 831 630 831 626 c 0
 831 615 813 616 794 613 c 0
 756 608 749 592 732 530 c 0
 681 337 688 355 654 238 c 0
 612 95 595 38 585 15 c 0
 580 3 576 0 568 0 c 0
 556 0 552 7 547 15 c 0
 538 29 527 52 507 88 c 2
 290 484 l 2
 280 503 278 506 275 506 c 0
 272 506 271 500 262 473 c 0
 232 380 174 165 174 88 c 0
 174 58 181 43 195 34 c 0
 226 15 281 30 281 10 c 0
 281 6 280 2 279 0 c 1
 25 0 l 1
 24 2 22 6 22 10 c 0
 22 25 51 20 71 26 c 0
 96 33 109 51 121 83 c 0
 149 158 190 341 223 447 c 0
 239 498 252 540 252 550 c 0
 252 555 250 559 247 565 c 2
 241 575 l 2
 236 584 231 591 227 597 c 0
 204 626 144 606 144 626 c 0
EndSplineSet
EndChar

StartChar: O
Encoding: 79 79 40
Width: 631
VWidth: 0
Flags: W
HStem: -21 32<195.707 307.213> 623 29<331.7 442.421>
VStem: 39 86<117.482 319.68> 515 88<306.274 508.366>
LayerCount: 3
Fore
SplineSet
384 623 m 0
 247 623 125 342 125 187 c 0
 125 57 192 11 249 11 c 0
 390 11 515 266 515 447 c 0
 515 546 477 623 384 623 c 0
367 652 m 0
 508 652 603 540 603 397 c 0
 603 190 463 -21 272 -21 c 0
 110 -21 39 100 39 239 c 0
 39 424 164 652 367 652 c 0
EndSplineSet
EndChar

StartChar: P
Encoding: 80 80 41
Width: 568
VWidth: 0
Flags: W
HStem: 0 21G<12.5 252.5> 611 25<310.431 422.024>
VStem: 477 82<430.893 573.413>
DStem2: 73.3004 0 161.3 0 0.241922 0.970296<71.7844 371.681 394.236 599.491>
LayerCount: 3
Fore
SplineSet
364 611 m 4
 305 611 312 610 300 561 c 6
 251 362 l 5
 264 360 277 359 291 359 c 4
 422 359 477 432 477 500 c 4
 477 540 464 611 364 611 c 4
388 636 m 6
 517 636 559 573 559 507 c 4
 559 452 535 330 340 330 c 4
 309 330 277 333 245 338 c 5
 180 75 l 2
 178 65 176 56 176 48 c 0
 176 41 178 35 182 31 c 0
 198 16 254 30 254 10 c 0
 254 6 253 2 252 0 c 1
 13 0 l 1
 12 2 10 6 10 10 c 0
 10 30 64 11 79 36 c 0
 83 44 87 56 92 75 c 2
 192 480 l 2
 207 542 215 573 215 583 c 0
 215 632 138 604 138 626 c 0
 138 630 139 634 140 636 c 1
 388 636 l 6
EndSplineSet
Layer: 2
SplineSet
364 611 m 4
 305 611 312 610 300 561 c 6
 251 362 l 5
 264 360 277 359 291 359 c 4
 422 359 477 432 477 500 c 4
 477 540 455 611 364 611 c 4
388 636 m 6
 477 636 558 609 558 499 c 4
 558 454 541 404 497 371 c 4
 464 347 414 330 340 330 c 4
 309 330 277 333 245 338 c 5
 180 75 l 6
 178 65 176 56 176 48 c 4
 176 41 178 35 182 31 c 4
 198 16 254 30 254 10 c 4
 254 6 253 2 252 0 c 5
 13 0 l 5
 12 2 10 6 10 10 c 4
 10 30 64 11 79 36 c 4
 83 44 87 56 92 75 c 6
 192 480 l 6
 207 542 215 573 215 583 c 4
 215 632 138 604 138 626 c 4
 138 630 139 634 140 636 c 5
 388 636 l 6
EndSplineSet
EndChar

StartChar: Q
Encoding: 81 81 42
Width: 631
VWidth: 0
Flags: W
HStem: -224 57<469.043 599.381> -96 56<137.123 220.828> 622 29<338.438 446.267>
VStem: 33 96<128.384 321.81> 518 89<326.784 515.416>
LayerCount: 3
Fore
SplineSet
655 -128 m 0
 661 -128 672 -139 672 -145 c 0
 672 -162 589 -224 518 -224 c 0
 460 -224 415 -202 352 -179 c 0
 286 -154 192 -96 174 -96 c 0
 161 -96 131 -130 104 -130 c 0
 81 -130 58 -118 58 -90 c 0
 58 -70 81 -40 183 -40 c 0
 218 -40 222 -28 222 -19 c 0
 222 -5 202 -8 176 4 c 0
 120 29 33 85 33 258 c 0
 33 401 144 651 382 651 c 0
 427 651 607 630 607 396 c 0
 607 208 485 22 319 -11 c 0
 293 -16 288 -14 274 -24 c 2
 237 -51 l 1
 237 -51 476 -167 570 -167 c 0
 612 -167 642 -128 655 -128 c 0
390 622 m 0
 248 622 129 352 129 176 c 0
 129 81 164 9 254 9 c 0
 412 9 518 322 518 474 c 0
 518 553 472 622 390 622 c 0
EndSplineSet
EndChar

StartChar: R
Encoding: 82 82 43
Width: 667
VWidth: 0
Flags: W
HStem: 0 21G<32.5 295.5 510.5 655.5> 337 21<274.192 339.321> 611 25<331.788 478.422>
VStem: 30 168<5.5 63> 540 82<424.144 573.173>
DStem2: 93.3004 0 181.3 0 0.241922 0.970296<84.7 374.02 399.997 599.93> 443 316 364 279 0.41863 -0.908157<-23.5714 317.488>
LayerCount: 3
Fore
SplineSet
622 498 m 0
 622 339.561675566 434 343.257878085 434 338 c 0
 434 334 439 324 443 316 c 2
 570 55 l 2
 574 47 577 40 581 36 c 0
 601 11 657 31 657 10 c 0
 657 6 656 2 655 0 c 1
 527 -0 l 2
 494 0 492 1 488 10 c 2
 364 279 l 1
 336 337 335 337 320 337 c 2
 281 337 l 2
 264 337 264 334 259 315 c 2
 200 75 l 2
 199 70 198 65 198 61 c 0
 198 5 297 34 297 10 c 0
 297 6 296 2 295 0 c 1
 33 0 l 1
 32 2 30 6 30 10 c 0
 30 30 84 11 99 36 c 0
 103 44 107 56 112 75 c 2
 232 561 l 2
 234 569 236 577 236 583 c 0
 236 632 159 604 159 626 c 0
 159 630 160 634 161 636 c 1
 393 636 l 2
 523 636 622 611 622 498 c 0
320 561 m 2
 277 385 l 2
 275 377 274 371 274 367 c 0
 274 358 280 358 295 358 c 0
 383 358 383 358 405 361 c 0
 467 369 540 400 540 504 c 0
 540 608 453 611 383 611 c 2
 374 611 l 2
 332 611 332 609 320 561 c 2
EndSplineSet
EndChar

StartChar: S
Encoding: 83 83 44
Width: 503
VWidth: 0
Flags: W
HStem: -17 33<162.938 283.503> 625 26<263.231 366.883>
VStem: 42 40<100.562 189.068> 117 79<443.943 561.96> 354 82<92.3356 224.031> 448 24<473.154 524.809>
LayerCount: 3
Back
SplineSet
237 -17 m 0
 163 -17 100 27 88 27 c 0
 76 27 60 17 53 17 c 0
 46 17 39 18 39 33 c 0
 39 47 42 61 42 174 c 0
 42 183 43 191 55 191 c 0
 69 191 65 180 82 139 c 0
 119 48 169 16 225 16 c 0
 273 16 354 55 354 159 c 0
 354 225.501379179 299.575681351 259.319114202 204 339 c 0
 157.579454741 377.700536718 117 425 117 483 c 0
 117 588 211 651 303 651 c 0
 370 651 421 608 428 608 c 0
 435 608 457 619 468 619 c 0
 476 619 478 613 478 606 c 0
 478 603 477 600 477 596 c 0
 476 581 474 553 472 484 c 0
 472 477 471 473 462 473 c 0
 456 473 452 476 448 489 c 0
 436 530 411 625 310 625 c 0
 267 625 196 588 196 508 c 0
 196 436 268 398 325 347 c 0
 378 299 436 258 436 180 c 0
 436 65 335 -17 237 -17 c 0
EndSplineSet
Fore
SplineSet
237 -17 m 0
 163 -17 100 27 88 27 c 0
 76 27 60 17 53 17 c 0
 46 17 39 18 39 33 c 0
 39 47 42 61 42 174 c 0
 42 183 43 191 55 191 c 0
 69 191 65 180 82 139 c 0
 119 48 169 16 225 16 c 0
 273 16 354 55 354 159 c 0
 354 230 304 254 204 339 c 0
 158 378 117 425 117 483 c 0
 117 588 211 651 303 651 c 0
 370 651 421 608 428 608 c 0
 435 608 457 619 468 619 c 0
 476 619 478 613 478 606 c 0
 478 603 477 600 477 596 c 0
 476 581 474 553 472 484 c 0
 472 477 471 473 462 473 c 0
 456 473 452 476 448 489 c 0
 436 530 411 625 310 625 c 0
 267 625 196 588 196 508 c 0
 196 436 268 398 325 347 c 0
 378 299 436 258 436 180 c 0
 436 65 335 -17 237 -17 c 0
EndSplineSet
EndChar

StartChar: T
Encoding: 84 84 45
Width: 663
VWidth: 0
Flags: W
HStem: 0 21G<90.5 370.5> 602 34<125.901 331.999 433.868 610.996> 630 20G<656 660.5>
VStem: 664 21<493.446 508.66>
DStem2: 192 73 283 75 0.278634 0.960397<5.30422 522.783>
LayerCount: 3
Fore
SplineSet
279 53 m 0xd0
 279 2 372 39 372 10 c 0
 372 6 371 2 370 0 c 1
 91 0 l 1
 90 2 88 6 88 10 c 0
 88 40.5289624363 170.374538195 -3.10181596886 192 73 c 2
 323 534 l 2
 327 548 333 565 333 577 c 0
 333 591 326 602 296 602 c 2
 200 602 l 2
 133 602 141 598 116 576 c 0
 77 543 65 520 52 520 c 0
 48 520 44 524 44 529 c 0
 44 536 45 533 75 610 c 1
 88 649 l 2
 89 652 91 654 94 654 c 0
 100 654 118 636 132 636 c 2
 619 636 l 2xd0
 627 636 654 650 658 650 c 0xb0
 663 650 667 647 668 637 c 2
 672 595 l 2
 674 576 685 505 685 494 c 0
 685 482 681 482 675 481 c 0
 671 480 667 481 664 487 c 0
 653 512 628.518507233 561.641990356 611 585 c 0
 598.518507233 601.641990356 581 602 546 602 c 2
 484 602 l 2
 430 602 428 576 424 561 c 2
 283 75 l 2
 280 66 279 59 279 53 c 0xd0
EndSplineSet
EndChar

StartChar: U
Encoding: 85 85 46
Width: 698
VWidth: 0
Flags: W
HStem: -22 62<190.946 376.122> 616 20G<67.5 324.5 497.5 713.5>
VStem: 50 88<87.5014 284.984> 582 134<536.5 632>
LayerCount: 3
Fore
SplineSet
293 40 m 0
 496 40 514 201 571 459 c 0
 580 498 582 524 582 549 c 0
 582 634 496 604 496 626 c 0
 496 630 497 634 498 636 c 1
 713 636 l 1
 714 634 716 630 716 626 c 0
 716 600 668 637 636 576 c 0
 606 520 564 235 514 132 c 0
 495 93 466 55 418 23 c 0
 369 -10 321 -22 269 -22 c 0
 84 -22 50 78 50 145 c 0
 50 193 64 247 75 302 c 0
 96 406 120 487 133 536 c 0
 139 560 143 576 143 583 c 0
 143 632 66 604 66 626 c 0
 66 630 67 634 68 636 c 1
 324 636 l 1
 325 634 327 630 327 626 c 0
 327 606 269 621 246 605 c 0
 234 597 231 577 227 561 c 0
 147 243 138 196 138 156 c 0
 138 63 215 40 293 40 c 0
EndSplineSet
EndChar

StartChar: V
Encoding: 86 86 47
Width: 685
VWidth: 0
Flags: W
HStem: -20 21G<115.5 130> 616 20G<47.5 290.5 451.5 669.5>
VStem: 112 92<141.008 604.11> 528 144<567 629>
DStem2: 268 212 164 24 0.607689 0.794175<-92.7096 446.674>
LayerCount: 3
Fore
SplineSet
164 24 m 0
 147 0 134 -20 126 -20 c 2
 119 -20 l 2
 112 -20 111 -18 111 26 c 0
 111 66 112 142 112 283 c 0
 112 412 113 485 113 528 c 0
 113 574 112 586 107 596 c 0
 94 626 46 606 46 626 c 0
 46 630 47 634 48 636 c 1
 290 636 l 1
 291 634 293 630 293 626 c 0
 293 599 206 639 206 561 c 0
 206 383 204 245 204 179 c 0
 204 152 206 141 208 141 c 0
 212 141 234 169 268 212 c 2
 457 459 l 2
 479 489 528 549 528 585 c 4
 528 628 450 604 450 626 c 4
 450 630 451 634 452 636 c 5
 669 636 l 1
 670 634 672 630 672 626 c 0
 672 608 641 623 613 600 c 0
 607 595 598 588 589 577 c 0
 588.940111101 576.931850563 164.044848382 24.0672725726 164 24 c 0
EndSplineSet
EndChar

StartChar: W
Encoding: 87 87 48
Width: 928
VWidth: 0
Flags: W
HStem: -20 21G<118 129 412.5 427> 616 20G<42.5 285.5 362.5 605.5 696.5 914.5>
VStem: 108 93<309.431 605.94> 433 88<308.887 435 469.48 605.94> 773 144<562.5 629>
LayerCount: 3
Fore
SplineSet
605 636 m 1
 606 634 608 630 608 626 c 0
 608 607 564 622 539 604 c 0
 528 597 523 584 521 561 c 0
 514 456 505 190 505 158 c 0
 505 155 505 153 506 153 c 0
 508 153 511 154 536 191 c 0
 737 494 773 540 773 585 c 0
 773 628 695 604 695 626 c 0
 695 630 696 634 697 636 c 1
 914 636 l 1
 915 634 917 630 917 626 c 0
 917 611 890 618 862 604 c 0
 839 592 835 585 773 492 c 2
 461 24 l 2
 445 0 431 -20 423 -20 c 2
 416 -20 l 2
 409 -20 408 -19 408 -2 c 2
 408 26 l 2
 408 67 413 108 430 435 c 1
 340 302 233 134 188 60 c 0
 141 -18 136 -20 122 -20 c 0
 114 -20 110 -19 110 11 c 2
 110 26 l 2
 110 71 108 26 108 528 c 0
 108 574 107 586 102 596 c 0
 89 626 41 606 41 626 c 0
 41 630 42 634 43 636 c 1
 285 636 l 1
 286 634 288 630 288 626 c 0
 288 599 201 639 201 561 c 0
 201 163 205 156 207 156 c 0
 212 156 269 247 431 492 c 1
 432 526 433 524 433 537 c 0
 433 576 426 587 422 596 c 0
 408 626 361 606 361 626 c 0
 361 630 362 634 363 636 c 1
 605 636 l 1
EndSplineSet
EndChar

StartChar: X
Encoding: 88 88 49
Width: 734
VWidth: 0
Flags: W
HStem: 0 21G<27.5 234.5 357.5 603.5> 616 20G<152.5 407.5 511.5 713.5>
VStem: 330 88<276.328 361.312>
DStem2: 161 107 223 128 0.683649 0.729811<-40.1983 244.65 360.306 537.817>
LayerCount: 3
Fore
SplineSet
563 510 m 2
 432 354 l 2
 423 344 418 341 418 336 c 0
 418 331 422 324 428 306 c 2
 506 95 l 2
 516 68 523 51 532 40 c 0
 556 10 605 30 605 10 c 0
 605 6 604 2 603 0 c 1
 358 0 l 1
 357 2 355 6 355 10 c 0
 355 31 420 11 420 42 c 0
 420 45 347 272 343 272 c 0
 337 272 337 266 223 128 c 0
 190 88 166 59 166 44 c 0
 166 12 236 31 236 10 c 0
 236 6 235 2 234 0 c 1
 28 0 l 1
 27 2 25 6 25 10 c 0
 25 32 67 12 107 48 c 0
 120 60 136 78 161 107 c 2
 318 284 l 2
 324 291 330 300 330 305 c 0
 330 310 328 317 324 327 c 2
 248 539 l 2
 238 568 231 587 222 598 c 0
 199 629 151 606 151 626 c 0
 151 630 152 634 153 636 c 1
 407 636 l 1
 408 634 409 630 409 626 c 0
 409 605 331 627 331 600 c 0
 331 592 403 370 407 370 c 0
 409 370 413 374 418 380 c 0
 550 540 576 574 576 587 c 0
 576 630 510 604 510 626 c 0
 510 630 511 634 512 636 c 1
 713 636 l 1
 714 634 716 630 716 626 c 0
 716 609 683 623 648 601 c 0
 634 592 599 553 563 510 c 2
EndSplineSet
EndChar

StartChar: Y
Encoding: 89 89 50
Width: 680
VWidth: 0
Flags: W
HStem: 0 21G<35.5 305.5> 616 20G<91.5 316.5 445.5 652.5>
VStem: 165 89<390.25 604.96>
DStem2: 118.799 0 209.3 0 0.241922 0.970296<77.1499 307.392>
LayerCount: 3
Fore
SplineSet
278 247 m 2
 228 75 l 2
 225 66 224 59 224 53 c 0
 224 2 307 39 307 10 c 0
 307 6 306 2 305 0 c 1
 36 0 l 1
 35 2 33 6 33 10 c 0
 33 41 115 -3 137 73 c 2
 171 191 l 2
 188 251 198 278 198 298 c 0
 198 304 196 299 165 542 c 0
 160 578 160 594 145 604 c 0
 125 618 90 610 90 626 c 0
 90 630 91 634 92 636 c 1
 316 636 l 1
 317 634 319 630 319 626 c 0
 319 602 254 629 254 585 c 0
 254 571 257 545 263 496 c 2
 280 355 l 2
 282 341 284 333 286 333 c 0
 290 333 305 344 310 348 c 0
 433 459 520 538 520 586 c 0
 520 596 515 602 509 605 c 0
 477 620 444 609 444 626 c 0
 444 630 445 634 446 636 c 1
 652 636 l 1
 653 634 655 630 655 626 c 0
 655 607 631 621 598 599 c 0
 582 588 572 574 550 548 c 0
 465 447 435 424 310 315 c 0
 288 296 295 305 278 247 c 2
EndSplineSet
EndChar

StartChar: Z
Encoding: 90 90 51
Width: 741
VWidth: 0
Flags: W
HStem: 0 31<185.369 497.748> 609 27<252.167 538.993>
DStem2: 82 78 264 146 0.661373 0.750057<37.4954 695.848>
LayerCount: 3
Fore
SplineSet
207 674 m 0
 230 674 233 636 272 636 c 2
 666 636 l 2
 677 636 681 632 681 627 c 0
 681 615 661 595 653 586 c 2
 264 146 l 2
 259 141 180 51 180 41 c 0
 180 32 185 31 383 31 c 0
 505 31 512 45 566 118 c 0
 585 144 594 170 606 170 c 0
 621 170 624 162 624 152 c 0
 624 138 617 117 605 83 c 0
 583 21 578 -7 561 -7 c 0
 553 -7 519 0 394 0 c 2
 66 0 l 2
 31 0 30 0 30 19 c 0
 30 22 56 48 82 78 c 2
 522 577 l 1
 533 591 539 598 539 603 c 0
 539 609 530 609 516 609 c 2
 332 609 l 2
 272 609 240 603 207 551 c 0
 184 514 184 496 169 496 c 0
 162 496 156 502 156 507 c 0
 156 510 157 512 157 513 c 0
 159 522 180 603 184 622 c 0
 190 651 191 674 207 674 c 0
EndSplineSet
EndChar

StartChar: period
Encoding: 46 46 53
Width: 320
VWidth: 0
Flags: W
HStem: -14 106<112.315 197.685>
VStem: 102 106<-3.68506 81.6851>
LayerCount: 3
Fore
SplineSet
102 39 m 0
 102 69 125 92 155 92 c 0
 185 92 208 69 208 39 c 0
 208 9 185 -14 155 -14 c 0
 125 -14 102 9 102 39 c 0
EndSplineSet
Validated: 1
EndChar

StartChar: comma
Encoding: 44 44 54
Width: 306
VWidth: 0
Flags: W
HStem: -179 34<101.039 138.487> -2 91<131.09 191.127>
VStem: 192 55<-83.3369 24>
LayerCount: 3
Fore
SplineSet
247 -1 m 0
 247 -108 144 -179 116 -179 c 0
 104 -179 101 -172 101 -163 c 0
 101 -155 107 -149 116 -145 c 0
 161 -123 192 -60 192 -33 c 0
 192 -11 182 -8 158 -2 c 0
 140 2 123 15 123 43 c 0
 123 72 151 89 180 89 c 0
 221 89 247 49 247 -1 c 0
EndSplineSet
EndChar

StartChar: hyphen
Encoding: 45 45 55
Width: 316
VWidth: 0
Flags: W
HStem: 177 58<23 288.986>
VStem: 23 266<177 235>
LayerCount: 3
Fore
SplineSet
39 235 m 2
 276 235 l 2
 289 235 289 227 289 218 c 2
 289 200 l 2
 289 192 287 177 276 177 c 2
 36 177 l 2
 25 177 23 182 23 196 c 2
 23 217 l 2
 23 230 28 235 39 235 c 2
EndSplineSet
Validated: 1
EndChar

StartChar: colon
Encoding: 58 58 56
Width: 320
VWidth: 0
Flags: W
HStem: -14 104<122.515 207.485> 256 104<183.515 268.485>
VStem: 113 104<-4.48471 80.4847> 174 104<265.515 350.485>
LayerCount: 3
Fore
SplineSet
174 308 m 0xd0
 174 337 197 360 226 360 c 0
 255 360 278 337 278 308 c 0
 278 279 255 256 226 256 c 0
 197 256 174 279 174 308 c 0xd0
113 38 m 0xe0
 113 67 136 90 165 90 c 0
 194 90 217 67 217 38 c 0
 217 9 194 -14 165 -14 c 0
 136 -14 113 9 113 38 c 0xe0
EndSplineSet
Layer: 2
SplineSet
113 38 m 4
 113 67 136 90 165 90 c 4
 194 90 217 67 217 38 c 4
 217 9 194 -14 165 -14 c 4
 136 -14 113 9 113 38 c 4
184 352 m 4
 184 381 207 404 236 404 c 4
 265 404 288 381 288 352 c 4
 288 323 265 300 236 300 c 4
 207 300 184 323 184 352 c 4
EndSplineSet
EndChar

StartChar: semicolon
Encoding: 59 59 57
Width: 328
VWidth: 0
Flags: W
HStem: 6 95<106.195 180.838> 256 104<183.515 268.485>
VStem: 174 104<265.515 350.485> 182 52<-72.9509 38.5>
LayerCount: 3
Fore
SplineSet
174 308 m 0xe0
 174 337 197 360 226 360 c 0
 255 360 278 337 278 308 c 0
 278 279 255 256 226 256 c 0
 197 256 174 279 174 308 c 0xe0
234 7 m 0xd0
 234 -55 203 -91 176 -120 c 0
 146 -153 126 -155 123 -155 c 0
 116 -155 112 -150 110 -143 c 0
 107 -134 112 -128 120 -121 c 0
 157 -92 182 -51 182 -23 c 0
 182 -4 171 6 143 6 c 0
 109 6 93 27 93 48 c 0
 93 73 117 101 158 101 c 0
 196 101 234 70 234 7 c 0xd0
EndSplineSet
Layer: 2
SplineSet
243 7 m 4
 243 -55 212 -91 185 -120 c 4
 155 -153 135 -155 132 -155 c 4
 125 -155 121 -150 119 -143 c 4
 116 -134 121 -128 129 -121 c 4
 166 -92 191 -51 191 -23 c 4
 191 -4 180 6 152 6 c 4
 118 6 102 27 102 48 c 4
 102 73 126 101 167 101 c 4
 205 101 243 70 243 7 c 4
194 352 m 4
 194 381 217 404 246 404 c 4
 275 404 298 381 298 352 c 4
 298 323 275 300 246 300 c 4
 217 300 194 323 194 352 c 4
EndSplineSet
EndChar

StartChar: exclam
Encoding: 33 33 58
Width: 405
VWidth: 0
Flags: W
HStem: -15 96<122.332 201.668> 620 20G<336.5 388>
VStem: 114 96<-6.66797 72.668> 200 50<199.941 281.875>
LayerCount: 3
Fore
SplineSet
210 185 m 0xe0
 203 185 200 187 200 195 c 0
 200 204 204 219 212 247 c 2
 314 619 l 2
 318 635 319 640 354 640 c 2
 378 640 l 2
 398 640 410 638 410 626 c 0
 410 601.608975807 252.651542916 252.884564541 250 247 c 0xd0
 225 192 223 185 210 185 c 0xe0
114 33 m 4xe0
 114 59 136 81 162 81 c 4
 188 81 210 59 210 33 c 4
 210 7 188 -15 162 -15 c 4
 136 -15 114 7 114 33 c 4xe0
EndSplineSet
EndChar

StartChar: question
Encoding: 63 63 59
Width: 411
VWidth: 0
Flags: HW
HStem: -15 96<75.332 154.668> 161 31<190.496 237.746> 606 30<260.751 313.416>
VStem: 67 96<-6.66797 72.668> 114 60<203.033 274.112> 158 100<538.364 605.766> 348 58<456.5 570.613>
AnchorPoint: "l;hi2" 0 670 basechar 0
AnchorPoint: "l;bl" 0 10 basechar 0
AnchorPoint: "l;lo" 0 -200 basechar 0
AnchorPoint: "l;o" 0 200 basechar 0
AnchorPoint: "l;hi" 0 610 basechar 0
AnchorPoint: "l;x" 0 385 basechar 0
AnchorPoint: "r;hi2" 411 670 basechar 0
AnchorPoint: "r;bl" 411 10 basechar 0
AnchorPoint: "r;lo" 411 -200 basechar 0
AnchorPoint: "r;o" 411 200 basechar 0
AnchorPoint: "r;hi" 411 610 basechar 0
AnchorPoint: "r;x" 411 385 basechar 0
LayerCount: 3
Fore
SplineSet
67 33 m 0xf2
 67 59 89 81 115 81 c 0
 141 81 163 59 163 33 c 0
 163 7 141 -15 115 -15 c 0
 89 -15 67 7 67 33 c 0xf2
158 564 m 0xe6
 158 607.200195312 217.400390625 636 263 636 c 0
 330 636 406 586 406 495 c 0
 406 347 174 314 174 235 c 0
 174 218 187 203 220 192 c 0
 225 190 238 189 238 179 c 0
 238 172 233 161 213 161 c 0
 177 161 114 194 114 252 c 0xea
 114 367 348 394 348 517 c 0
 348 574 305 606 277 606 c 0
 264 606 262 596 258 582 c 0
 244 536 221 519 200 519 c 0
 177 519 158 540 158 564 c 0xe6
EndSplineSet
EndChar

StartChar: parenleft
Encoding: 40 40 60
Width: 338
VWidth: 0
Flags: W
VStem: 45 67<64.1188 344.225>
LayerCount: 3
Fore
SplineSet
293 -211 m 0
 293 -213 279 -232 267 -232 c 0
 263 -232 255 -227 241 -212 c 0
 51 -6 45 125 45 209 c 0
 45 420 199 601 262 664 c 0
 268 670 274 673 277 673 c 0
 281 673 298 656 298 648 c 0
 298 641 288 635 265 609 c 0
 167 498 112 359 112 210 c 0
 112 90 157 -61 271 -185 c 0
 285 -200 293 -206 293 -211 c 0
EndSplineSet
Validated: 1
Layer: 2
SplineSet
305 -210 m 4
 305 -212 291 -226 279 -226 c 4
 275 -226 267 -221 253 -206 c 4
 63 0 37 131 37 215 c 4
 37 426 211 607 274 670 c 4
 280 676 286 679 289 679 c 4
 293 679 310 667 310 659 c 4
 310 652 300 646 277 620 c 4
 179 509 119 365 119 216 c 4
 119 96 169 -60 283 -184 c 4
 297 -199 305 -205 305 -210 c 4
EndSplineSet
EndChar

StartChar: parenright
Encoding: 41 41 61
Width: 338
VWidth: 0
Flags: W
VStem: 231 67<64.1188 344.225>
LayerCount: 3
Fore
SplineSet
50 -211 m 0
 50 -206 58 -200 72 -185 c 0
 186 -61 231 90 231 210 c 0
 231 359 176 498 78 609 c 0
 55 635 45 641 45 648 c 0
 45 656 62 673 66 673 c 0
 69 673 75 670 81 664 c 0
 144 601 298 420 298 209 c 0
 298 125 292 -6 102 -212 c 0
 88 -227 80 -232 76 -232 c 0
 64 -232 50 -213 50 -211 c 0
EndSplineSet
Validated: 1
EndChar

StartChar: bracketleft
Encoding: 91 91 62
Width: 295
VWidth: 0
Flags: HW
HStem: -216 38<134 284.994> 625 38<134 284.994>
VStem: 70 64<-184.003 631.003>
AnchorPoint: "l;hi2" 0 670 basechar 0
AnchorPoint: "l;bl" 0 10 basechar 0
AnchorPoint: "l;lo" 0 -200 basechar 0
AnchorPoint: "l;o" 0 200 basechar 0
AnchorPoint: "l;hi" 0 610 basechar 0
AnchorPoint: "l;x" 0 385 basechar 0
AnchorPoint: "r;hi2" 295 670 basechar 0
AnchorPoint: "r;bl" 255 10 basechar 0
AnchorPoint: "r;lo" 295 -200 basechar 0
AnchorPoint: "r;o" 255 200 basechar 0
AnchorPoint: "r;hi" 295 610 basechar 0
AnchorPoint: "r;x" 255 385 basechar 0
LayerCount: 3
Fore
SplineSet
134 -172 m 2
 134 -188 139 -184 154 -184 c 0
 180 -184 231 -180 266 -178 c 0
 274 -178 285 -179 285 -191 c 2
 285 -199 l 2
 285 -207 283 -216 275 -216 c 0
 224 -215 163 -214 117 -214 c 0
 88 -214 70 -211 70 -201 c 2
 70 648 l 2
 70 658 88 661 117 661 c 0
 163 661 224 662 275 663 c 0
 283 663 285 654 285 646 c 2
 285 638 l 2
 285 626 274 625 266 625 c 0
 231 627 180 631 154 631 c 0
 139 631 134 635 134 619 c 2
 134 -172 l 2
EndSplineSet
EndChar

StartChar: bracketright
Encoding: 93 93 63
Width: 295
VWidth: 0
Flags: HW
HStem: -216 38<10.006 161> 625 38<10.006 161>
VStem: 161 64<-183.9 630.9>
AnchorPoint: "l;x" 40 385 basechar 0
AnchorPoint: "l;hi" 0 610 basechar 0
AnchorPoint: "l;o" 40 200 basechar 0
AnchorPoint: "l;lo" 0 -200 basechar 0
AnchorPoint: "l;bl" 40 10 basechar 0
AnchorPoint: "l;hi2" 0 670 basechar 0
AnchorPoint: "r;x" 295 385 basechar 0
AnchorPoint: "r;hi" 295 610 basechar 0
AnchorPoint: "r;o" 295 200 basechar 0
AnchorPoint: "r;lo" 295 -200 basechar 0
AnchorPoint: "r;bl" 295 10 basechar 0
AnchorPoint: "r;hi2" 295 670 basechar 0
LayerCount: 3
Fore
SplineSet
161 -172 m 2
 161 619 l 2
 161 635 156 631 141 631 c 0
 115 631 64 627 29 625 c 0
 21 625 10 626 10 638 c 2
 10 646 l 2
 10 654 12 663 20 663 c 0
 71 662 132 661 178 661 c 0
 207 661 225 658 225 648 c 2
 225 -201 l 2
 225 -211 207 -214 178 -214 c 0
 132 -214 71 -215 20 -216 c 0
 12 -216 10 -207 10 -199 c 2
 10 -191 l 2
 10 -179 21 -178 29 -178 c 0
 64 -180 115 -184 141 -184 c 0
 156 -184 161 -188 161 -172 c 2
EndSplineSet
EndChar

StartChar: quoteleft
Encoding: 8216 8216 64
Width: 246
VWidth: 0
Flags: W
HStem: 386 91<93.8733 153.91> 620 34<146.513 183.961>
VStem: 38 55<451 558.337>
LayerCount: 3
Fore
SplineSet
38 476 m 0
 38 583 141 654 169 654 c 0
 181 654 184 647 184 638 c 0
 184 630 178 624 169 620 c 0
 124 598 93 535 93 508 c 0
 93 486 103 483 127 477 c 0
 145 473 162 460 162 432 c 0
 162 403 134 386 105 386 c 0
 64 386 38 426 38 476 c 0
EndSplineSet
EndChar

StartChar: quoteright
Encoding: 8217 8217 65
Width: 244
VWidth: 0
Flags: W
HStem: 386 34<38.0392 75.4868> 563 91<68.0901 128.127>
VStem: 129 55<481.663 589>
LayerCount: 3
Fore
SplineSet
184 564 m 0
 184 457 81 386 53 386 c 0
 41 386 38 393 38 402 c 0
 38 410 44 416 53 420 c 0
 98 442 129 505 129 532 c 0
 129 554 119 557 95 563 c 0
 77 567 60 580 60 608 c 0
 60 637 88 654 117 654 c 0
 158 654 184 614 184 564 c 0
EndSplineSet
EndChar

StartChar: ampersand
Encoding: 38 38 66
Width: 776
VWidth: 1
Flags: W
HStem: -22 79<193.866 386.481> 250 88<406.936 457.717> 319 44<673.859 753.939> 392 57<149.809 249.639> 424 47<455.133 549.671>
VStem: 23 54<177.753 305.138> 362 44<289 381.337> 382 82<546 658.889> 576 23<289.956 359.362>
LayerCount: 3
Fore
SplineSet
183 392 m 0x9480
 125 392 77 336 77 263 c 0
 77 196 113 152 126 135 c 1
 263 356 l 1
 263 356 242 392 183 392 c 0x9480
754 342 m 0
 754 327 733 319 715 319 c 0
 671 319 636 338 617 352 c 0
 610 357 606 361 603 361 c 0
 599 361 599 353 599 333 c 0
 599 213 509 -22 277 -22 c 0
 145 -22 23 64 23 205 c 0
 23 327 124 449 224 449 c 0
 272 449 310 430 310 430 c 1
 310 430 382 535 382 557 c 0xb580
 382 576 362 592 362 621 c 0xb680
 362 658 395 677 424 677 c 0
 445 677 464 666 464 644 c 0xb580
 464 599 325 406 148 109 c 1
 148 109 198 57 294 57 c 0
 378 57 469 100 514 172 c 0
 561 248 576 319 576 356 c 0
 576 392 530 424 493 424 c 0
 452 424 406 384 406 355 c 0
 406 336 433 346 446 338 c 0
 461 330 468 316 468 301 c 0
 468 270 440 250 413 250 c 0xce80
 387 250 362 268 362 310 c 0
 362 400 458 471 530 471 c 0
 557 471 573 461 593 446 c 0
 664 394 688 368 715 363 c 0xae80
 737 359 754 362 754 342 c 0
EndSplineSet
EndChar

StartChar: braceleft
Encoding: 123 123 67
Width: 295
Flags: HW
HStem: -214 27<217.288 281.994> 634 27<216.826 281.994>
VStem: 43 59<214.085 231.88> 124 64<-167.262 182.191 261.033 615.053>
AnchorPoint: "r;x" 255 385 basechar 0
AnchorPoint: "r;hi" 295 610 basechar 0
AnchorPoint: "r;o" 255 200 basechar 0
AnchorPoint: "r;lo" 295 -200 basechar 0
AnchorPoint: "r;bl" 255 10 basechar 0
AnchorPoint: "r;hi2" 295 670 basechar 0
AnchorPoint: "l;x" 0 385 basechar 0
AnchorPoint: "l;hi" 60 610 basechar 0
AnchorPoint: "l;o" 0 200 basechar 0
AnchorPoint: "l;lo" 60 -200 basechar 0
AnchorPoint: "l;bl" 20 10 basechar 0
AnchorPoint: "l;hi2" 60 670 basechar 0
LayerCount: 3
Fore
SplineSet
124 74 m 2
 124 248 43 192 43 223 c 0
 43 232 47 232 53 234 c 0
 75 240 124 237 124 368 c 2
 124 454 l 2
 124 563 127 604 160 633 c 0
 180 650 220 661 250 661 c 0
 281 661 282 661 282 647 c 0
 282 633 274 635 263 634 c 0
 236 631 188 633 188 537 c 2
 188 397 l 2
 188 289 181 249 118 230 c 0
 107 227 102 226 102 223 c 0
 102 220 107 220 118 216 c 0
 181 195 188 153 188 45 c 2
 188 -90 l 2
 188 -186 236 -184 263 -187 c 0
 274 -188 282 -186 282 -200 c 0
 282 -214 281 -214 250 -214 c 0
 201 -214 161 -189 150 -176 c 0
 126 -146 124 -106 124 -11 c 2
 124 74 l 2
EndSplineSet
EndChar

StartChar: g.ld
Encoding: 65537 -1 96
Width: 403
VWidth: 0
Flags: MW
HStem: -285 28<64.8 216.282> 88 23<120.358 179.163> 380 26<169.95 233.152>
VStem: -51 59<-220.024 -117.8> 29 70<140.367 292.317> 48 42<9 71.7016> 252 68<192.667 333.467> 277 68<-209.519 -120.851>
LayerCount: 3
Fore
SplineSet
200 380 m 0xfa
 147 380 99 268 99 189 c 0
 99 145 114 111 151 111 c 0
 207 111 252 219 252 298 c 0
 252 341 242 380 200 380 c 0xfa
142 -257 m 0
 203 -257 277 -233 277 -165 c 0xf1
 277 -114 218 -96 112 -47 c 1
 98 -55 82 -64 65 -76 c 0
 35 -96 8 -124 8 -167 c 0
 8 -231 72 -257 142 -257 c 0
114 93 m 0
 104 93 101 85 95 75 c 0
 92 69 90 62 90 53 c 0
 90 25 140 12 224 -26 c 0
 262 -43 345 -75 345 -149 c 0
 345 -233 243 -285 129 -285 c 0
 37 -285 -51 -244 -51 -172 c 0
 -51 -96 61 -54 92 -37 c 1
 58 -21 48 -1 48 19 c 0
 48 47 79 88 90 101 c 1xf5
 47 130 29 172 29 216 c 0
 29 308 94 406 194 406 c 0
 239 406 267 391 296 352 c 1
 296 352 322 381 365 381 c 0
 397 381 412 362 412 343 c 0
 412 323 398 304 377 304 c 0
 348 304 349 341 324 341 c 0
 316 341 309 328 309 328 c 1
 313 316 320 293 320 265 c 0xfa
 320 177 258 88 156 88 c 0
 127 88 116 93 114 93 c 0
EndSplineSet
Layer: 2
SplineSet
201 379 m 4xea80
 142 379 116 313 116 249 c 4
 116 184 143 118 200 118 c 4
 256 118 281 183 281 248 c 4
 281 313 256 379 201 379 c 4xea80
124 -58 m 5
 96 -79 76 -114 76 -142 c 4
 76 -185 113 -225 198 -225 c 4
 279 -225 350 -190 350 -133 c 4xe440
 350 -114 340 -92 320 -80 c 4
 294 -64 250 -60 163 -60 c 4
 152 -60 154 -60 124 -58 c 5
18 -193 m 4
 18 -134 75 -74 95 -56 c 5
 58 -52 36 -30 36 2 c 4xf1
 36 62 106 115 106 115 c 5
 76 130 35 174 35 243 c 4
 35 327 110 404 204 404 c 4xea
 249 404 285 390 310 367 c 5
 336 393 369 405 396 405 c 4
 425 405 447 392 447 367 c 4
 447 348 430 330 411 330 c 4
 386 330 373 368 348 368 c 4
 340 368 332 363 325 352 c 5
 349 323 362 285 362 247 c 4
 362 170 309 97 200 97 c 4
 150 97 133 105 128 105 c 4
 116 105 96 79 96 50 c 4xf180
 96 14 113 7 191 7 c 4
 282 6 326 -3 339 -9 c 4
 372 -24 398 -55 398 -102 c 4
 398 -213 256 -281 147 -281 c 4
 75 -281 18 -256 18 -193 c 4
201 379 m 0xea80
 142 379 116 313 116 249 c 0
 116 184 143 118 200 118 c 0
 256 118 281 183 281 248 c 0
 281 313 256 379 201 379 c 0xea80
124 -57 m 1
 96 -78 76 -114 76 -142 c 0
 76 -185 113 -225 198 -225 c 0
 279 -225 350 -190 350 -133 c 0xe440
 350 -89 318 -59 163 -59 c 0
 152 -59 154 -59 124 -57 c 1
36 2 m 0xf1
 36 62 106 115 106 115 c 1
 76 130 35 174 35 243 c 0
 35 327 110 404 204 404 c 0xea
 249 404 285 390 310 367 c 1
 336 393 369 405 396 405 c 0
 425 405 447 392 447 367 c 0
 447 348 430 330 411 330 c 0
 386 330 373 368 348 368 c 0
 340 368 332 363 325 352 c 1
 349 323 362 285 362 247 c 0
 362 170 309 97 200 97 c 0
 150 97 133 105 128 105 c 0
 115 105 96 73 96 44 c 0xf180
 96 15 119 6 162 5 c 0
 266 3 398 18 398 -102 c 0
 398 -213 256 -281 147 -281 c 0
 75 -281 18 -256 18 -193 c 0xf440
 18 -134 74 -76 94 -58 c 1
 57 -54 36 -30 36 2 c 0xf1
EndSplineSet
EndChar

StartChar: j.ld
Encoding: 65538 -1 97
Width: 267
VWidth: 0
Flags: HW
LayerCount: 3
Fore
Refer: 174 775 N 1 0 0 1 435 0 2
Refer: 348 -1 N 1 0 0 1 0 0 2
Layer: 2
SplineSet
162 589 m 4xf0
 162 613 182 633 206 633 c 4
 230 633 250 613 250 589 c 4
 250 565 230 546 206 546 c 4
 182 546 162 565 162 589 c 4xf0
-98 -185 m 4
 -45 -185 -43 -252 -20 -252 c 4
 6 -252 23 -214 44 -142 c 4
 86 6 169 339 169 346 c 4
 169 355 165 361 156 361 c 4
 134 361 81 296 55 263 c 4
 46 252 41 245 35 245 c 4
 31 245 27 247 27 253 c 4
 27 276 123 408 215 408 c 4
 234 408 242 397 242 385 c 4xe8
 242 364 173 103 124 -88 c 4
 103 -167 98 -207 21 -258 c 4
 -6 -276 -35 -282 -60 -282 c 4
 -115 -282 -141 -252 -141 -225 c 4
 -141 -201 -121 -185 -98 -185 c 4
EndSplineSet
EndChar

StartChar: p.ld
Encoding: 65539 -1 98
Width: 446
VWidth: 0
Flags: W
HStem: -270 21G<-74.5 162.5> -8 25<180.915 249.422> 367 37<243.077 366>
VStem: 189 62<440.448 478> 359 69<174.194 343.208>
DStem2: -6.45834 -270 61.582 -270 0.241922 0.970296<67.4564 311.968 438.246 620.026 622.138 670.874 736.711 776.028>
LayerCount: 3
Fore
SplineSet
154 329 m 5
 82.7442306553 300.92954541 24.9403442959 235 15 235 c 4
 12 235 8 238 8 243 c 4
 8 269 111 334 160 357 c 5
 189 467 l 6
 192 477 196 478 204 478 c 6
 230 478 l 6
 250 478 251 474 251 468 c 4
 251 464 228 381 228 381 c 5
 276 397 310 404 341 404 c 4
 391 404 428 378 428 292 c 4
 428 142 321 -8 215 -8 c 4
 165 -8 136 16 136 16 c 5
 92 -148 l 6
 83 -180 77 -207 77 -222 c 4
 77 -264 164 -239 164 -262 c 4
 164 -265 163 -268 162 -270 c 5
 -74 -270 l 5
 -75 -268 -76 -265 -76 -262 c 4
 -76 -246 -33 -258 -7 -239 c 4
 4 -231 7 -214 9 -208 c 6
 154 329 l 5
216 17 m 4
 278.06875 17 359 160.4765625 359 269 c 4
 359 324 337 367 281 367 c 4
 248 367 221 354 221 354 c 5
 197 263 160 136 160 82 c 4
 160 58 170 17 216 17 c 4
EndSplineSet
EndChar

StartChar: q.ld
Encoding: 65540 -1 99
Width: 428
VWidth: 0
Flags: W
HStem: -270 21G<107.5 344.5> -13 42<65.5 163.325> 364 40<228.838 300.845>
VStem: 13 71<36.9459 149.405> 322 98<242.5 400>
DStem2: 191 -208 274 -148 0.267727 0.963495<5.40355 349.235 545.886 641.197>
LayerCount: 3
Fore
SplineSet
92 -13 m 4
 39 -13 13 26 13 72 c 4
 13 133 68 216 123 285 c 4
 176 351 235 404 285 404 c 4
 316 404 327 369 337 318 c 5
 358 393 l 6
 361 403 366 404 374 404 c 6
 399 404 l 6
 413 404 420 404 420 396 c 4
 420 393 418 383 417 380 c 6
 274 -148 l 6
 265 -180 259 -207 259 -222 c 4
 259 -264 346 -239 346 -262 c 4
 346 -265 345 -268 344 -270 c 5
 108 -270 l 5
 107 -268 106 -265 106 -262 c 4
 106 -246 149 -258 175 -239 c 4
 186 -231 189 -214 191 -208 c 6
 277 110 l 6
 280 121 283 127 283 129 c 5
 282 130 l 5
 278 130 241 69 205 38 c 4
 163 2 134 -13 92 -13 c 4
259 364 m 4
 182 364 84 153 84 87 c 4
 84 61 94 29 133 29 c 4
 197 29 322 197 322 288 c 4
 322 322 299 364 259 364 c 4
EndSplineSet
EndChar

StartChar: y.ld
Encoding: 65541 -1 100
Width: 434
VWidth: 0
Flags: W
HStem: -282 55<-38 48.4825> 348 58<94.6545 147.5> 379 20G<347.5 390>
VStem: 181 52<33.0007 248.469> 321 88<304.882 380.206>
LayerCount: 3
Fore
SplineSet
-17 -282 m 0xb8
 -59 -282 -90 -257 -90 -219 c 0
 -90 -192 -71 -172 -44 -172 c 0
 -1 -172 5 -227 30 -227 c 0
 65 -227 181 -108 181 35 c 0
 181 121 163 348 111 348 c 0
 66 348 54 230 38 230 c 0
 29 230 25 238 25 250 c 0
 25 296 82 406 141 406 c 0xd8
 154 406 195 402 210 334 c 0
 232 238 234 122 234 71 c 0
 234 51 233 40 233 36 c 0
 233 34 233 33 234 33 c 0
 237 33 248 57 261 83 c 0
 291 142 314 235 321 259 c 4
 352 367 328 399 367 399 c 6
 377 399 l 6
 403 399 409 398 409 384 c 4
 409 333 271 -18 125 -189 c 0
 104 -214 47 -282 -17 -282 c 0xb8
EndSplineSet
EndChar

StartChar: quotesinglbase
Encoding: 8218 8218 101
Width: 240
VWidth: 0
Flags: W
HStem: -179 34<31.0392 68.4868> -2 91<61.0901 121.127>
VStem: 122 55<-83.3369 24>
LayerCount: 3
Fore
SplineSet
177 -1 m 0
 177 -108 74 -179 46 -179 c 0
 34 -179 31 -172 31 -163 c 0
 31 -155 37 -149 46 -145 c 0
 91 -123 122 -60 122 -33 c 0
 122 -11 112 -8 88 -2 c 0
 70 2 53 15 53 43 c 0
 53 72 81 89 110 89 c 0
 151 89 177 49 177 -1 c 0
EndSplineSet
EndChar

StartChar: quotereversed
Encoding: 8219 8219 102
Width: 240
VWidth: 0
Flags: W
HStem: 386 34<146.513 183.961> 563 91<93.8733 153.91>
VStem: 38 55<481.663 589>
LayerCount: 3
Fore
SplineSet
38 564 m 0
 38 614 64 654 105 654 c 0
 134 654 162 637 162 608 c 0
 162 580 145 567 127 563 c 0
 103 557 93 554 93 532 c 0
 93 505 124 442 169 420 c 0
 178 416 184 410 184 402 c 0
 184 393 181 386 169 386 c 0
 141 386 38 457 38 564 c 0
EndSplineSet
EndChar

StartChar: quotedblleft
Encoding: 8220 8220 103
Width: 420
VWidth: 0
Flags: W
HStem: 386 91<93.8733 153.91 288.873 348.91> 620 34<146.513 183.961 341.513 378.961>
VStem: 38 55<451 558.337> 233 55<451 558.337>
LayerCount: 3
Fore
SplineSet
38 476 m 0
 38 583 141 654 169 654 c 0
 181 654 184 647 184 638 c 0
 184 630 178 624 169 620 c 0
 124 598 93 535 93 508 c 0
 93 486 103 483 127 477 c 0
 145 473 162 460 162 432 c 0
 162 403 134 386 105 386 c 0
 64 386 38 426 38 476 c 0
233 476 m 0
 233 583 336 654 364 654 c 0
 376 654 379 647 379 638 c 0
 379 630 373 624 364 620 c 0
 319 598 288 535 288 508 c 0
 288 486 298 483 322 477 c 0
 340 473 357 460 357 432 c 0
 357 403 329 386 300 386 c 0
 259 386 233 426 233 476 c 0
EndSplineSet
EndChar

StartChar: quotedblright
Encoding: 8221 8221 104
Width: 420
VWidth: 0
Flags: W
HStem: 386 34<38.0392 75.4868 233.039 270.487> 563 91<68.0901 128.127 263.09 323.127>
VStem: 129 55<481.663 589> 324 55<481.663 589>
LayerCount: 3
Fore
SplineSet
379 564 m 0
 379 457 276 386 248 386 c 0
 236 386 233 393 233 402 c 0
 233 410 239 416 248 420 c 0
 293 442 324 505 324 532 c 0
 324 554 314 557 290 563 c 0
 272 567 255 580 255 608 c 0
 255 637 283 654 312 654 c 0
 353 654 379 614 379 564 c 0
184 564 m 0
 184 457 81 386 53 386 c 0
 41 386 38 393 38 402 c 0
 38 410 44 416 53 420 c 0
 98 442 129 505 129 532 c 0
 129 554 119 557 95 563 c 0
 77 567 60 580 60 608 c 0
 60 637 88 654 117 654 c 0
 158 654 184 614 184 564 c 0
EndSplineSet
EndChar

StartChar: quotedblbase
Encoding: 8222 8222 105
Width: 420
VWidth: 0
Flags: W
HStem: -179 34<31.0392 68.4868 226.039 263.487> -2 91<61.0901 121.127 256.09 316.127>
VStem: 122 55<-83.3369 24> 317 55<-83.3369 24>
LayerCount: 3
Fore
SplineSet
372 -1 m 0
 372 -108 269 -179 241 -179 c 0
 229 -179 226 -172 226 -163 c 0
 226 -155 232 -149 241 -145 c 0
 286 -123 317 -60 317 -33 c 0
 317 -11 307 -8 283 -2 c 0
 265 2 248 15 248 43 c 0
 248 72 276 89 305 89 c 0
 346 89 372 49 372 -1 c 0
177 -1 m 0
 177 -108 74 -179 46 -179 c 0
 34 -179 31 -172 31 -163 c 0
 31 -155 37 -149 46 -145 c 0
 91 -123 122 -60 122 -33 c 0
 122 -11 112 -8 88 -2 c 0
 70 2 53 15 53 43 c 0
 53 72 81 89 110 89 c 0
 151 89 177 49 177 -1 c 0
EndSplineSet
EndChar

StartChar: uni201F
Encoding: 8223 8223 106
Width: 420
VWidth: 0
Flags: W
HStem: 386 34<146.513 183.961 341.513 378.961> 563 91<93.8733 153.91 288.873 348.91>
VStem: 38 55<481.663 589> 233 55<481.663 589>
LayerCount: 3
Fore
SplineSet
38 564 m 4
 38 614 64 654 105 654 c 4
 134 654 162 637 162 608 c 4
 162 580 145 567 127 563 c 4
 103 557 93 554 93 532 c 4
 93 505 124 442 169 420 c 4
 178 416 184 410 184 402 c 4
 184 393 181 386 169 386 c 4
 141 386 38 457 38 564 c 4
233 564 m 4
 233 614 259 654 300 654 c 4
 329 654 357 637 357 608 c 4
 357 580 340 567 322 563 c 4
 298 557 288 554 288 532 c 4
 288 505 319 442 364 420 c 4
 373 416 379 410 379 402 c 4
 379 393 376 386 364 386 c 4
 336 386 233 457 233 564 c 4
EndSplineSet
EndChar

StartChar: emdash
Encoding: 8212 8212 107
Width: 700
VWidth: 0
Flags: W
HStem: 172 53<5 694.986>
LayerCount: 3
Fore
SplineSet
21 225 m 2
 682 225 l 2
 695 225 695 217 695 208 c 2
 695 195 l 2
 695 187 693 172 682 172 c 2
 18 172 l 2
 7 172 5 177 5 191 c 2
 5 207 l 2
 5 220 10 225 21 225 c 2
EndSplineSet
Validated: 1
EndChar

StartChar: endash
Encoding: 8211 8211 108
Width: 450
VWidth: 0
Flags: W
HStem: 172 53<5 444.986>
LayerCount: 3
Fore
SplineSet
21 225 m 2
 432 225 l 2
 445 225 445 217 445 208 c 2
 445 195 l 2
 445 187 443 172 432 172 c 2
 18 172 l 2
 7 172 5 177 5 191 c 2
 5 207 l 2
 5 220 10 225 21 225 c 2
EndSplineSet
Validated: 1
EndChar

StartChar: afii00208
Encoding: 8213 8213 109
Width: 700
VWidth: 0
Flags: W
HStem: 172 53<5 694.986>
LayerCount: 3
Fore
SplineSet
21 225 m 2
 682 225 l 2
 695 225 695 217 695 208 c 2
 695 195 l 2
 695 187 693 172 682 172 c 2
 18 172 l 2
 7 172 5 177 5 191 c 2
 5 207 l 2
 5 220 10 225 21 225 c 2
EndSplineSet
Validated: 1
EndChar

StartChar: bullet
Encoding: 8226 8226 110
Width: 472
VWidth: 1050
Flags: W
HStem: 184 268<162.778 307.222>
VStem: 101 268<246.483 390.222>
LayerCount: 3
Fore
SplineSet
101 318 m 0
 101 392 161 452 235 452 c 0
 309 452 369 393 369 319 c 0
 369 245 309 184 235 184 c 0
 161 184 101 244 101 318 c 0
EndSplineSet
Validated: 1
EndChar

StartChar: daggerdbl
Encoding: 8225 8225 111
Width: 562
VWidth: 0
Flags: W
HStem: -220 21G<268.5 314> 40 89<97.2002 228.435 356.069 487.343> 324 89<82.2002 225.873 350.405 482.343> 624 20G<267.5 317>
VStem: 247 91<-219.629 19.9136 394.529 643.856> 256 74<101.977 346.438> 273 39<-126.511 66 384 534.324>
LayerCount: 3
Fore
SplineSet
338 -199 m 0xf8
 338 -219 324 -220 304 -220 c 2
 286 -220 l 2
 251 -220 247 -219 247 -201 c 0xf8
 247 -190 273 67 273 67 c 1
 273 67 123 40 115 40 c 0
 99 40 97 54 97 67 c 2
 97 102 l 2
 97 115 100 129 114 129 c 0
 115 129 273 99 273 99 c 1xf2
 260 159 256 196 256 228 c 0
 256 261 260 294 270 349 c 1
 270 349 110 324 100 324 c 0
 84 324 82 338 82 351 c 2
 82 386 l 2
 82 399 85 413 99 413 c 0
 100 413 270 384 270 384 c 1
 270 384 244 627 244 630 c 0
 244 643 255 644 280 644 c 2
 304 644 l 2
 330 644 340 643 340 630 c 0
 340 629 315 384 315 384 c 1
 315 384 452 412 465 412 c 0
 482 412 483 398 483 375 c 2
 483 359 l 2
 483 342 481 324 465 324 c 0
 441 324 315 349 315 349 c 1
 326 295 330 259 330 228 c 0xf4
 330 195 325 163 312 99 c 1
 312 99 460 128 470 128 c 0
 487 128 488 115 488 92 c 2
 488 75 l 2
 488 58 486 39 470 39 c 0
 452 39 312 66 312 66 c 1xf2
 338 -196 338 -193 338 -199 c 0xf8
EndSplineSet
Validated: 1
EndChar

StartChar: dagger
Encoding: 8224 8224 112
Width: 554
VWidth: 0
Flags: W
HStem: -220 21G<248.5 295.5> 324 89<62.2002 205.873 335.87 482.343> 624 20G<247.5 297>
VStem: 227 91<-219.618 45.6052 394.529 643.856> 250 45<145.646 349 384 586.72>
LayerCount: 3
Fore
SplineSet
62 351 m 2xe8
 62 386 l 2
 62 399 65 413 79 413 c 0
 80 413 250 384 250 384 c 1
 250 384 224 627 224 630 c 0
 224 643 235 644 260 644 c 2
 284 644 l 2
 310 644 320 643 320 630 c 0
 320 629 295 384 295 384 c 1
 295 384 452 412 465 412 c 0
 482 412 483 398 483 375 c 2
 483 359 l 2
 483 342 481 324 465 324 c 0
 441 324 295 349 295 349 c 1xe8
 295 349 318 -197 318 -198 c 0
 318 -218 307 -220 284 -220 c 2
 266 -220 l 2
 231 -220 227 -219 227 -201 c 0xf0
 227 -176 250 349 250 349 c 1
 250 349 90 324 80 324 c 0
 64 324 62 338 62 351 c 2xe8
EndSplineSet
Validated: 1
EndChar

StartChar: bar
Encoding: 124 124 113
Width: 186
VWidth: 0
Flags: HW
HStem: -217 21G<89.5 96.5> 644 20G<89 96>
VStem: 70 46<-216.988 663.974>
AnchorPoint: "l;hi2" 0 670 basechar 0
AnchorPoint: "l;bl" 0 10 basechar 0
AnchorPoint: "l;lo" 0 -200 basechar 0
AnchorPoint: "l;o" 0 200 basechar 0
AnchorPoint: "l;hi" 0 610 basechar 0
AnchorPoint: "l;x" 0 385 basechar 0
AnchorPoint: "r;hi2" 186 670 basechar 0
AnchorPoint: "r;bl" 186 10 basechar 0
AnchorPoint: "r;lo" 186 -200 basechar 0
AnchorPoint: "r;o" 186 200 basechar 0
AnchorPoint: "r;hi" 186 610 basechar 0
AnchorPoint: "r;x" 186 385 basechar 0
LayerCount: 3
Fore
SplineSet
116 -214 m 1
 108 -216 100 -217 93 -217 c 0
 86 -217 78 -216 70 -214 c 1
 70 661 l 1
 79 663 86 664 92 664 c 0
 100 664 107 663 116 661 c 1
 116 -214 l 1
EndSplineSet
EndChar

StartChar: braceright
Encoding: 125 125 114
Width: 295
Flags: HW
HStem: -214 27<13.0058 77.7125> 634 27<13.0058 78.174>
VStem: 107 64<-167.262 182.191 261.033 615.053> 193 59<214.085 231.88>
AnchorPoint: "r;hi2" 235 670 basechar 0
AnchorPoint: "r;bl" 275 10 basechar 0
AnchorPoint: "r;lo" 235 -200 basechar 0
AnchorPoint: "r;o" 295 200 basechar 0
AnchorPoint: "r;hi" 235 610 basechar 0
AnchorPoint: "r;x" 295 385 basechar 0
AnchorPoint: "l;hi2" 0 670 basechar 0
AnchorPoint: "l;bl" 40 10 basechar 0
AnchorPoint: "l;lo" 0 -200 basechar 0
AnchorPoint: "l;o" 40 200 basechar 0
AnchorPoint: "l;hi" 0 610 basechar 0
AnchorPoint: "l;x" 40 385 basechar 0
LayerCount: 3
Fore
SplineSet
171 74 m 2
 171 -11 l 2
 171 -106 169 -146 145 -176 c 0
 134 -189 94 -214 45 -214 c 0
 14 -214 13 -214 13 -200 c 0
 13 -186 21 -188 32 -187 c 0
 59 -184 107 -186 107 -90 c 2
 107 45 l 2
 107 153 114 195 177 216 c 0
 188 220 193 220 193 223 c 0
 193 226 188 227 177 230 c 0
 114 249 107 289 107 397 c 2
 107 537 l 2
 107 633 59 631 32 634 c 0
 21 635 13 633 13 647 c 0
 13 661 14 661 45 661 c 0
 75 661 115 650 135 633 c 0
 168 604 171 563 171 454 c 2
 171 368 l 2
 171 237 220 240 242 234 c 0
 248 232 252 232 252 223 c 0
 252 192 171 248 171 74 c 2
EndSplineSet
EndChar

StartChar: OE
Encoding: 338 338 115
Width: 1006
VWidth: 0
Flags: W
HStem: -21 32<195.707 308.799> 0 27<456.021 682.498> 330 21<601 639.483> 609 27<564.537 777.078> 623 29<331.7 443.695>
VStem: 39 86<117.482 319.68> 515 88<304.221 330 351 508.235> 672 27<219.04 302.845>
LayerCount: 3
Fore
SplineSet
384 623 m 0xaf
 247 623 125 342 125 187 c 0
 125 57 192 11 249 11 c 0
 390 11 515 266 515 447 c 0
 515 546 477 623 384 623 c 0xaf
367 652 m 0
 412 652 446 636 508 636 c 2
 750 636 l 2
 798 636 835 640 845 640 c 0
 861 640 860 638 864 588 c 0
 868 543 874 518 874 505 c 0
 874 496 871 494 863 494 c 0
 852 494 843 521 816 562 c 0
 789 603 750 609 669 609 c 2
 619 609 l 2
 585 609 551 597 551 573 c 0
 551 566 554 559 560 550 c 0
 588 508 603 455 603 397 c 0
 603 382 603 366 601 351 c 1
 621 351 l 2
 728 351 696 439 727 439 c 0
 735 439 737 434 737 429 c 0
 737 411 731 410 699 241 c 0
 696 225 698 219 684 219 c 0
 673 219 672 225 672 235 c 2
 672 245 l 2
 672 282 668 329 598 330 c 1
 585 238 546 149 488 84 c 0
 487 83 456 58 456 41 c 0
 456 33 463 27 483 27 c 2
 629 27 l 2
 701 27 753 94 804 157 c 0
 808 162 812 162 815 162 c 0
 821 162 826 156 826 153 c 0
 826 147 810 101 800 61 c 0
 789 16 795 0 769 0 c 2
 451 0 l 2x77
 419 0 386 -1 330 -14 c 0
 311 -18 292 -21 272 -21 c 0
 110 -21 39 100 39 239 c 0
 39 424 164 652 367 652 c 0
EndSplineSet
EndChar

StartChar: AE
Encoding: 198 198 116
Width: 1024
VWidth: 0
Flags: W
HStem: 0 27<582.646 807.498> 257 36<354.004 542.926> 330 21<656.311 764.483> 598 38<580.603 621.998> 609 27<545.898 585 716.313 902.078>
VStem: 797 27<219.04 302.845>
DStem2: 479.3 0 567.3 0 0.241922 0.970296<71.7842 264.776 296.819 366.604 389.326 599.93>
LayerCount: 3
Fore
SplineSet
875 636 m 2xec
 923 636 960 640 970 640 c 0
 986 640 985 638 989 588 c 0
 993 543 999 518 999 505 c 0
 999 496 996 494 988 494 c 0
 977 494 968 521 941 562 c 0
 914 603 875 609 794 609 c 2
 744 609 l 2
 714 609 714 593 706 561 c 2
 660 375 l 2
 658 366 656 361 656 357 c 0
 656 352 661 351 678 351 c 2
 746 351 l 2
 853 351 821 439 852 439 c 0
 860 439 862 434 862 429 c 0
 862 411 856 410 824 241 c 0
 821 225 823 219 809 219 c 0
 798 219 797 225 797 235 c 2
 797 245 l 2
 797 282 793 330 721 330 c 2
 682 330 l 2
 647 330 648 326 644 308 c 2
 586 75 l 2
 583 65 582 56 582 48 c 0
 582 31 589 27 608 27 c 2
 754 27 l 2
 826 27 878 94 929 157 c 0
 933 162 937 162 940 162 c 0
 946 162 951 156 951 153 c 0
 951 147 935 101 925 61 c 0
 914 16 920 0 894 0 c 2
 419 0 l 1
 418 2 416 6 416 10 c 0
 416 30 470 11 485 36 c 0
 489 44 493 56 498 75 c 2
 543 257 l 1
 344 257 l 2
 332 257 319 255 310 241 c 2
 204 90 l 2
 187 65 177 47 177 38 c 0
 177 13 281 34 281 10 c 0
 281 6 280 2 279 0 c 1
 40 0 l 1
 39 2 37 6 37 10 c 0
 37 30 67 10 107 44 c 0
 140 72 176 124 220 181 c 0
 307 294 500 542 585 614 c 1
 565 616 545 615 545 626 c 0
 545 630 546 634 547 636 c 1
 875 636 l 2xec
354 298 m 0
 354 293 360 293 367 293 c 2
 542 293 l 2
 547 293 551 296 554 301 c 1
 618 561 l 2
 620 569 622 577 622 583 c 0
 622 594 619 598 614 598 c 0xf4
 598 598 560 558 535 527 c 2
 400 364 l 2
 367 324 354 303 354 298 c 0
EndSplineSet
EndChar

StartChar: oe
Encoding: 339 339 117
Width: 558
VWidth: 0
Flags: W
HStem: -15 29<89.3113 155.73> -11 43<291.5 375.197> 381 27<227.212 286.141 432.936 501.5>
VStem: 23 56<25.9695 153.894> 296 44<324 377.387> 470 66<293.21 374.876>
LayerCount: 3
Fore
SplineSet
296 333 m 0xbc
 296 375 271 381 258 381 c 0
 187 381 79 140 79 64 c 0
 79 29 95 14 121 14 c 0
 203 14 296 258 296 333 c 0xbc
451 375 m 0
 424 375 371 310 333 209 c 1
 445 255 470 322 470 350 c 0
 470 366 463 375 451 375 c 0
242 59 m 1
 224 34 188 -15 121 -15 c 0xbc
 56 -15 23 42 23 108 c 0
 23 210 118 408 253 408 c 0
 314 408 336 374 340 324 c 1
 371 358 411 402 478 402 c 0
 525 402 536 368 536 347 c 0
 536 273 423 223 325 187 c 1
 323 182 307 129 307 87 c 0
 307 51 319 32 339 32 c 0
 363 32 398 60 431 107 c 0
 437 116 443 125 451 125 c 0
 455 125 459 122 459 116 c 0
 459 105 401 -11 309 -11 c 0x7c
 274 -11 246 9 242 59 c 1
EndSplineSet
EndChar

StartChar: ae
Encoding: 230 230 118
Width: 513
VWidth: 0
Flags: W
HStem: -13 63<40.5 114.552> -11 43<259 350.197> 375 27<400.04 476.5>
VStem: 10 67<27.5 121.853> 209 73<35.5271 110> 445 66<293.21 374.876>
LayerCount: 3
Fore
SplineSet
10 46 m 0xbc
 10 123 117 317 335 350 c 1
 370 382 410 402 453 402 c 0
 500 402 511 368 511 347 c 0
 511 273 398 223 300 187 c 1
 298 182 282 129 282 87 c 0
 282 51 294 32 314 32 c 0
 338 32 373 60 406 107 c 0
 412 116 418 125 426 125 c 0
 430 125 434 122 434 116 c 0
 434 105 376 -11 284 -11 c 0x7c
 234 -11 209 28 209 79 c 0
 209 89 210 99 211 110 c 1
 178 55 110 -13 53 -13 c 0
 28 -13 10 9 10 46 c 0xbc
221 157 m 1
 237 213 268 275 308 322 c 1
 181 302 77 140 77 79 c 0
 77 61 85 50 103 50 c 0xbc
 127 50 191 111 221 157 c 1
445 350 m 0
 445 366 438 375 426 375 c 0
 399 375 346 310 308 209 c 1
 420 255 445 322 445 350 c 0
EndSplineSet
EndChar

StartChar: zero
Encoding: 48 48 119
Width: 464
VWidth: 16
Flags: HW
HStem: -11 31<153.697 243.22> 382 30<230.34 318.193>
VStem: 55 75<56.1084 243.234> 345 77<162.543 341.847>
LayerCount: 3
Fore
SplineSet
55 152 m 0
 55 316 177 412 280 412 c 0
 356 412 422 360 422 246 c 0
 422 87 298 -11 194 -11 c 0
 119 -11 55 39 55 152 c 0
130 123 m 0
 130 60 144 20 198 20 c 0
 292 20 345 200 345 277 c 0
 345 344 327 382 274 382 c 0
 181 382 130 210 130 123 c 0
EndSplineSet
Layer: 2
SplineSet
53 150 m 4
 53 316 176 412 280 412 c 4
 357 412 424 359 424 244 c 4
 424 83 299 -15 194 -15 c 4
 118 -15 53 36 53 150 c 4
129 120 m 4
 129 56 143 16 198 16 c 4
 293 16 346 198 346 276 c 4
 346 344 328 382 274 382 c 4
 180 382 129 208 129 120 c 4
280 410 m 0
 378 410 422 335 422 249 c 0
 422 129 337 -13 194 -13 c 0
 99 -13 56 61 56 147 c 0
 56 267 139 410 280 410 c 0
130 121 m 0
 130 58 144 18 198 18 c 0
 292 18 345 198 345 275 c 0
 345 342 327 380 274 380 c 0
 181 380 130 208 130 121 c 0
EndSplineSet
EndChar

StartChar: slash
Encoding: 47 47 120
Width: 308
VWidth: 488
Flags: W
HStem: -224 21G<11.5 27.302> 644 20G<281.721 296.5>
DStem2: -28 -207 20 -224 0.342955 0.939352<-1.56927 929.742>
LayerCount: 3
Fore
SplineSet
-28 -207 m 1
 289 664 l 1
 304 664 333 654 338 647 c 1
 20 -224 l 1
 3 -222 -20 -213 -28 -207 c 1
EndSplineSet
Validated: 1
EndChar

StartChar: one
Encoding: 49 49 121
Width: 271
VWidth: 0
Flags: W
HStem: 0 21G<39.5 175.5> 379 20G<95.5 239>
VStem: 28 90<3.5 71.2943> 153 93<336.615 394>
DStem2: 46 62 139 114 0.3481 0.937457<7.83075 316.343>
LayerCount: 3
Fore
SplineSet
153 360 m 0
 153 365 151 369 147 372 c 0
 129 386 94 375 94 391 c 0
 94 394 95 397 96 399 c 1
 237 399 l 2
 241 399 246 397 246 391 c 0
 246 388 244 382 241 376 c 0
 231 355 205 292 139 114 c 0
 125 78 118 56 118 43 c 0
 118 32 123 27 134 23 c 0
 160 14 177 19 177 8 c 0
 177 5 176 2 175 0 c 1
 45 0 l 2
 34 0 28 0 28 7 c 0
 28 15 35 31 46 62 c 2
 147 334 l 2
 151 346 153 354 153 360 c 0
EndSplineSet
EndChar

StartChar: two
Encoding: 50 50 122
Width: 405
VWidth: 0
Flags: W
HStem: 0 64<130.004 309.844> 351 53<201.797 292.808>
VStem: 306 81<252.895 338.16>
LayerCount: 3
Back
SplineSet
158 319 m 4
 149 319 145 322 145 329 c 4
 145 338 154 348 166 359 c 4
 205 394 249 409 285 409 c 4
 349 409 391 373 391 318 c 4
 391 246 290 179 253 152 c 4
 190 108 130 70 130 67 c 4
 130 64 136 64 146 64 c 6
 270 64 l 6
 315 64 324 99 345 99 c 4
 351 99 355 95 355 90 c 4
 355 86 351 77 347 72 c 6
 306 16 l 6
 295 1 291 0 280 0 c 6
 27 0 l 6
 19 0 16 2 16 6 c 4
 16 20 29 28 52 44 c 4
 129 97 310 212 310 295 c 4
 310 326.479917291 288.709302502 356.024316628 253.744150645 356.024316628 c 4
 207.575914723 356.024316628 168.389969411 319 158 319 c 4
EndSplineSet
Fore
SplineSet
154 314 m 0
 145 314 141 317 141 324 c 0
 141 333 150 343 162 354 c 0
 201 389 245 404 281 404 c 4
 345 404 387 368 387 313 c 0
 387 241 290 179 253 152 c 0
 190 108 130 70 130 67 c 0
 130 64 136 64 146 64 c 2
 270 64 l 2
 315 64 324 99 345 99 c 0
 351 99 355 95 355 90 c 0
 355 86 351 77 347 72 c 2
 306 16 l 2
 295 1 291 0 280 0 c 2
 27 0 l 2
 19 0 16 2 16 6 c 0
 16 20 29 28 52 44 c 0
 129 97 306 207 306 290 c 0
 306 321 285 351 250 351 c 0
 204 351 164 314 154 314 c 0
EndSplineSet
EndChar

StartChar: three
Encoding: 51 51 123
Width: 356
VWidth: -6
Flags: W
HStem: -224 44<-7.49421 102.358> 343 61<168.005 267.181>
VStem: 224 79<-71.1489 68.5791> 282 67<249.336 327.991>
LayerCount: 3
Back
SplineSet
349 321 m 4
 349 251 280 187 218 146 c 5
 236.11683359 137.94807396 253.423248268 124.223215537 267.635342435 106.000002695 c 4
 288.724352865 78.9589824794 303 42.013066256 303 -1 c 4
 303 -40.1537639837 283.406406949 -75.9512180465 254.000001638 -106.862407651 c 4
 185.770003664 -178.583870435 64.7124728093 -224 13 -224 c 4
 -3 -224 -11 -220 -11 -209 c 4
 -11 -194 18 -196 66 -180 c 4
 95 -170 161 -136 197 -87 c 4
 214 -63 224 -33 224 -6 c 4
 224 66 192 90 147 90 c 4
 107 90 78 74 66 74 c 4
 60 74 55 77 55 85 c 4
 55 113 282 142 282 280 c 4
 282 307 263 343 220 343 c 4
 156 343 137 293 114 293 c 4
 105 293 101 298 101 306 c 4
 101 318 115 338 134 356 c 4
 160 381 197 404 248 404 c 4
 309 404 349 370 349 321 c 4
EndSplineSet
Fore
SplineSet
218 146 m 1xd0
 269 123 303 61 303 5 c 0
 303 -29 291 -68 254 -107 c 0
 186 -179 65 -224 13 -224 c 0
 -3 -224 -11 -220 -11 -209 c 0
 -11 -194 18 -196 66 -180 c 0
 95 -170 161 -136 197 -87 c 0
 214 -63 224 -33 224 -6 c 0xe0
 224 66 192 90 147 90 c 0
 107 90 78 74 66 74 c 0
 60 74 55 77 55 85 c 0
 55 113 282 142 282 280 c 0
 282 307 263 343 220 343 c 0
 156 343 137 293 114 293 c 0
 105 293 101 298 101 306 c 0
 101 318 115 338 134 356 c 0
 160 381 197 404 248 404 c 0
 309 404 349 370 349 321 c 0
 349 251 280 176 218 146 c 1xd0
EndSplineSet
EndChar

StartChar: four
Encoding: 52 52 124
Width: 497
VWidth: 18
Flags: W
HStem: -211 21G<206.5 236.5> 18 64<99 250 341 459.166> 392 20G<415 428>
DStem2: 84 109 99 82 0.696205 0.717843<-7.33496 335.851> 183 -191 258 -199 0.303433 0.952853<-4.16421 219.476 308.071 534.244>
LayerCount: 3
Fore
SplineSet
99 82 m 1
 266 82 l 1
 347 324 l 1
 287 277 162 149 99 82 c 1
341 82 m 1
 443 82 l 2
 460 82 466 81 466 72 c 0
 466 67 465 61 462 50 c 0
 455 20 451 18 429 18 c 2
 321 18 l 1
 275 -125 273 -144 258 -199 c 0
 255 -209 251 -211 222 -211 c 0
 191 -211 182 -210 182 -199 c 0
 182 -197 182 -194 183 -191 c 2
 250 18 l 1
 67 18 l 2
 46 18 30 18 30 35 c 0
 30 46 30 49 84 109 c 0
 144 175 231 259 303 321 c 0
 361 371 407 412 423 412 c 0
 433 412 435 409 435 403 c 0
 435 380 341 82 341 82 c 1
EndSplineSet
EndChar

StartChar: five
Encoding: 53 53 125
Width: 318
VWidth: 0
Flags: HMW
HStem: -224 44<-57.074 25.4312> 326 76<104.591 254.705>
VStem: 36 50<207.5 280.786> 134 73<-34.3675 113.927>
LayerCount: 3
Fore
SplineSet
142 402 m 0
 147 402 258 390 263 390 c 0
 282 390 284 419 300 419 c 0
 309 419 314 413 314 407 c 0
 314 397 292 363 281 346 c 0
 276 338 261 312 247 312 c 0
 243 312 112 326 108 326 c 0
 104 326 86 289 86 272 c 0
 86 268 109 249 137 219 c 0
 138 218 207 161 207 76 c 0
 207 55 207 26 197 -6 c 0
 158 -130 25 -224 -40 -224 c 0
 -45 -224 -58 -220 -58 -207 c 0
 -58 -192 -43 -199 -0 -180 c 0
 116 -131 134 -10 134 42 c 0
 134 130 36 197 36 218 c 0
 36 231 68 310 94 360 c 0
 107 386 114 402 142 402 c 0
EndSplineSet
EndChar

StartChar: six
Encoding: 54 54 126
Width: 421
VWidth: 2
Flags: HW
HStem: -11 23<126.616 189.187> 567 27<385.276 421.685>
VStem: 35 62<44.0254 219.186> 257 71<100.671 288.253>
LayerCount: 3
Fore
SplineSet
35 139 m 0
 35 260 100 378 181 464 c 0
 264 551 377 594 408 594 c 0
 417 594 422 591 422 583 c 0
 422 579 420 573 408 567 c 0
 307 516 260 475 181 361 c 1
 193 359 208 357 225 351 c 0
 273 334 328 296 328 199 c 0
 328 96 256 -11 158 -11 c 0
 69 -11 35 58 35 139 c 0
173 343 m 1
 173 343 154 310 135 264 c 0
 108 200 97 146 97 106 c 0
 97 44 123 12 159 12 c 0
 216 12 257 129 257 217 c 0
 257 340 173 343 173 343 c 1
EndSplineSet
EndChar

StartChar: seven
Encoding: 55 55 127
Width: 398
VWidth: 8
Flags: W
HStem: -211 21G<43.5 53> 329 70<104.645 324>
VStem: 36 98<-200.282 -146.157>
LayerCount: 3
Back
SplineSet
84 420 m 6
 86 425 90 426 95 426 c 4
 110 426 108 399 135 399 c 6
 379 399 l 6
 388 399 393 396 393 390 c 4
 393 383 310 285 210 56 c 4
 152 -77 142 -134 134 -175 c 4
 130 -194 136 -196 99 -203 c 4
 69 -209 58 -211 48 -211 c 4
 39 -211 36 -208 36 -203 c 4
 36 -186 58 -140 88 -84 c 4
 169 68 82 -75 326 329 c 5
 98 329 l 6
 91 329 92 326 67 298 c 4
 54 284 55 284 51 281 c 4
 48 278 44 276 41 276 c 4
 38 276 33 277 33 284 c 4
 33 286 33 290 35 294 c 6
 84 420 l 6
EndSplineSet
Fore
SplineSet
84 420 m 2
 86 425 90 426 95 426 c 0
 110 426 108 399 135 399 c 2
 379 399 l 2
 388 399 393 396 393 390 c 0
 393 383 310 285 210 56 c 0
 152 -77 142 -134 134 -175 c 0
 130 -194 136 -196 99 -203 c 0
 69 -209 58 -211 48 -211 c 0
 39 -211 36 -208 36 -203 c 0
 36 -172 138 17 162 58 c 2
 324 329 l 1
 98 329 l 2
 91 329 92 326 67 298 c 0
 54 284 55 284 51 281 c 0
 48 278 44 276 41 276 c 0
 38 276 33 277 33 284 c 0
 33 286 33 290 35 294 c 2
 84 420 l 2
EndSplineSet
EndChar

StartChar: eight
Encoding: 56 56 128
Width: 400
VWidth: 1
Flags: W
HStem: -13 24<101.941 178.406> 594 29<214.875 305.319>
VStem: 22 48<32.9616 182.9> 103 65<390.888 539.799> 229 61<87.5123 235.277> 335 44<431.523 571.536>
DStem2: 227 336 132 345 0.574282 -0.818657<-132.685 -4.82641 27.199 133.972>
LayerCount: 3
Back
SplineSet
22 102 m 4
 22 228.030273438 164 295 164 295 c 5
 164 295 148.099609375 315.328125 132.275390625 345 c 4
 111.823242188 383.348632812 102.865234375 420.454101562 102.865234375 454.39453125 c 4
 102.865234375 551.704101562 176.499023438 623 264 623 c 4
 347 623 379 564.859375 379 504 c 4
 379 402.157226562 242 316 242 316 c 5
 242 316 290 258.616210938 290 183 c 4
 290 117 247.283203125 -13 134 -13 c 4
 58.58984375 -13 22 39 22 102 c 4
142 11 m 4
 198 11 229 74 229 142 c 4
 229 227.168945312 178 279 178 279 c 5
 178 279 70 214 70 102 c 4
 70 53.9423828125 89.658203125 11 142 11 c 4
261 594 m 4
 202.205078125 594 167.690429688 542.740234375 167.690429688 464.100585938 c 4
 167.690429688 404.208007812 223.098632812 344.4765625 228 335 c 5
 228 335 335 399 335 500 c 4
 335 551.185546875 315 594 261 594 c 4
EndSplineSet
Fore
SplineSet
22 102 m 0
 22 228 163 297 163 297 c 1
 163 297 148 315 132 345 c 0
 112 383 103 420 103 454 c 0
 103 551 176 623 264 623 c 0
 347 623 379 565 379 504 c 0
 379 402 243 314 243 314 c 1
 243 314 290 259 290 183 c 0
 290 117 247 -13 134 -13 c 0
 59 -13 22 39 22 102 c 0
142 11 m 0
 198 11 229 74 229 142 c 0
 229 227 179 278 179 278 c 1
 179 278 70 214 70 102 c 0
 70 54 90 11 142 11 c 0
261 594 m 0
 202 594 168 543 168 464 c 0
 168 412.8 203.309777706 368.801846253 227 336 c 1
 227 336 335 399 335 500 c 0
 335 551 315 594 261 594 c 0
EndSplineSet
EndChar

StartChar: nine
Encoding: 57 57 129
Width: 384
VWidth: -3
Flags: W
HStem: -214 21G<-55.5 -34.5> 27 17<165.847 179> 380 24<187.233 241.532>
VStem: 34 77<104.734 279.949> 269 56<173.776 347.964>
LayerCount: 3
Back
SplineSet
206 404 m 4
 300 404 325 325 325 235 c 4
 325 124 241 -54 91 -150 c 4
 39 -184 -22 -214 -47 -214 c 4
 -64 -214 -64 -207 -64 -203 c 4
 -64 -196 -46 -185 -23 -172 c 4
 2 -157 52 -132 128 -41 c 4
 146 -20 164 3 179 27 c 5
 147 29 34 63 34 183 c 4
 34 286 105 404 206 404 c 4
269 300 m 4
 269 335 247 380 214 380 c 4
 167 380 111 262 111 165 c 4
 111 52 188 44 188 44 c 5
 188 44 269 164 269 300 c 4
EndSplineSet
Fore
SplineSet
206 404 m 0
 300 404 325 325 325 235 c 0
 325 124 241 -54 91 -150 c 0
 39 -184 -22 -214 -47 -214 c 0
 -64 -214 -64 -207 -64 -203 c 0
 -64 -196 -46 -185 -23 -172 c 0
 2 -157 52 -132 128 -41 c 0
 146 -20 164 3 179 27 c 1
 147 29 34 63 34 183 c 0
 34 286 105 404 206 404 c 0
269 300 m 0
 269 335 247 380 214 380 c 0
 167 380 111 262 111 165 c 0
 111 52 188 44 188 44 c 1
 188 44 269 164 269 300 c 0
EndSplineSet
EndChar

StartChar: .notdef
Encoding: 65542 -1 130
Width: 425
VWidth: 0
Flags: W
HStem: -56 40<110.54 183.46> 74 45<133.935 156.897> 305 221<124.003 263.43> 606 66<134.732 265.049> 639 33<106.47 138.679>
VStem: 29 103<119.021 284.633> 29 95<119.021 305> 29 73<-8.69897 66.699 526 638.992> 192 204<-8.69897 66.699> 342 54<268.678 507.291>
LayerCount: 3
Fore
SplineSet
29 672 m 25xe940
 396 672 l 25
 396 -56 l 25
 29 -56 l 25
 29 672 l 25xe940
124 526 m 2xea40
 178 526 l 2
 307 526 313 432 313 398 c 2
 313 390 l 2
 313 332 301 305 238 305 c 2
 144 305 l 2
 128 305 124 297 124 286 c 0xea40
 124 257 131 218 132 149 c 0
 132 148 134 119 146 119 c 0
 154 119 159 134 165 206 c 0
 167 228 175 223 275 237 c 0
 320 244 342 289 342 380 c 0
 342 445 328 492 312 526 c 0
 278 601 220 606 165 606 c 0xf440
 151 606 152 607 142 619 c 0
 134 628 127 639 119 639 c 0
 112 639 104 628 104 598 c 0
 104 547 111 526 124 526 c 2xea40
102 29 m 0xe180
 102 5 123 -16 147 -16 c 0
 171 -16 192 5 192 29 c 0
 192 53 171 74 147 74 c 0
 123 74 102 53 102 29 c 0xe180
EndSplineSet
Validated: 1
EndChar

StartChar: minute
Encoding: 8242 8242 131
Width: 208
VWidth: 0
Flags: W
HStem: 396 259<36 130>
VStem: 24 63<429.884 480.496>
LayerCount: 3
Fore
SplineSet
24 408 m 4
 24 422 40 466 48 488 c 4
 77 573 79 655 130 655 c 4
 138 655 160 651 160 625 c 4
 160 586 115 526 87 473 c 4
 57 416 52 396 36 396 c 4
 26 396 24 403 24 408 c 4
EndSplineSet
Validated: 1
EndChar

StartChar: second
Encoding: 8243 8243 132
Width: 308
VWidth: 0
Flags: W
HStem: 399 256<124 236>
VStem: 24 54<423.057 518.375>
LayerCount: 3
Fore
SplineSet
24 409 m 0
 24 422 56 584 67 625 c 0
 72 645 89 655 109 655 c 0
 130 655 143 636 143 623 c 0
 143 599 104 532 78 474 c 16
 57 428 50 399 35 399 c 0
 29 399 24 403 24 409 c 0
118 412 m 0
 118 424 132 462 146 492 c 16
 181 568 187 654 236 654 c 0
 257 654 268 644 268 627 c 0
 268 601 246 572 184 475 c 0
 151 425 144 400 129 400 c 0
 124 400 118 401 118 412 c 0
EndSplineSet
Validated: 1
EndChar

StartChar: quotesingle
Encoding: 39 39 133
Width: 224
VWidth: 0
Flags: W
HStem: 400 254<101.927 106>
VStem: 69 66<429.029 542.299> 79 100<544.446 630.647>
LayerCount: 3
Fore
SplineSet
86 400 m 0xc0
 74 400 69 407 69 425 c 0xc0
 69 441 73 466 79 501 c 0
 94 584 83 654 138 654 c 0
 154 654 179 646 179 616 c 0xa0
 179 585 153 538 135 488 c 0
 117 436 106 400 86 400 c 0xc0
EndSplineSet
EndChar

StartChar: quotedbl
Encoding: 34 34 134
Width: 356
VWidth: 0
Flags: W
HStem: 401 254<83.9271 88 233.927 238>
VStem: 51 66<430.029 543.299> 61 100<545.446 631.647> 201 66<430.029 543.299> 211 100<545.446 631.647>
LayerCount: 3
Fore
SplineSet
218 401 m 0x90
 206 401 201 408 201 426 c 0x90
 201 442 205 467 211 502 c 0
 226 585 215 655 270 655 c 0
 286 655 311 647 311 617 c 0x88
 311 586 285 539 267 489 c 0
 249 437 238 401 218 401 c 0x90
68 401 m 0
 56 401 51 408 51 426 c 0xc0
 51 442 55 467 61 502 c 0
 76 585 65 655 120 655 c 0
 136 655 161 647 161 617 c 0xa0
 161 586 135 539 117 489 c 0xc0
 99 437 88 401 68 401 c 0
EndSplineSet
EndChar

StartChar: uni2053
Encoding: 8275 8275 135
Width: 996
VWidth: 0
Flags: W
HStem: 107 53<661.48 798.721> 279 60<199.812 332.709>
VStem: 60 32<109.738 160.929> 904 32<293.083 334.625>
LayerCount: 3
Fore
SplineSet
60 113 m 1
 60 113 101 339 291 339 c 0
 470 339 607 160 752 160 c 0
 861 160 904 338 904 338 c 1
 914 338 928 336 936 332 c 1
 920 253 857 107 708 107 c 0
 523 107 386 279 236 279 c 0
 118 279 92 106 92 106 c 1
 80 106 71 107 60 113 c 1
EndSplineSet
Validated: 1
EndChar

StartChar: fraction
Encoding: 8260 8260 137
Width: 512
VWidth: 488
Flags: W
DStem2: -19.5 -47 14.5 -71 0.574282 0.818657<-3.40338 902.449>
LayerCount: 3
Fore
SplineSet
-19.5 -47 m 1
 497.5 690 l 1
 508.833333333 685.226648664 521 679 531.5 666 c 1
 14.5 -71 l 1
 0.298482792474 -68.1589108294 -10.6918299882 -59.5419307049 -19.5 -47 c 1
EndSplineSet
Validated: 1
EndChar

StartChar: guilsinglleft
Encoding: 8249 8249 138
Width: 280
Flags: W
HStem: 52 298<230 244>
VStem: 38 208
LayerCount: 3
Fore
SplineSet
136 201 m 1
 187 155 246 77 246 61 c 0
 246 56 244 52 238 52 c 0
 230 52 230 54 182 94 c 0
 112 153 38 195 38 201 c 0
 38 207 112 249 182 308 c 0
 230 348 230 350 238 350 c 0
 244 350 246 346 246 341 c 0
 246 325 187 247 136 201 c 1
EndSplineSet
Validated: 1
EndChar

StartChar: guilsinglright
Encoding: 8250 8250 139
Width: 280
Flags: W
HStem: 52 298<40 54>
VStem: 38 208
LayerCount: 3
Fore
SplineSet
148 201 m 1
 97 247 38 325 38 341 c 0
 38 346 40 350 46 350 c 0
 54 350 54 348 102 308 c 0
 172 249 246 207 246 201 c 0
 246 195 172 153 102 94 c 0
 54 54 54 52 46 52 c 0
 40 52 38 56 38 61 c 0
 38 77 97 155 148 201 c 1
EndSplineSet
Validated: 1
EndChar

StartChar: guillemotright
Encoding: 187 187 140
Width: 460
Flags: W
HStem: 52 298<40 54 210 224>
LayerCount: 3
Fore
SplineSet
148 201 m 1
 97 247 38 325 38 341 c 0
 38 346 40 350 46 350 c 0
 54 350 54 348 102 308 c 0
 172 249 246 207 246 201 c 0
 246 195 172 153 102 94 c 0
 54 54 54 52 46 52 c 0
 40 52 38 56 38 61 c 0
 38 77 97 155 148 201 c 1
318 201 m 1
 267 247 208 325 208 341 c 0
 208 346 210 350 216 350 c 0
 224 350 224 348 272 308 c 0
 342 249 416 207 416 201 c 0
 416 195 342 153 272 94 c 0
 224 54 224 52 216 52 c 0
 210 52 208 56 208 61 c 0
 208 77 267 155 318 201 c 1
EndSplineSet
Validated: 1
EndChar

StartChar: ordmasculine
Encoding: 186 186 141
Width: 244
VWidth: 0
Flags: W
HStem: 412 19<62.4309 101.792> 650 17<144.742 183.08>
VStem: 13 44<431.347 536.452> 190 44<540.534 647.464>
LayerCount: 3
Fore
SplineSet
190 621 m 0
 190 646 172 650 164 650 c 0
 121 650 57 506 57 461 c 0
 57 440 66 431 82 431 c 0
 122 431 190 564 190 621 c 0
165 667 m 0
 210 667 234 629 234 590 c 0
 234 503 147 412 78 412 c 0
 35 412 13 446 13 486 c 0
 13 547 76 667 165 667 c 0
EndSplineSet
Layer: 2
SplineSet
179.799804688 622 m 4
 179.799804688 647.19921875 161.799804688 650.799804688 154 650.799804688 c 4
 111.400390625 650.799804688 46.6005859375 506.19921875 46.6005859375 460.599609375 c 4
 46.6005859375 439.599609375 56.2001953125 430.599609375 71.7998046875 430.599609375 c 4
 111.400390625 430.599609375 179.799804688 564.399414062 179.799804688 622 c 4
151 667 m 4
 191.799804688 667 213.400390625 629.19921875 213.400390625 590.19921875 c 4
 213.400390625 503.799804688 134.799804688 413.19921875 71.7998046875 413.19921875 c 4
 32.7998046875 413.19921875 13 447.399414062 13 487 c 4
 13 548.19921875 70 667 151 667 c 4
EndSplineSet
EndChar

StartChar: guillemotleft
Encoding: 171 171 142
Width: 468
Flags: W
HStem: 52 298<230 244 400 414>
LayerCount: 3
Fore
SplineSet
306 201 m 1
 357 155 416 77 416 61 c 0
 416 56 414 52 408 52 c 0
 400 52 400 54 352 94 c 0
 282 153 208 195 208 201 c 0
 208 207 282 249 352 308 c 0
 400 348 400 350 408 350 c 0
 414 350 416 346 416 341 c 0
 416 325 357 247 306 201 c 1
136 201 m 1
 187 155 246 77 246 61 c 0
 246 56 244 52 238 52 c 0
 230 52 230 54 182 94 c 0
 112 153 38 195 38 201 c 0
 38 207 112 249 182 308 c 0
 230 348 230 350 238 350 c 0
 244 350 246 346 246 341 c 0
 246 325 187 247 136 201 c 1
EndSplineSet
Validated: 1
EndChar

StartChar: logicalnot
Encoding: 172 172 143
Width: 579
VWidth: 0
Flags: W
HStem: 228 46<59.0264 463>
VStem: 463 47<37 228>
LayerCount: 3
Fore
SplineSet
62 228 m 1
 60 236 59 244 59 252 c 0
 59 260 60 268 62 274 c 1
 510 274 l 1
 510 37 l 1
 504 36 495 35 487 35 c 0
 479 35 470 36 463 37 c 1
 463 228 l 1
 62 228 l 1
EndSplineSet
Validated: 1
EndChar

StartChar: backslash
Encoding: 92 92 144
Width: 308
VWidth: 488
Flags: W
HStem: -224 21G<278.698 294.5> 644 20G<9.5 24.279>
DStem2: 17 664 -32 647 0.342955 -0.939352<-2.84978 928.461>
LayerCount: 3
Fore
SplineSet
334 -207 m 1
 326 -213 303 -222 286 -224 c 1
 -32 647 l 1
 -27 654 2 664 17 664 c 1
 334 -207 l 1
EndSplineSet
Validated: 1
EndChar

StartChar: underscore
Encoding: 95 95 145
Width: 450
VWidth: 0
Flags: W
HStem: -78 53<25 424.986>
LayerCount: 3
Fore
SplineSet
41 -25 m 2
 412 -25 l 2
 425 -25 425 -33 425 -42 c 2
 425 -55 l 2
 425 -63 423 -78 412 -78 c 2
 38 -78 l 2
 27 -78 25 -73 25 -59 c 2
 25 -43 l 2
 25 -30 30 -25 41 -25 c 2
EndSplineSet
Validated: 1
EndChar

StartChar: asciicircum
Encoding: 94 94 146
Width: 402
VWidth: 0
Flags: W
HStem: 311 320
VStem: 41 324
DStem2: 209 631 201 533 0.438202 -0.898876<84.5843 344.906>
LayerCount: 3
Fore
SplineSet
41 311 m 1
 197 631 l 1
 199 632 201 632 203 632 c 0
 205 632 207 632 209 631 c 1
 365 311 l 1
 355 309 345 308 334 308 c 0
 324 308 314 309 303 311 c 1
 201 533 l 1
 103 311 l 1
 91 309 84 308 70 308 c 0
 59 308 50 309 41 311 c 1
EndSplineSet
Validated: 1
EndChar

StartChar: numbersign
Encoding: 35 35 147
Width: 429
VWidth: 0
Flags: W
HStem: 235 36<20.0229 112 165 237 289 407.927> 344 36<21.0117 142 195 268 320 409.931>
VStem: 178 42<20.013 49.0339>
DStem2: 53 24 96 24 0.268273 0.963343<1.69696 219.093 267.992 332.146 381.045 583.441> 183.394 20 225.394 20 0.241922 0.970296<12.7369 221.582 269.093 334.844 382.354 382.354 576.648 582.452>
LayerCount: 3
Fore
SplineSet
53 24 m 1
 112 235 l 1
 24 235 l 1
 22 241 20 247 20 254 c 0
 20 259 21 265 24 271 c 1
 122 271 l 1
 142 344 l 1
 24 344 l 1
 22 350 21 355 21 361 c 0
 21 367 22 374 24 380 c 1
 152 380 l 1
 207 577 l 1
 214 580 221 581 228 581 c 0
 236 581 243 580 250 577 c 1
 195 380 l 1
 278 380 l 1
 333 577 l 1
 340 580 347 581 353 581 c 0
 360 581 367 579 375 577 c 1
 320 380 l 1
 406 380 l 1
 409 375 410 369 410 364 c 0
 410 357 408 351 406 344 c 1
 310 344 l 1
 289 271 l 1
 405 271 l 1
 407 266 408 261 408 256 c 0
 408 249 407 242 405 235 c 1
 279 235 l 1
 220 24 l 1
 213 22 207 20 200 20 c 0
 194 20 188 21 178 24 c 1
 237 235 l 1
 155 235 l 1
 96 24 l 1
 88 22 80 20 71 20 c 0
 65 20 59 21 53 24 c 1
165 271 m 1
 247 271 l 1
 268 344 l 1
 185 344 l 1
 165 271 l 1
EndSplineSet
Validated: 1
EndChar

StartChar: asterisk
Encoding: 42 42 148
Width: 455
VWidth: 0
Flags: W
HStem: 429 58<195.674 212 244.078 260.488> 644 20G<218 239>
VStem: 183 84<267.169 386.359 545.429 656.058> 195 67<444.557 467.078> 212 28<367.208 426.981 487.139 533.725>
LayerCount: 3
Fore
SplineSet
44 376 m 0xc8
 44 429 195 439 195 456 c 0xd0
 195 482 45 469 45 535 c 0
 45 566 76 575 84 575 c 0
 118 575 192 487 212 487 c 0xc8
 216 487 216 491 216 496 c 0
 216 522 185 599 185 615 c 0
 185 646 207 664 229 664 c 0
 249 664 273 652 273 609 c 0
 273 587 244 512 244 490 c 0
 244 485 245 483 249 483 c 0
 270 483 330 571 372 571 c 0
 395 571 411 557 411 539 c 0
 411 470 262 476 262 456 c 0xd0
 262 433 402 435 402 372 c 0
 402 354 392 336 370 336 c 0
 325 336 258 427 245 427 c 0
 244 427 240 426 240 416 c 0xc8
 240 390 267 327 267 303 c 0
 267 278 247 261 226 261 c 0
 205 261 183 279 183 300 c 0xe0
 183 323 212 408 212 425 c 0
 212 427 212 429 210 429 c 0
 196 429 126 339 80 339 c 0
 55 339 44 362 44 376 c 0xc8
EndSplineSet
Validated: 1
EndChar

StartChar: less
Encoding: 60 60 149
Width: 761
VWidth: 10
Flags: W
DStem2: 120 214 203 206 0.902342 0.431021<71.4462 564.291> 203 206 120 197 0.903023 -0.429593<0 491.893>
LayerCount: 3
Fore
SplineSet
120 214 m 1
 635 460 l 1
 639 451 640 444 640 435 c 0
 640 426 639 418 635 409 c 1
 203 206 l 1
 635 4 l 1
 637 -5 639 -13 639 -23 c 0
 639 -31 638 -39 635 -48 c 1
 120 197 l 1
 119 199 118 202 118 206 c 0
 118 209 119 212 120 214 c 1
EndSplineSet
Validated: 1
EndChar

StartChar: equal
Encoding: 61 61 150
Width: 784
VWidth: 0
Flags: W
HStem: 116 45<147.026 636.993> 249 45<147.047 635.996>
LayerCount: 3
Fore
SplineSet
150 116 m 1
 148 123 147 130 147 137 c 0
 147 145 148 153 150 161 c 1
 634 161 l 1
 636 154 637 147 637 139 c 0
 637 131 636 124 634 116 c 1
 150 116 l 1
150 249 m 1
 148 256 147 262 147 269 c 0
 147 278 148 285 150 294 c 1
 634 294 l 1
 636 287 636 281 636 274 c 0
 636 265 636 258 634 249 c 1
 150 249 l 1
EndSplineSet
Validated: 1
EndChar

StartChar: greater
Encoding: 62 62 151
Width: 761
VWidth: 0
Flags: W
DStem2: 123 460 123 409 0.902342 -0.431021<6.44602 499.291> 123 4 123 -48 0.903023 0.429593<-14.8056 476.884>
LayerCount: 3
Fore
SplineSet
638 214 m 1
 639 212 640 209 640 206 c 0
 640 202 639 199 638 197 c 1
 123 -48 l 1
 120 -39 119 -31 119 -23 c 0
 119 -13 121 -5 123 4 c 1
 555 206 l 1
 123 409 l 1
 119 418 118 426 118 435 c 0
 118 444 119 451 123 460 c 1
 638 214 l 1
EndSplineSet
Validated: 1
EndChar

StartChar: plus
Encoding: 43 43 152
Width: 621
VWidth: 0
Flags: W
HStem: 197 46<57.0066 282 321 543>
VStem: 278 47<-22 200 240 464.982>
LayerCount: 3
Fore
SplineSet
60 197 m 1
 58 205 57 212 57 220 c 0
 57 228 58 235 60 243 c 1
 259 243 282 240 282 240 c 1
 282 240 278 251 278 462 c 1
 286 464 294 465 301 465 c 0
 310 465 317 464 325 462 c 1
 325 251 321 240 321 240 c 1
 321 240 345 243 543 243 c 1
 545 236 545 230 545 223 c 0
 545 214 544 206 543 197 c 1
 345 197 321 200 321 200 c 1
 321 200 325 176 325 -22 c 1
 320 -23 312 -24 304 -24 c 0
 294 -24 284 -23 278 -22 c 1
 278 176 282 200 282 200 c 1
 282 200 259 197 60 197 c 1
EndSplineSet
Validated: 1
EndChar

StartChar: minus
Encoding: 8722 8722 153
Width: 624
VWidth: 0
Flags: W
HStem: 198 46<57.0519 532.973>
LayerCount: 3
Fore
SplineSet
62 198 m 1
 59 206 57 213 57 220 c 0
 57 228 59 236 62 244 c 1
 529 244 l 1
 532 237 533 229 533 222 c 0
 533 214 532 206 529 198 c 1
 62 198 l 1
EndSplineSet
Validated: 1
EndChar

StartChar: plusminus
Encoding: 177 177 154
Width: 587
VWidth: 0
Flags: W
HStem: 22 47<59.0519 519.973> 271 47<61.0264 270 310 519.973>
VStem: 266 48<100 274 314 491.911>
LayerCount: 3
Fore
SplineSet
64 22 m 1
 61 30 59 38 59 46 c 0
 59 54 61 61 64 69 c 1
 516 69 l 1
 519 61 520 54 520 46 c 0
 520 38 519 30 516 22 c 1
 64 22 l 1
64 271 m 1
 62 279 61 286 61 294 c 0
 61 302 62 310 64 318 c 1
 238 318 270 314 270 314 c 1
 270 314 266 347 266 489 c 1
 273 491 280 492 288 492 c 0
 299 492 310 490 314 489 c 1
 314 354 310 314 310 314 c 1
 310 314 350 318 516 318 c 1
 519 310 520 302 520 294 c 0
 520 286 519 279 516 271 c 1
 341 271 310 274 310 274 c 1
 310 274 314 243 314 100 c 1
 308 99 301 98 293 98 c 0
 285 98 276 99 266 100 c 1
 266 242 270 274 270 274 c 1
 270 274 238 271 64 271 c 1
EndSplineSet
Validated: 1
EndChar

StartChar: divide
Encoding: 247 247 155
Width: 582
VWidth: 0
Flags: W
HStem: 47 97<256.336 335.002> 198 46<57.0519 532.973> 298 97<256.336 335.002>
VStem: 247 97<55.9979 134.664 307.336 386.002>
CounterMasks: 1 e0
LayerCount: 3
Fore
SplineSet
62 198 m 1
 59 206 57 213 57 220 c 0
 57 228 59 236 62 244 c 1
 529 244 l 1
 532 237 533 229 533 222 c 0
 533 214 532 206 529 198 c 1
 62 198 l 1
247 95 m 0
 247 121 270 144 296 144 c 0
 322 144 344 121 344 95 c 0
 344 69 322 47 296 47 c 0
 270 47 247 69 247 95 c 0
247 347 m 0
 247 373 270 395 296 395 c 0
 322 395 344 373 344 347 c 0
 344 321 322 298 296 298 c 0
 270 298 247 321 247 347 c 0
EndSplineSet
Validated: 1
EndChar

StartChar: multiply
Encoding: 215 215 156
Width: 464
VWidth: 0
Flags: W
DStem2: 82 393 48 360 0.708141 -0.706071<-1.99096 220.553 260.917 484.435> 48 52 82 19 0.708141 0.706071<-2.18343 221.329 261.693 484.487>
LayerCount: 3
Fore
SplineSet
48 52 m 1
 207 206 l 1
 48 360 l 1
 59 377 71 387 82 393 c 1
 235 234 l 1
 390 393 l 1
 404 386 417 370 423 360 c 1
 264 206 l 1
 423 52 l 1
 415 35 403 26 390 19 c 1
 235 178 l 1
 82 19 l 1
 64 26 54 39 48 52 c 1
EndSplineSet
Validated: 1
EndChar

StartChar: cent
Encoding: 162 162 157
Width: 427
VWidth: 0
Flags: W
HStem: -13 44<114.141 159.935> 307 95<254.214 295.75> 376 28<191.451 215.906> 643 20G<332.5 338>
VStem: 13 76<55.0417 188.646>
DStem2: 7 -179 33 -179 0.353682 0.935366<0.939979 180.712 249.064 564.68 630.807 903.182>
LayerCount: 3
Fore
SplineSet
124 31 m 0xd8
 184 31 211 128 233 128 c 0
 237 128 241 123 241 120 c 0
 241 104 186 -12 96 -13 c 1
 33 -179 l 1
 30 -182 25 -183 20 -183 c 0
 14 -183 9 -182 7 -179 c 1
 71 -10 l 1
 30 1 13 39 13 88 c 0
 13 164 96 399 227 404 c 1xb8
 325 662 l 1
 328 663 331 663 334 663 c 0
 342 663 348 661 352 658 c 1
 254 402 l 1
 286 396 307 376 307 350 c 0
 307 328 291 307 265 307 c 0
 245 307 237 323 231 340 c 1
 114 33 l 1
 117 32 120 31 124 31 c 0xd8
95 54 m 1
 216 373 l 1
 214 375 211 376 208 376 c 0
 200 376 189 368 174 344 c 0
 105 231 89 141 89 90 c 0
 89 79 91 65 95 54 c 1
EndSplineSet
EndChar

StartChar: sterling
Encoding: 163 163 158
Width: 435
VWidth: 0
Flags: W
HStem: -13 40<293.031 363.073> 100 25<128 209.387> 251 31<25.0255 134 202 323.943> 631 33<243.664 324.382>
VStem: 125 83<283.93 536.078> 134 68<282 394.993> 338 80<532.329 622.376> 370 45<34.5897 109.84>
LayerCount: 3
Fore
SplineSet
17 25 m 0xf5
 17 76 92 96 120 115 c 1
 135 131 141 190 141 219 c 0
 141 221 139 235 138 251 c 1
 27 251 l 1
 26 256 25 260 25 265 c 0
 25 271 26 278 27 282 c 1
 134 282 l 1xf5
 130 323 125 375 125 396 c 0
 125 577 206 664 309 664 c 0
 365 664 418 624 418 573 c 0
 418 545 400 526 380 526 c 0
 362 526 345 538 338 575 c 0
 332 603 328 631 286 631 c 0
 254 631 207 605 207 521 c 0
 207 494 208 448 208 361 c 0xfa
 208 334 205 305 202 282 c 1
 322 282 l 1
 323 278 324 274 324 269 c 0
 324 263 323 257 322 251 c 1
 197 251 l 1
 181 174 153 122 153 122 c 1
 153 122 158 125 165 125 c 0
 251 125 281 27 334 27 c 0
 355 27 370 50 370 71 c 0
 370 104 330 113 330 146 c 0
 330 163 342 183 361 183 c 0
 393 183 415 139 415 100 c 0
 415 40 367 -13 296 -13 c 0
 233 -13 217 28 185 69 c 0
 168 90 156 100 145 100 c 0
 111 100 111 -11 51 -11 c 0
 31 -11 17 6 17 25 c 0xf5
EndSplineSet
Validated: 1
EndChar

StartChar: currency
Encoding: 164 164 159
Width: 489
Flags: W
HStem: -16 20G<32 46 423.5 435> 26 50<164.625 303.201> 332 47<165.442 301.85>
VStem: 58 51<131.401 274.404> 360 52<132.711 273.782>
DStem2: 67 406 32 371 0.706152 -0.70806<-30.5846 90.4581 432.397 554.618> 32 35 67 -0 0.706152 0.70806<-30.6985 90.9199 432.146 553.893>
LayerCount: 3
Fore
SplineSet
15 8 m 0
 15 19 24 27 32 35 c 2
 93 97 l 1
 71 127 58 164 58 204 c 0
 58 243 70 280 92 309 c 1
 32 371 l 2
 30 373 15 384 15 398 c 0
 15 412 27 422 39 422 c 0
 50 422 59 414 67 406 c 2
 129 344 l 1
 158 366 195 379 234 379 c 0
 276 379 312 365 340 344 c 1
 402 406 l 2
 404 408 415 422 429 422 c 0
 443 422 454 410 454 398 c 0
 454 387 445 379 437 371 c 2
 375 308 l 1
 397 278 412 242 412 202 c 0
 412 163 397 127 375 98 c 1
 437 35 l 2
 439 33 454 22 454 8 c 0
 454 -6 441 -17 429 -17 c 0
 418 -17 410 -8 402 -0 c 2
 340 62 l 1
 311 40 274 26 234 26 c 0
 195 26 158 39 129 61 c 1
 67 -0 l 2
 65 -2 53 -16 39 -16 c 0
 25 -16 15 -4 15 8 c 0
109 202 m 0
 109 131 166 76 234 76 c 0
 302 76 360 133 360 203 c 0
 360 272 303 332 234 332 c 0
 164 332 109 272 109 202 c 0
EndSplineSet
Validated: 1
EndChar

StartChar: exclamdown
Encoding: 161 161 160
Width: 405
VWidth: 0
Flags: W
HStem: -15 21G<136 187.5> 544 96<322.332 401.668>
VStem: 274 50<343.125 425.059> 314 96<552.332 631.668>
LayerCount: 3
Fore
SplineSet
314 440 m 0xd0
 321 440 324 438 324 430 c 0
 324 421 320 406 312 378 c 2
 210 6 l 2
 206 -10 205 -15 170 -15 c 2
 146 -15 l 2
 126 -15 114 -13 114 -1 c 0
 114 23.390625 271.348632812 372.115234375 274 378 c 0xe0
 299 433 301 440 314 440 c 0xd0
410 592 m 4xd0
 410 566 388 544 362 544 c 4
 336 544 314 566 314 592 c 4
 314 618 336 640 362 640 c 4
 388 640 410 618 410 592 c 4xd0
EndSplineSet
EndChar

StartChar: questiondown
Encoding: 191 191 161
Width: 411
VWidth: 0
Flags: W
HStem: -15 30<159.584 212.249> 429 31<235.254 282.504> 540 96<318.332 397.668>
VStem: 67 58<50.3869 164.5> 215 100<15.2343 82.6356> 299 60<346.888 417.967> 310 96<548.332 627.668>
LayerCount: 3
Fore
SplineSet
406 588 m 4xf2
 406 562 384 540 358 540 c 4
 332 540 310 562 310 588 c 4
 310 614 332 636 358 636 c 4
 384 636 406 614 406 588 c 4xf2
315 57 m 4xf8
 315 13.7998046875 255.599609375 -15 210 -15 c 4
 143 -15 67 35 67 126 c 4
 67 274 299 307 299 386 c 4
 299 403 286 418 253 429 c 4
 248 431 235 432 235 442 c 4
 235 449 240 460 260 460 c 4
 296 460 359 427 359 369 c 4xf4
 359 254 125 227 125 104 c 4
 125 47 168 15 196 15 c 4
 209 15 211 25 215 39 c 4
 229 85 252 102 273 102 c 4
 296 102 315 81 315 57 c 4xf8
EndSplineSet
EndChar

StartChar: yen
Encoding: 165 165 162
Width: 680
VWidth: 0
Flags: W
HStem: 0 21G<35.5 305.5> 227 31<61 181 281 399.633> 330 31<99.1191 189 363 439.718> 616 20G<91.5 316.5 445.5 652.5>
VStem: 165 89<390.25 604.96> 189 91<361 413.059>
DStem2: 118.799 0 209.3 0 0.241922 0.970296<77.1499 235.305>
LayerCount: 3
Fore
SplineSet
281 258 m 1xf4
 399 258 l 1
 400 256 400 253 400 249 c 0
 400 241 398 230 397 227 c 1
 272 227 l 1
 228 75 l 2
 225 66 224 59 224 53 c 0
 224 2 307 39 307 10 c 0
 307 6 306 2 305 0 c 1
 36 0 l 1
 35 2 33 6 33 10 c 0
 33 41 115 -3 137 73 c 2
 181 227 l 1
 61 227 l 1
 60 232 60 237 60 242 c 0
 60 247 62 253 63 258 c 1
 190 258 l 1
 195 276 198 288 198 298 c 0
 198 301 197 301 193 330 c 1
 100 330 l 1
 98 335 99 340 99 345 c 0
 100 351 101 357 102 361 c 1
 189 361 l 1xf4
 184 396 176 452 165 542 c 0
 160 578 160 594 145 604 c 0
 125 618 90 610 90 626 c 0
 90 630 91 634 92 636 c 1
 316 636 l 1
 317 634 319 630 319 626 c 0
 319 602 254 629 254 585 c 0xf8
 254 571 257 545 263 496 c 2
 280 355 l 2
 282 341 284 333 286 333 c 0
 290 333 305 344 310 348 c 0
 433 459 520 538 520 586 c 0
 520 596 515 602 509 605 c 0
 477 620 444 609 444 626 c 0
 444 630 445 634 446 636 c 1
 652 636 l 1
 653 634 655 630 655 626 c 0
 655 607 631 621 598 599 c 0
 582 588 572 574 550 548 c 0
 478 463 446 433 363 361 c 1
 438 361 l 1
 440 357 440 352 440 347 c 0
 439 341 438 335 436 330 c 1
 327 330 l 1
 310 315 l 2
 290 297 294 304 281 258 c 1xf4
EndSplineSet
EndChar

StartChar: brokenbar
Encoding: 166 166 163
Width: 158
VWidth: 0
Flags: W
HStem: -217 21G<70 77> 644 20G<69 76>
VStem: 50 46<-216.974 119.974 335 663.974>
LayerCount: 3
Fore
SplineSet
96 117 m 1
 96 -214 l 1
 87 -216 80 -217 74 -217 c 0
 66 -217 59 -216 50 -214 c 1
 50 117 l 1
 57 119 65 120 72 120 c 0
 80 120 88 119 96 117 c 1
50 335 m 1
 50 661 l 1
 59 663 66 664 72 664 c 0
 80 664 87 663 96 661 c 1
 96 335 l 1
 91 334 84 333 76 333 c 0
 66 333 55 334 50 335 c 1
EndSplineSet
Validated: 1
EndChar

StartChar: section
Encoding: 167 167 164
Width: 449
VWidth: 0
Flags: W
HStem: -222 29<190.067 282.838> 68 20<272.874 328.422> 358 18<134.172 166> 633 31<170.407 258.74>
VStem: 63 45<242.528 344.503> 91 52<501.936 613.61> 94 79<-165.751 -62.951> 256 96<523.805 619.322> 316 53<-168.465 -57.7229> 345 43<97.0712 194.445>
LayerCount: 3
Fore
SplineSet
63 270 m 0xf8
 63 350 112 376 154 376 c 0
 159 376 163 375 166 375 c 1
 164 380 91 453 91 542 c 0
 91 629 159 664 220 664 c 0
 300 664 352 614 352 571 c 0
 352 531 330 516 305 516 c 0
 277 516 256 537 256 559 c 0xf5
 256 588 261 595 261 611 c 0
 261 623 242 633 226 633 c 0
 186 633 143 618 143 557 c 0
 143 448 388 362 388 178 c 0xf440
 388 84 338 68 305 68 c 0
 291 68 282 71 272 73 c 1
 299 48 369 -15 369 -100 c 0
 369 -179 306 -222 241 -222 c 0
 169 -222 94 -177 94 -102 c 0
 94 -70 112 -38 144 -38 c 0
 167 -38 185 -53 185 -76 c 0
 185 -97 173 -124 173 -147 c 0xf280
 173 -170 193 -193 243 -193 c 0
 278 -193 316 -160 316 -117 c 0
 316 -41 219 12 143 91 c 0xf480
 81 155 63 222 63 270 c 0xf8
108 305 m 0xf840
 108 230 245 88 296 88 c 0
 324 88 345 104 345 132 c 0
 345 206 199 358 172 358 c 0
 132 358 108 335 108 305 c 0xf840
EndSplineSet
Validated: 1
EndChar

StartChar: paragraph
Encoding: 182 182 165
Width: 599
VWidth: 0
Flags: W
HStem: -217 21G<349.5 356.5 469.5 476.5> 624 20G<349.5 371 469 476>
VStem: 330 41<-216.953 195> 450 41<-216.953 646.974>
LayerCount: 3
Fore
SplineSet
68 425 m 0
 68 654 328 642 371 644 c 1
 371 -214 l 1
 363 -216 360 -217 353 -217 c 0
 346 -217 338 -216 330 -214 c 1
 330 195 l 1
 141 199 68 305 68 425 c 0
491 -214 m 1
 483 -216 480 -217 473 -217 c 0
 466 -217 458 -216 450 -214 c 1
 450 644 l 1
 459 646 466 647 472 647 c 0
 480 647 482 646 491 644 c 1
 491 -214 l 1
EndSplineSet
Validated: 1
EndChar

StartChar: registered
Encoding: 174 174 166
Width: 680
VWidth: 0
Flags: W
HStem: 186 31<263.301 416.592> 449 15<299 339.368> 589 20<299 368.388> 669 31<263.301 416.592>
VStem: 81 38<354.992 531.008> 247 52<333.574 449 464 588.859> 393 52<482.617 577.432> 560 38<354.992 531.008>
DStem2: 387 460 349 430 0.594759 -0.803904<0.616897 162.995>
LayerCount: 3
Fore
SplineSet
81 443 m 0
 81 585 198 700 340 700 c 0
 482 700 598 585 598 443 c 0
 598 301 482 186 340 186 c 0
 198 186 81 301 81 443 c 0
119 443 m 0
 119 319 216 217 340 217 c 0
 464 217 560 319 560 443 c 0
 560 567 464 669 340 669 c 0
 216 669 119 567 119 443 c 0
506 322 m 0
 506 321 505 315 504 313 c 1
 439 313 l 2
 431 313 426 315 423 320 c 2
 349 430 l 2
 338 446 333 449 313 449 c 2
 299 449 l 1
 299 352 l 1
 300 321 348 343 348 322 c 0
 348 320 347 317 345 313 c 1
 210 313 l 1
 207 317 207 318 207 322 c 0
 207 343 247 320 247 351 c 2
 247 571 l 2
 247 604 207 581 207 600 c 0
 207 606 210 608 211 609 c 1
 315 609 l 2
 336 609 360 609 382 604 c 0
 412 596 445 575 445 531 c 0
 444 480 399 468 387 460 c 1
 388 459 389 457 392 453 c 0
 424 405 468 347 478 337 c 0
 490 326 506 337 506 322 c 0
304 589 m 2
 300 589 299 585 299 579 c 2
 299 464 l 1
 313 464 l 2
 350 464 393 476 393 535 c 0
 393 563 375 581 349 587 c 0
 343 588 333 589 319 589 c 2
 304 589 l 2
EndSplineSet
Validated: 1
EndChar

StartChar: copyright
Encoding: 169 169 167
Width: 735
VWidth: 0
Flags: W
HStem: -22 41<266.752 469.14> 110 58<317.159 444.332> 407 21G<465 504> 502 25<330.44 407.599> 615 41<266.752 469.14>
VStem: 26 50<208.165 425.835> 176 79<238.705 416.65> 659 50<208.165 425.835>
LayerCount: 3
Fore
SplineSet
26 317 m 0
 26 504 181 656 368 656 c 0
 555 656 709 504 709 317 c 0
 709 130 555 -22 368 -22 c 0
 181 -22 26 130 26 317 c 0
76 317 m 0
 76 153 204 19 368 19 c 0
 532 19 659 153 659 317 c 0
 659 481 532 615 368 615 c 0
 204 615 76 481 76 317 c 0
529 217 m 1
 483 129 401 110 363 110 c 0
 303 110 176 141 176 320 c 0
 176 439 261 527 388 527 c 0
 474 527 529 478 529 443 c 0
 529 428 515 407 493 407 c 0
 437 407 436 502 375 502 c 0
 317 502 255 445 255 340 c 0
 255 198 337 168 389 168 c 0
 436 168 478 187 513 231 c 1
 522 227 526 223 529 217 c 1
EndSplineSet
Validated: 1
EndChar

StartChar: at
Encoding: 64 64 168
Width: 712
VWidth: 0
Flags: W
HStem: -140 38<247.661 459.791> -13 63<213 280.946 419.5 498.19> 350 54<346.632 404.562> 494 34<291.86 496.547>
VStem: 47 42<55.3591 285.049> 182 68<51.0185 162.276> 391 54<45.2471 156.563> 617 40<188.07 382.771>
LayerCount: 3
Fore
SplineSet
370 350 m 0
 314 350 250 183 250 98 c 0
 250 69 258 50 275 50 c 0
 308 50 373 172 387 200 c 0
 404 235 418 267 418 290 c 0
 418 325 389 350 370 350 c 0
629 26 m 1
 588 -80 470 -140 351 -140 c 0
 147 -140 47 13 47 172 c 0
 47 346 166 528 394 528 c 0
 528 528 657 451 657 296 c 0
 657 151 543 -10 432 -10 c 0
 407 -10 391 13 391 70 c 0
 391 96 394 129 402 170 c 0
 404 182 400 174 397 169 c 0
 375 134 308 -13 225 -13 c 0
 201 -13 182 7 182 54 c 0
 182 197 322 404 393 404 c 0
 438 404 438 315 443 315 c 0
 444 315 446 323 451 340 c 2
 467 394 l 2
 470 403 476 404 486 404 c 2
 509 404 l 2
 519 404 529 403 529 395 c 0
 529 373 445 160 445 82 c 0
 445 50 458 44 476 44 c 0
 540 44 617 159 617 273 c 0
 617 456 501 494 387 494 c 0
 196 494 89 325 89 167 c 0
 89 28 172 -102 353 -102 c 0
 459 -102 565 -51 605 36 c 1
 616 40 627 36 629 26 c 1
EndSplineSet
EndChar

StartChar: percent
Encoding: 37 37 169
Width: 771
Flags: W
HStem: -96 22<478.892 541.64> 179 21<532.381 593.845> 192 22<150.039 212.64> 417 29<329.953 477.271> 467 21<203.887 265.157>
VStem: 81 53<228.441 387.867> 284 54<297.704 432.371> 410 52<-59.5589 99.8674> 613 54<9.70435 160.76>
DStem2: 174 -62 197 -122 0.549382 0.835571<-82.9803 506.126>
LayerCount: 3
Back
SplineSet
409.700195312 18 m 4
 409.700195312 132.799804688 495.100585938 200 567.200195312 200 c 4
 620.400390625 200 666.600585938 163.600585938 666.600585938 83.7998046875 c 4
 666.600585938 -27.5 579.80078125 -96.099609375 507 -96.099609375 c 4
 454.5 -96.099609375 409.700195312 -61.099609375 409.700195312 18 c 4
462.200195312 -2.2998046875 m 4
 462.200195312 -46.3994140625 472 -74.3994140625 509.80078125 -74.3994140625 c 4
 575.600585938 -74.3994140625 612.700195312 51.6005859375 612.700195312 105.5 c 4
 612.700195312 152.400390625 600.100585938 179 563 179 c 4
 497.900390625 179 462.200195312 58.6005859375 462.200195312 -2.2998046875 c 4
81.099609375 306.200195312 m 4
 81.099609375 421 166.5 488.200195312 238.599609375 488.200195312 c 4
 291.799804688 488.200195312 338 451.80078125 338 372 c 4
 338 260.700195312 251.200195312 192.100585938 178.399414062 192.100585938 c 4
 125.899414062 192.100585938 81.099609375 227.100585938 81.099609375 306.200195312 c 4
133.599609375 285.900390625 m 4
 133.599609375 241.80078125 143.399414062 213.80078125 181.200195312 213.80078125 c 4
 247 213.80078125 284.099609375 339.80078125 284.099609375 393.700195312 c 4
 284.099609375 440.600585938 271.5 467.200195312 234.399414062 467.200195312 c 4
 169.299804688 467.200195312 133.599609375 346.80078125 133.599609375 285.900390625 c 4
284 477 m 5
 325 457 357 444 392 444 c 4xbf80
 527 444 601 564 622 564 c 4
 626 564 636 558 636 553 c 4
 636 546 630 537 627 532 c 4
 168 -155 183 -157 171 -157 c 4
 163 -157 129 -153 129 -132 c 4
 129 -118 138 -107 169 -62 c 6
 334 175 l 6
 462 359 516 423 516 431 c 4
 516 434 514 435 512 435 c 4
 511.992606109 435 452.38794334 415.043034726 393.595521284 415.043034726 c 4
 345.487052197 415.043034726 297.922440613 428.405754819 284 477 c 5
EndSplineSet
Fore
SplineSet
134 286 m 0xbf80
 134 242 143 214 181 214 c 0
 247 214 284 340 284 394 c 0
 284 441 271 467 234 467 c 0
 169 467 134 347 134 286 c 0xbf80
130 -133 m 0
 130 -120 146 -103 174 -62 c 2
 339 175 l 2
 467 359 516 423 516 431 c 0
 516 434 514 435 512 435 c 0
 502 435 462 417 411 417 c 0
 359 417 326 433 326 433 c 1
 326 433 338 412 338 372 c 0
 338 261 251 192 178 192 c 0
 126 192 81 227 81 306 c 0
 81 421 167 488 239 488 c 0
 291 488 307 446 402 446 c 0
 530 446 599 564 622 564 c 0
 626 564 636 558 636 553 c 0
 636 546 630 537 627 532 c 2
 197 -122 l 2
 186 -139 176 -156 164 -156 c 0
 143 -156 130 -137 130 -133 c 0
462 -2 m 0
 462 -46 472 -74 510 -74 c 0
 576 -74 613 52 613 106 c 0
 613 153 600 179 563 179 c 0xdf80
 498 179 462 59 462 -2 c 0
410 18 m 0
 410 133 495 200 567 200 c 0
 620 200 667 164 667 84 c 0
 667 -27 580 -96 507 -96 c 0
 455 -96 410 -61 410 18 c 0
EndSplineSet
EndChar

StartChar: dollar
Encoding: 36 36 170
Width: 496
Flags: HW
HStem: -13 36<102.98 170> 555 37<116.741 171 205 254.402> 634 20G<182 197>
VStem: 1 60<58.5065 133.836> 23 52<406.79 516.815> 170 35<-129.942 -13 26 274 364 555 593 653.985> 312 54<84.7029 220.783>
DStem2: 170 364 170 281 0.965948 -0.258736<-82.7647 0 57.0944 145.239>
LayerCount: 3
Fore
SplineSet
361 127 m 0
 361 187 323 222 278 253 c 1
 239 18 l 1
 320.034375 18 361 66.60390625 361 127 c 0
403 467 m 0
 364.512847351 467 390.326051657 525.7323524 328 553 c 1
 293 344 l 1
 353 307 416 267 416 172 c 0
 416 22 300 -11 234 -13 c 1
 221 -99 l 2
 217 -126 215 -130 199 -130 c 0
 183 -130 186.665609514 -119.77086224 188 -112 c 2
 205 -13 l 1
 205 -12 l 1
 135 -5 76 34 76 96 c 0
 76 132 97 149 116 149 c 0
 130 149 143 139 143 121 c 0
 143 111 141 99 141 87 c 0
 141 71 145 55 159 43 c 0
 176 29 193 23 210 20 c 1
 250 272 l 1
 189 311 126 350 126 437 c 0
 126 545 218 593 302 595 c 1
 305 616 307 636 309 648 c 0
 311 660 315 664 327 664 c 0
 343 664 345 659 343 651 c 0
 339 625 336 601 335 593 c 1
 392 586 438 556 438 508 c 0
 438 485 422 467 403 467 c 0
265 362 m 1
 296 561 l 1
 210.078125 561 184 508.2 184 473 c 0
 184 419 221 390 265 362 c 1
EndSplineSet
EndChar

StartChar: dollar.DONT_KEEP
Encoding: 65543 -1 171
Width: 458
VWidth: 0
Flags: W
HStem: -17 29<190.514 247> 568 30<191.469 247> 616 20G<168 182 256 270>
VStem: 66 49<396.374 521.412> 158 33<-112.995 -17 29 278 374 550 595 635.996> 247 32<-112.995 -13 24 236 329 557 598 635.996> 334 53<66.8768 203.362>
DStem2: 161 374 161 289 0.884242 -0.467029<-47.7218 0 21.0311 39.6975 69.5936 98.8296 119.837 149.633 167.022 231.384>
LayerCount: 3
Fore
SplineSet
378 519 m 0
 378 497 360 492 354 492 c 0
 343 492 336 496 330 501 c 0
 312 515 308 544 279 557 c 1
 279 504 277 436 277 315 c 1
 286 310 295 305 303 299 c 0
 359 262 387 204 387 148 c 0
 387 84 350 20 278 -6 c 1
 278 -45 279 -66 279 -89 c 0
 279 -107 277 -113 263 -113 c 0
 249 -113 246 -106 246 -93 c 0
 246 -78 246 -56 247 -13 c 1
 230 -17 212 -17 200 -17 c 2
 190 -17 l 1
 190 -49 191 -68 191 -89 c 0
 191 -107 189 -113 175 -113 c 0
 161 -113 158 -106 158 -93 c 0
 158 -78 158 -56 159 -13 c 1
 108 -4 51 34 51 65 c 0
 51 82 69 90 78 90 c 0
 90 90 106 83 125 61 c 0
 143 40 152 35 160 29 c 1
 161 83 161 154 161 244 c 2
 161 289 l 1
 96 324 66 383 66 440 c 0
 66 501 100 560 159 586 c 1
 159 611 l 2
 159 631 161 636 175 636 c 0
 189 636 191 631 191 611 c 2
 191 595 l 1
 206 598 225 598 237 598 c 2
 247 598 l 1
 247 611 l 2
 247 631 249 636 263 636 c 0
 277 636 279 631 279 611 c 2
 279 593 l 1
 339 578 378 546 378 519 c 0
161 374 m 1
 161 454 159 508 159 550 c 1
 131 528 115 492 115 457 c 0
 115 424 130 394 161 374 c 1
190 17 m 1
 201 14 210 12 219 12 c 0
 229 12 238 14 248 16 c 1
 249 72 249 124 249 248 c 1
 227 259 206 271 189 278 c 1
 189 246 l 2
 189 140 189 71 190 17 c 1
189 359 m 1
 249 329 l 1
 249 447 247 515 247 565 c 1
 239 567 231 568 223 568 c 0
 212 568 201 566 191 563 c 1
 191 515 189 461 189 359 c 1
277 236 m 1
 277 143 278 75 278 24 c 1
 300 40 334 78 334 140 c 0
 334 174 320 208 277 236 c 1
EndSplineSet
Validated: 1
EndChar

StartChar: longs
Encoding: 383 383 172
Width: 256
VWidth: 0
Flags: W
HStem: -223 36<-110 -23.5659> 606 58<262.5 351.9>
DStem2: -6.55176 -223 55.9845 -223 0.241922 0.970296<147.208 811.512>
LayerCount: 3
Back
SplineSet
337 578 m 4
 297 578 284 606 266 606 c 4
 259 606 252 575 233 500 c 6
 202 377 l 5
 282 377 l 5
 284 371 282 357 279 351 c 5
 197 351 l 5
 156 181 l 6
 126 57 109 -37 54 -130 c 4
 34 -164 -19 -223 -90 -223 c 4
 -130 -223 -148 -199 -148 -175 c 4
 -148 -153 -133 -132 -106 -132 c 4
 -63 -132 -56 -187 -31 -187 c 4
 21 -187 122 317 131 351 c 5
 47 351 l 5
 45 358 47 370 50 377 c 5
 136 377 l 5
 172 522 204 583 235 615 c 4
 248 628 293 664 331 664 c 4
 363 664 379 642 379 620 c 4
 379 599 365 578 337 578 c 4
EndSplineSet
Fore
SplineSet
337 578 m 0
 297 578 284 606 266 606 c 0
 259 606 251 575 233 500 c 2
 143 126 l 2
 104 -33 90 -68 54 -130 c 0
 34 -164 -19 -223 -90 -223 c 0
 -130 -223 -148 -199 -148 -175 c 0
 -148 -153 -133 -132 -106 -132 c 0
 -63 -132 -56 -187 -31 -187 c 0
 -5 -187 34 -59 67 72 c 0
 91 166 102 223 129 344 c 0
 152 449 185 564 235 615 c 0
 248 628 293 664 331 664 c 0
 363 664 379 642 379 620 c 0
 379 599 365 578 337 578 c 0
EndSplineSet
AlternateSubs2: "'aalt' Access All Alternates lookup 0 subtable" longs.ld
AlternateSubs2: "'aalt' Access All Alternates in Latin lookup 0 subtable" longs.ld
Substitution2: "'ss01' Style Set 1 in Latin lookup 1 subtable" longs.ld
EndChar

StartChar: germandbls
Encoding: 223 223 173
Width: 452
VWidth: 0
Flags: W
HStem: -223 36<-110 -23.5659> -13 34<214.5 310.932> 623 41<271.413 358.128>
VStem: 241 57<269.186 355.874> 321 59<41.8402 138.818> 389 55<511.258 593.493>
DStem2: -6.55176 -223 55.9845 -223 0.241922 0.970296<147.208 811.512>
LayerCount: 3
Fore
SplineSet
298 336 m 0
 298 315 309 291 331 246 c 0
 354 198 380 144 380 105 c 0
 380 42 323 -13 241 -13 c 0
 188 -13 166 13 166 37 c 0
 166 57 182 76 208 76 c 0
 246 76 248 21 279 21 c 0
 303 21 321 39 321 68 c 0
 321 104 292 153 269 202 c 0
 251 241 241 267 241 292 c 0
 241 387 389 462 389 535 c 0
 389 590 345 623 307 623 c 0
 298 623 289 621 281 617 c 0
 252 603 249 565 233 500 c 2
 143 126 l 2
 104 -33 90 -68 54 -130 c 0
 34 -164 -19 -223 -90 -223 c 0
 -130 -223 -148 -199 -148 -175 c 0
 -148 -153 -133 -132 -106 -132 c 0
 -63 -132 -56 -187 -31 -187 c 0
 -5 -187 34 -59 67 72 c 0
 91 166 102 223 129 344 c 0
 152 449 185 564 235 615 c 0
 270 650 307 664 340 664 c 0
 398 664 444 620 444 567 c 0
 444 489 298 406 298 336 c 0
EndSplineSet
EndChar

StartChar: uni0307
Encoding: 775 775 174
Width: 0
VWidth: 0
Flags: W
HStem: 546 87<-266.56 -191.44>
VStem: -273 88<552.167 626.56>
AnchorPoint: "top" -230 540 mark 0
LayerCount: 3
Fore
SplineSet
-273 589 m 0
 -273 613 -253 633 -229 633 c 0
 -205 633 -185 613 -185 589 c 0
 -185 565 -205 546 -229 546 c 0
 -253 546 -273 565 -273 589 c 0
EndSplineSet
EndChar

StartChar: dotlessi
Encoding: 305 305 175
Width: 231
VWidth: 0
Flags: W
HStem: -13 66<43.5444 121.5> 348 58<112.776 186.761>
VStem: 31 80<6.25377 112.056> 121 80<288.32 388.788>
AnchorPoint: "top" 175 540 basechar 0
LayerCount: 3
Fore
SplineSet
111 65 m 0
 111 57 113 53 118 53 c 0
 125 53 137 61 151 75 c 0
 175 97 187 118 196 118 c 0
 198 118 204 116 204 110 c 0
 204 75 103 -13 55 -13 c 0
 40 -13 31 -5 31 16 c 0
 31 90 121 280 121 338 c 0
 121 346 117 348 114 348 c 0
 97 348 71 319 59 304 c 0
 50 293 44 284 39 284 c 0
 36 284 31 286 31 294 c 0
 31 324 116 406 173 406 c 0
 195 406 201 392 201 378 c 0
 201 322 111 103 111 65 c 0
EndSplineSet
EndChar

StartChar: uni0237
Encoding: 567 567 176
Width: 267
VWidth: 0
Flags: W
HStem: -224 29<-86.5 1.70825> 357 49<149.861 232.426>
VStem: 168 78<290.105 392.112>
AnchorPoint: "top" 205 540 basechar 0
LayerCount: 3
Fore
SplineSet
-97 -126 m 0
 -44 -126 -58 -195 -23 -195 c 0
 3 -195 24 -155 45 -83 c 0
 87 65 168 337 168 344 c 0
 168 353 164 357 157 357 c 0
 144 357 104 332 64 281 c 0
 53 267 45 263 41 263 c 0
 37 263 36 267 36 271 c 0
 36 313 152 406 219 406 c 0
 238 406 246 395 246 383 c 0
 246 339 191 196 146 29 c 0
 117 -76 106 -112 86 -140 c 0
 69 -164 15 -224 -59 -224 c 0
 -114 -224 -140 -193 -140 -166 c 0
 -140 -142 -120 -126 -97 -126 c 0
EndSplineSet
EndChar

StartChar: uni0308
Encoding: 776 776 177
Width: 0
VWidth: 0
Flags: W
HStem: 568 93<-348.72 -268.443 -188.72 -108.443>
VStem: -357 96<576.49 653.508> -197 96<576.49 653.508>
AnchorPoint: "top" -230 540 mark 0
LayerCount: 3
Fore
SplineSet
-151 661 m 0
 -117 661 -101 637 -101 614 c 0
 -101 591 -116 568 -147 568 c 0
 -178 568 -197 592 -197 617 c 0
 -197 637 -184 661 -151 661 c 0
-311 661 m 0
 -277 661 -261 637 -261 614 c 0
 -261 591 -276 568 -307 568 c 0
 -338 568 -357 592 -357 617 c 0
 -357 637 -344 661 -311 661 c 0
EndSplineSet
Validated: 1
EndChar

StartChar: eth
Encoding: 240 240 190
Width: 416
VWidth: 0
Flags: W
HStem: -15 29<84.3113 146.842> 381 27<222.212 284.806> 639 20G<221.5 255.5>
VStem: 18 56<25.9695 153.894> 296 61<239.398 432.689>
DStem2: 170 526 176 496 0.966645 0.25612<-2.72365 106.48 150.202 240.191>
LayerCount: 3
Back
SplineSet
426.020507812 562.056640625 m 5
 149.765625 488.03515625 l 5
 142.796875 498.58984375 139.950195312 509.215820312 141.745117188 517.978515625 c 5
 418 592 l 5
 421.483398438 586.72265625 426.450195312 579.771484375 426.020507812 562.056640625 c 5
EndSplineSet
Fore
SplineSet
296 333 m 0
 296 375 266 381 253 381 c 0
 182 381 74 140 74 64 c 0
 74 29 90 14 116 14 c 0
 182 14 296 237 296 333 c 0
313 564 m 1
 404 588 l 1
 407 583 410 578 410 566 c 2
 410 558 l 1
 323 535 l 1
 340 477 357 407 357 332 c 0
 357 105 206 -15 116 -15 c 0
 51 -15 18 42 18 108 c 0
 18 210 113 408 248 408 c 0
 269 408 288 402 303 392 c 1
 302 444 291 487 282 524 c 1
 176 496 l 1
 172 504 169 512 169 519 c 0
 169 522 169 524 170 526 c 1
 273 553 l 1
 253 618 217 650 217 655 c 0
 217 658 220 659 223 659 c 2
 254 659 l 2
 257 659 263 658 267 652 c 0
 279 634 302 600 313 564 c 1
EndSplineSet
EndChar

StartChar: thorn
Encoding: 254 254 191
Width: 446
VWidth: 0
Flags: W
HStem: -211 21G<-58.5 178.5> -8 25<180.915 249.41> 367 37<241.1 366> 644 20G<254 310>
VStem: 359 69<174.09 343.208>
DStem2: 25 -149 108 -89 0.268379 0.963313<5.45055 188.737 310.723 495.085 510.192 557.251 568.306 755.168>
LayerCount: 3
Fore
SplineSet
216 17 m 0
 278 17 359 160 359 269 c 0
 359 324 337 367 281 367 c 0
 256 367 234 360 225 356 c 1
 171 165 160 125 160 82 c 0
 160 58 170 17 216 17 c 0
108 -89 m 2
 100 -121 93 -148 93 -163 c 0
 93 -205 180 -180 180 -203 c 0
 180 -206 179 -209 178 -211 c 1
 -58 -211 l 1
 -59 -209 -60 -206 -60 -203 c 0
 -60 -187 -17 -199 9 -180 c 0
 20 -172 23 -155 25 -149 c 2
 154 329 l 1
 83 301 25 235 15 235 c 0
 12 235 8 238 8 243 c 0
 8 270 114 337 162 358 c 1
 191 464 216 559 216 586 c 0
 216 609 186 614 170 618 c 0
 162 620 160 625 160 630 c 0
 160 653 200 631 308 664 c 1
 312 663 315 658 315 654 c 1
 233 383 l 1
 278 398 311 404 341 404 c 0
 391 404 428 378 428 292 c 0
 428 142 321 -8 215 -8 c 0
 165 -8 136 16 136 16 c 1
 108 -89 l 2
EndSplineSet
AlternateSubs2: "'aalt' Access All Alternates lookup 0 subtable" thorn.ld
AlternateSubs2: "'aalt' Access All Alternates in Latin lookup 0 subtable" thorn.ld
Substitution2: "'ss01' Style Set 1 in Latin lookup 1 subtable" thorn.ld
EndChar

StartChar: acutecomb
Encoding: 769 769 192
Width: 0
VWidth: 0
Flags: W
HStem: 454 207<-238 -170>
VStem: -254 123
AnchorPoint: "top" -230 540 mark 0
LayerCount: 3
Fore
SplineSet
-170 661 m 0
 -143 661 -131 642 -131 629 c 0
 -131 601 -170 554 -194 514 c 0
 -220 471 -223 454 -238 454 c 0
 -244 454 -254 457 -254 467 c 0
 -254 480 -242 512 -236 529 c 0
 -214 595 -218 661 -170 661 c 0
EndSplineSet
Validated: 1
EndChar

StartChar: thorn.ld
Encoding: 65544 -1 216
Width: 446
VWidth: 0
Flags: W
HStem: -270 21G<-74.5 162.5> -8 25<180.915 249.41> 367 37<241.1 366> 644 20G<254 310>
VStem: 359 69<174.09 343.208>
DStem2: 9 -208 92 -148 0.267892 0.963449<5.41539 249.835 374.759 556.216 571.332 618.337 629.406 813.042>
LayerCount: 3
Fore
SplineSet
216 17 m 0
 278 17 359 160 359 269 c 0
 359 324 337 367 281 367 c 0
 256 367 234 360 225 356 c 1
 171 165 160 125 160 82 c 0
 160 58 170 17 216 17 c 0
154 329 m 1
 83 301 25 235 15 235 c 0
 12 235 8 238 8 243 c 0
 8 270 114 337 162 358 c 1
 191 464 216 559 216 586 c 0
 216 609 186 614 170 618 c 0
 162 620 160 625 160 630 c 0
 160 653 200 631 308 664 c 1
 312 663 315 658 315 654 c 1
 233 383 l 1
 278 398 311 404 341 404 c 0
 391 404 428 378 428 292 c 0
 428 142 321 -8 215 -8 c 0
 165 -8 136 16 136 16 c 1
 92 -148 l 2
 83 -180 77 -207 77 -222 c 0
 77 -264 164 -239 164 -262 c 0
 164 -265 163 -268 162 -270 c 1
 -74 -270 l 1
 -75 -268 -76 -265 -76 -262 c 0
 -76 -246 -33 -258 -7 -239 c 0
 4 -231 7 -214 9 -208 c 2
 154 329 l 1
EndSplineSet
EndChar

StartChar: oslash
Encoding: 248 248 219
Width: 454
VWidth: 0
Flags: W
HStem: -15 29<83.7756 147.647> 381 27<223.203 284.613>
DStem2: -29 -10 -9 -30 0.67702 0.735965<-2.82261 72.4142 162.788 444.001 518.773 596.51>
LayerCount: 3
Back
SplineSet
-9 -30 m 5
 -19 -25 -24 -19 -29 -10 c 5
 27 51 l 5
 21 68 18 88 18 108 c 4
 18 210 113 408 248 408 c 4
 280 408 305 394 322 372 c 5
 382 437 l 5
 392 434 399 426 402 417 c 5
 338 347 l 5
 347 327 352 304 352 280 c 4
 352 136 221 -15 116 -15 c 4
 82 -15 57 0 41 24 c 5
 -9 -30 l 5
292 298 m 5
 74 60 l 5
 75 28 91 14 116 14 c 4
 175 14 272 191 292 298 c 5
81 110 m 5
 295 343 l 5
 291 376 265 381 253 381 c 4
 193 381 106 209 81 110 c 5
EndSplineSet
Fore
SplineSet
-9 -30 m 1
 -19 -25 -24 -19 -29 -10 c 1
 27 51 l 1
 21 68 18 88 18 108 c 0
 18 210 113 408 248 408 c 0
 280 408 305 394 322 372 c 1
 373 427 l 1
 383 424 390 416 393 407 c 1
 338 347 l 1
 347 327 352 304 352 280 c 0
 352 136 221 -15 116 -15 c 0
 82 -15 57 0 41 24 c 1
 -9 -30 l 1
292 298 m 1
 74 60 l 1
 75 28 91 14 116 14 c 0
 175 14 272 191 292 298 c 1
81 110 m 1
 295 343 l 1
 291 376 265 381 253 381 c 0
 193 381 106 209 81 110 c 1
EndSplineSet
EndChar

StartChar: Thorn
Encoding: 222 222 220
Width: 568
VWidth: 0
Flags: W
HStem: 0 25<179.605 253.59> 441 25<276.186 380.024> 616 20G<140.5 379.5>
VStem: 435 82<260.893 403.413>
DStem2: 73.3004 0 161.3 0 0.241922 0.970296<74.6498 196.57 219.125 480.67 501.195 599.93>
LayerCount: 3
Fore
SplineSet
379 636 m 1
 380 634 382 630 382 626 c 0
 382 606 331 625 314 601 c 0
 308 593 305 581 300 561 c 2
 276 466 l 1
 346 466 l 2
 475 466 517 403 517 337 c 0
 517 282 493 160 298 160 c 0
 267 160 235 163 203 168 c 1
 180 75 l 2
 178 66 176 58 176 51 c 0
 177 36 185 28 196 25 c 0
 218 20 254 26 254 10 c 0
 254 6 253 2 252 0 c 1
 13 0 l 1
 12 2 10 6 10 10 c 0
 10 26 49.3326485838 16.4844127351 69 29 c 0
 82.3326485838 37.4844127351 86 51 92 75 c 2
 212 561 l 2
 214 569 216 577 216 583 c 0
 216 632 139 604 139 626 c 0
 139 630 140 634 141 636 c 1
 379 636 l 1
322 441 m 0
 263 441 270 440 258 391 c 2
 209 192 l 1
 222 190 235 189 249 189 c 0
 380 189 435 262 435 330 c 0
 435 370 422 441 322 441 c 0
EndSplineSet
EndChar

StartChar: Eth
Encoding: 208 208 222
Width: 725
VWidth: 0
Flags: W
HStem: 0 31<182.836 368.876> 308 31<88.0835 154 249 419.901> 608 28<314.355 478.74>
VStem: 597 84<255.413 503.092>
DStem2: 77.3004 0 165.3 0 0.241922 0.970296<80.5739 317.406 370.468 599.93>
LayerCount: 3
Fore
SplineSet
181 57 m 0
 181 33 202 31 239 31 c 2
 255 31 l 2
 529 31 597 246 597 402 c 0
 597 578 488 608 386 608 c 0
 308 608 314 602 304 561 c 2
 249 339 l 1
 418 339 l 1
 419 335 420 330 420 326 c 0
 420 319 418 313 416 308 c 1
 242 308 l 1
 184 75 l 2
 181 62 181 61 181 57 c 0
145 636 m 1
 369 636 l 2
 530 636 681 598 681 389 c 0
 681 323 665 218 606 138 c 0
 505 1 332 0 271 0 c 2
 17 0 l 1
 16 2 14 6 14 10 c 0
 14 30 68 11 83 36 c 0
 87 44 91 56 96 75 c 2
 154 308 l 5
 90 308 l 5
 89 312 88 316 88 320 c 4
 88 328 89 334 92 339 c 5
 161 339 l 5
 216 561 l 2
 218 569 220 577 220 583 c 0
 220 632 143 604 143 626 c 0
 143 630 144 634 145 636 c 1
EndSplineSet
EndChar

StartChar: gravecomb
Encoding: 768 768 223
Width: 0
VWidth: 0
Flags: W
HStem: 454 207<-288 -220>
VStem: -327 123
AnchorPoint: "top" -230 540 mark 0
LayerCount: 3
Fore
SplineSet
-288 661 m 0
 -240 661 -244 595 -222 529 c 0
 -216 512 -204 480 -204 467 c 0
 -204 457 -214 454 -220 454 c 0
 -235 454 -238 471 -264 514 c 0
 -288 554 -327 601 -327 629 c 0
 -327 642 -315 661 -288 661 c 0
EndSplineSet
Validated: 1
EndChar

StartChar: uni030B
Encoding: 779 779 233
Width: 0
VWidth: 0
Flags: W
HStem: 454 207<-305 -237 -165 -97>
VStem: -321 263
AnchorPoint: "top" -230 540 mark 0
LayerCount: 3
Fore
SplineSet
-97 661 m 0
 -70 661 -58 642 -58 629 c 0
 -58 601 -97 554 -121 514 c 0
 -147 471 -150 454 -165 454 c 0
 -171 454 -181 457 -181 467 c 0
 -181 480 -169 512 -163 529 c 0
 -141 595 -145 661 -97 661 c 0
-237 661 m 0
 -210 661 -198 642 -198 629 c 0
 -198 601 -237 554 -261 514 c 0
 -287 471 -290 454 -305 454 c 0
 -311 454 -321 457 -321 467 c 0
 -321 480 -309 512 -303 529 c 0
 -281 595 -285 661 -237 661 c 0
EndSplineSet
Validated: 1
EndChar

StartChar: uni0302
Encoding: 770 770 250
Width: 0
Flags: W
HStem: 496 160
VStem: -348 234<502 509>
AnchorPoint: "top" -230 540 mark 0
LayerCount: 3
Fore
SplineSet
-231 577 m 1
 -302 519 -327 496 -337 496 c 0
 -340 496 -348 502 -348 505 c 0
 -348 509 -301 562 -249 654 c 1
 -249 654 -236 656 -232 656 c 0
 -225 656 -213 654 -213 654 c 1
 -160 561 -114 510 -114 505 c 0
 -114 502 -122 496 -125 496 c 0
 -135 496 -160 519 -231 577 c 1
EndSplineSet
Validated: 1
EndChar

StartChar: tildecomb
Encoding: 771 771 251
Width: 996
VWidth: 0
Flags: W
HStem: 558 60<-219.524 -146.345> 601 60<-312.655 -238.356>
VStem: -352 245
AnchorPoint: "top" -230 540 mark 0
LayerCount: 3
Fore
SplineSet
-185 558 m 0xa0
 -223 558 -255 601 -291 601 c 0
 -321 601 -336 559 -336 559 c 1
 -339 559 -349 560 -352 562 c 1
 -352 562 -324 661 -274 661 c 0x60
 -236 661 -203 618 -168 618 c 0
 -138 618 -123 660 -123 660 c 1
 -120 660 -110 659 -107 657 c 1
 -107 657 -135 558 -185 558 c 0xa0
EndSplineSet
Validated: 1
EndChar

StartChar: uni030C
Encoding: 780 780 275
Width: 0
Flags: W
HStem: 496 160
VStem: -348 234<643 650>
AnchorPoint: "top" -230 540 mark 0
LayerCount: 3
Fore
SplineSet
-231 575 m 1
 -160 633 -135 656 -125 656 c 0
 -122 656 -114 650 -114 647 c 0
 -114 643 -161 590 -213 498 c 1
 -213 498 -226 496 -230 496 c 0
 -237 496 -249 498 -249 498 c 1
 -302 591 -348 642 -348 647 c 0
 -348 650 -340 656 -337 656 c 0
 -327 656 -302 633 -231 575 c 1
EndSplineSet
Validated: 1
EndChar

StartChar: uni0304
Encoding: 772 772 295
Width: 824
VWidth: 0
Flags: W
HStem: 595 45<-346 -112>
VStem: -346 234<595 640>
AnchorPoint: "top" -230 540 mark 0
LayerCount: 3
Fore
SplineSet
-112 595 m 1
 -346 595 l 1
 -346 640 l 1
 -112 640 l 1
 -112 595 l 1
EndSplineSet
Validated: 1
EndChar

StartChar: uni0306
Encoding: 774 774 308
Width: 0
Flags: W
HStem: 526 59<-294.799 -163.201>
VStem: -343 25<622.411 655.994> -140 25<622.411 655.994>
AnchorPoint: "top" -230 540 mark 0
LayerCount: 3
Fore
SplineSet
-229 585 m 0
 -148 585 -144 643 -140 654 c 1
 -140 654 -135 656 -128 656 c 0
 -121 656 -115 654 -115 654 c 1
 -115 653 l 2
 -115 639 -122 526 -229 526 c 0
 -336 526 -343 639 -343 653 c 2
 -343 654 l 1
 -343 654 -337 656 -330 656 c 0
 -323 656 -318 654 -318 654 c 1
 -314 643 -310 585 -229 585 c 0
EndSplineSet
Validated: 1
EndChar

StartChar: uni030A
Encoding: 778 778 321
Width: 0
VWidth: 0
Flags: W
HStem: 505 37<-262.96 -193.617> 624 37<-263.634 -195.482>
VStem: -310 40<548.865 619.293> -188 40<546.58 617.673>
AnchorPoint: "top" -230 540 mark 0
LayerCount: 3
Fore
SplineSet
-231 661 m 0
 -174 661 -148 621 -148 582 c 0
 -148 543 -177 505 -227 505 c 0
 -277 505 -310 545 -310 587 c 0
 -310 621 -287 661 -231 661 c 0
-231 624 m 0
 -259 624 -270 602 -270 584 c 0
 -270 562 -254 542 -227 542 c 0
 -200 542 -188 562 -188 582 c 0
 -188 602 -202 624 -231 624 c 0
EndSplineSet
Validated: 1
EndChar

StartChar: dcroat
Encoding: 273 273 338
Width: 473
VWidth: 0
Flags: W
HStem: -13 46<69.6728 148.227> 365 39<185.878 283.944> 488 31<237.796 349 428 481.794> 644 20G<403 463>
VStem: 17 68<37.7702 188.667> 237 70<3.56555 117.25>
DStem2: 222.017 -13 294.087 -13 0.241922 0.970296<414.301 516.838 566.029 616.254>
LayerCount: 3
Fore
SplineSet
302 303 m 0
 302 353 253 365 228 365 c 0
 116 365 85 138 85 97 c 0
 85 50 103 33 124 33 c 0
 175 33 302 261 302 303 c 0
274 173 m 1
 265 173 190 -13 89 -13 c 0
 47 -13 17 24 17 86 c 0
 17 134 35 196 78 270 c 0
 121 343 180 404 255 404 c 0
 295 404 314 389 321 384 c 1
 331 416 340 454 349 488 c 1
 239 488 l 1
 237 493 236 498 237 504 c 0
 237 509 239 514 241 519 c 1
 357 519 l 1
 364 550 369 575 369 586 c 0
 369 609 336 614 320 618 c 0
 312 620 310 625 310 630 c 0
 310 654 345 629 461 664 c 1
 465 663 468 658 468 654 c 1
 428 519 l 1
 480 519 l 1
 482 516 482 512 482 508 c 0
 482 500 480 491 478 488 c 1
 419 488 l 1
 371 323 307 93 307 56 c 0
 307 45 310 39 315 39 c 0
 326 39 349 65 371 94 c 0
 383 110 388 115 394 115 c 0
 396 115 401 113 401 107 c 0
 401 103 399 98 394 90 c 0
 344 17 299 -13 267 -13 c 0
 247 -13 237 -2 237 17 c 0
 237 54 274 166 274 173 c 1
EndSplineSet
EndChar

StartChar: hbar
Encoding: 295 295 339
Width: 443
VWidth: 0
Flags: W
HStem: -5 43<312.003 335.481> 372 32<272.444 337.799> 488 31<82.7963 145 225 336.794> 644 20G<202.5 259>
VStem: 234 78<9.3457 105.045> 342 69<266.322 369.531>
DStem2: 145 488 131 194 0.277754 0.960652<-228.911 0 52.0005 99.2822>
LayerCount: 3
Fore
SplineSet
234 20 m 0
 234 93 342 282 342 342 c 0
 342 352 334 372 307 372 c 0
 273 372 252 335 218 278 c 2
 160 183 l 1
 123 120 110 82 93 27 c 0
 89 15 87 5 80 1 c 0
 78 0 76 0 74 -0 c 2
 31 0 l 2
 22 0 19 1 19 6 c 0
 19 17 105 324 145 488 c 1
 84 488 l 1
 82 493 81 498 82 504 c 0
 82 509 84 514 86 519 c 1
 152 519 l 1
 160 553 165 577 165 586 c 0
 165 609 135 614 119 618 c 0
 111 620 109 625 109 630 c 0
 109 653 148 631 257 664 c 1
 261 663 264 658 264 654 c 1
 225 519 l 1
 335 519 l 1
 337 516 337 512 337 508 c 0
 337 500 335 491 333 488 c 1
 216 488 l 1
 131 194 l 2
 130 192 132 191 133 191 c 0
 134 191 156 231 194 290 c 0
 254 381 264 404 336 404 c 0
 377 404 411 394 411 356 c 0
 411 271 312 88 312 50 c 0
 312 41 316 38 324 38 c 0
 331 38 339 44 348 51 c 0
 382 78 410 127 421 127 c 0
 425 127 427 124 427 120 c 0
 427 99 361 -5 258 -5 c 2
 257 -5 l 2
 241 -5 234 4 234 20 c 0
EndSplineSet
EndChar

StartChar: Hbar
Encoding: 294 294 340
Width: 793
VWidth: 0
Flags: W
HStem: 0 21G<17.5 262.5 423.5 668.5> 308 31<255 576> 455 31<130.084 196 291 612 707 770.794> 616 20G<145.5 398.5 561.5 804.5>
DStem2: 83.3004 0 171.3 0 0.241922 0.970296<71.7844 338.696 370.468 468.749 521.811 599.688> 499.3 0 587.3 0 0.241922 0.970296<71.7851 317.406 349.179 468.749 521.811 599.93>
LayerCount: 3
Fore
SplineSet
225 583 m 0
 225 630 144 604 144 626 c 0
 144 630 145 634 146 636 c 1
 398 636 l 1
 399 634 401 630 401 626 c 0
 401 608 342 623 326 603 c 0
 320 595 316 584 310 561 c 2
 291 486 l 1
 619 486 l 1
 638 561 l 2
 640 569 642 577 642 583 c 0
 642 629 560 605 560 626 c 0
 560 630 561 634 562 636 c 1
 804 636 l 1
 805 634 807 630 807 626 c 0
 807 606 754 629 737 597 c 0
 732 587 730 575 726 561 c 2
 707 486 l 1
 769 486 l 1
 771 483 771 479 771 475 c 0
 771 467 769 458 767 455 c 1
 700 455 l 1
 606 75 l 2
 604 66 602 56 602 48 c 0
 602 7 670 35 670 10 c 0
 670 6 669 2 668 0 c 1
 424 0 l 1
 423 2 421 6 421 10 c 0
 421 31 494 7 510 47 c 0
 513 54 515 62 518 75 c 2
 576 308 l 1
 248 308 l 1
 190 75 l 2
 188 65 186 56 186 48 c 0
 186 5 264 34 264 10 c 0
 264 6 263 2 262 0 c 1
 18 0 l 1
 17 2 15 6 15 10 c 0
 15 29 70 14 86 32 c 0
 92 39 96 52 102 75 c 2
 196 455 l 1
 132 455 l 1
 131 459 130 463 130 467 c 0
 130 475 131 481 134 486 c 1
 203 486 l 1
 222 561 l 2
 224 569 225 577 225 583 c 0
612 455 m 1
 284 455 l 1
 255 339 l 1
 583 339 l 1
 612 455 l 1
EndSplineSet
EndChar

StartChar: tbar
Encoding: 359 359 341
Width: 303
VWidth: 0
Flags: W
HStem: -13 46<42.5 130.544> 197 31<0.0694275 66 140 220.916> 354 40<44.995 113 189 256.151>
VStem: 18 74<3.01323 109.084> 146 70<447.182 494.709>
DStem2: 12.3784 -13 78.6411 -13 0.241922 0.970296<77.0103 216.734 264.716 380.441 437.639 527.542>
LayerCount: 3
Fore
SplineSet
104 33 m 0
 137 33 199 102 214 102 c 0
 218 102 220 99 220 95 c 0
 220 89 218 81 209 70 c 0
 160 12 91 -13 58 -13 c 0
 27 -13 18 0 18 17 c 0
 18 35 38 105 60 178 c 1
 66 197 l 1
 2 197 l 1
 1 201 0 205 0 209 c 0
 0 213 0 220 4 228 c 1
 75 228 l 1
 113 354 l 1
 38 354 l 1
 38 369 43 384 48 394 c 1
 124 394 l 1
 146 472 l 2
 153 494 155 495 180 495 c 2
 196 495 l 2
 212 495 216 492 216 483 c 0
 216 472 201 437 189 394 c 1
 263 394 l 1
 263 382 259 365 253 354 c 1
 177 354 l 1
 140 228 l 1
 219 228 l 1
 220 225 221 220 221 216 c 0
 221 208 220 202 217 197 c 1
 131 197 l 1
 111 126 92 56 92 46 c 0
 92 36 98 33 104 33 c 0
EndSplineSet
EndChar

StartChar: Tbar
Encoding: 358 358 342
Width: 720
VWidth: 0
Flags: W
HStem: 0 21G<90.5 370.5> 316 31<114.069 261 362 510.916> 602 34<125.901 331.999 433.868 610.996> 630 20G<656 660.5>
VStem: 664 21<493.446 508.66>
DStem2: 192 73 283 75 0.278634 0.960397<5.30422 252.602 310.517 522.783>
LayerCount: 3
Fore
SplineSet
279 53 m 0xe8
 279 2 372 39 372 10 c 0
 372 6 371 2 370 0 c 1
 91 0 l 1
 90 2 88 6 88 10 c 0
 88 41 170 -3 192 73 c 2
 261 316 l 1
 116 316 l 1
 115 320 114 324 114 328 c 0
 114 332 114 339 118 347 c 1
 270 347 l 1
 323 534 l 2
 327 548 333 565 333 577 c 0
 333 591 326 602 296 602 c 2
 200 602 l 2
 133 602 141 598 116 576 c 0
 77 543 65 520 52 520 c 0
 48 520 44 524 44 529 c 0
 44 536 45 533 75 610 c 1
 88 649 l 2
 89 652 91 654 94 654 c 0
 100 654 118 636 132 636 c 2
 619 636 l 2xe8
 627 636 654 650 658 650 c 0xd8
 663 650 667 647 668 637 c 2
 672 595 l 2
 674 576 685 505 685 494 c 0
 685 482 681 482 675 481 c 0
 671 480 667 481 664 487 c 0
 653 512 629 562 611 585 c 1
 599 602 581 602 546 602 c 2
 484 602 l 2
 430 602 428 576 424 561 c 2
 362 347 l 1
 509 347 l 1
 510 344 511 339 511 335 c 0
 511 327 510 321 507 316 c 1
 353 316 l 1
 283 75 l 2
 280 66 279 59 279 53 c 0xe8
EndSplineSet
EndChar

StartChar: lslash
Encoding: 322 322 343
Width: 231
VWidth: 0
Flags: W
HStem: -16 73<33.5029 125> 389 20G<212.286 256> 644 20G<202 258>
VStem: 17 246
DStem2: 17 295 17 261 0.901167 0.433473<-9.42068 70.6903 182.036 257.183>
LayerCount: 3
Back
SplineSet
17 261 m 5
 17 261 15 267 15 277 c 4
 15 286 17 295 17 295 c 5
 104 337 l 5
 135 451 164 558 164 586 c 4
 164 609 134 614 118 618 c 4
 110 620 108 625 108 630 c 4
 108 653 148 631 256 664 c 5
 260 663 263 658 263 654 c 5
 181 374 l 5
 254 409 l 5
 254 409 256 402 256 392 c 4
 256 380 254 375 254 375 c 5
 169 334 l 5
 130 198 99 82 99 69 c 4
 99 62 101 57 106 57 c 4
 144 57 182 136 193 136 c 4
 197 136 199 134 199 131 c 4
 199 90 103 -16 43 -16 c 4
 28 -16 21 -7 21 15 c 4
 21 39 58 168 94 298 c 5
 17 261 l 5
EndSplineSet
Fore
SplineSet
17 261 m 1
 17 261 15 267 15 277 c 0
 15 286 17 295 17 295 c 1
 104 337 l 1
 135 451 164 558 164 586 c 0
 164 609 134 614 118 618 c 0
 110 620 108 625 108 630 c 0
 108 653 148 631 256 664 c 1
 260 663 263 658 263 654 c 1
 181 374 l 1
 254 409 l 1
 254 409 256 402 256 392 c 0
 256 380 254 375 254 375 c 1
 169 334 l 1
 130 198 99 82 99 69 c 0
 99 62 101 57 106 57 c 0
 144 57 182 136 193 136 c 0
 197 136 199 134 199 131 c 0
 199 90 103 -16 43 -16 c 0
 28 -16 21 -7 21 15 c 0
 21 39 58 168 94 298 c 1
 17 261 l 1
EndSplineSet
EndChar

StartChar: Lslash
Encoding: 321 321 344
Width: 616
VWidth: 0
Flags: W
HStem: 0 28<194.285 421.094> 389 20G<400.194 468> 616 20G<155.5 398.5>
DStem2: 88.3004 0 176.3 0 0.241922 0.970296<77.7563 289.515 328.563 339.666 378.714 599.93> 90 295 90 260 0.956982 0.290149<-7.01286 61.0127 179.689 389.72>
LayerCount: 3
Back
SplineSet
156 636 m 5
 398 636 l 5
 399 634 401 630 401 626 c 4
 401 608 346 627 327 599 c 4
 320 588 318 573 315 561 c 6
 262 347 l 5
 466 409 l 5
 466 409 468 402 468 392 c 4
 468 380 466 374 466 374 c 5
 268 314 l 5
 253 309 l 5
 195 75 l 6
 193 66 192 60 192 54 c 4
 192 29 211 28 241 28 c 6
 324 28 l 6
 401 28 480 50 542 119 c 4
 562 141 566 145 573 145 c 4
 579 145 581 141 581 137 c 4
 581 133 579 128 578 125 c 6
 539 30 l 6
 527 1 522 0 503 0 c 6
 28 0 l 5
 27 2 25 6 25 10 c 4
 25 30 79 11 94 36 c 4
 98 44 102 56 107 75 c 6
 158 281 l 5
 90 260 l 5
 90 260 88 267 88 277 c 4
 88 286 90 295 90 295 c 5
 167 319 l 5
 227 561 l 6
 229 569 231 577 231 583 c 4
 231 632 154 604 154 626 c 4
 154 630 155 634 156 636 c 5
EndSplineSet
Fore
SplineSet
156 636 m 1
 398 636 l 1
 399 634 401 630 401 626 c 0
 401 608 346 627 327 599 c 0
 320 588 318 573 315 561 c 2
 262 347 l 1
 466 409 l 1
 466 409 468 402 468 392 c 0
 468 380 466 374 466 374 c 1
 253 309 l 1
 195 75 l 2
 193 66 192 60 192 54 c 0
 192 29 211 28 241 28 c 2
 324 28 l 2
 401 28 480 50 542 119 c 0
 562 141 566 145 573 145 c 0
 579 145 581 141 581 137 c 0
 581 133 579 128 578 125 c 2
 539 30 l 2
 527 1 522 0 503 0 c 2
 28 0 l 1
 27 2 25 6 25 10 c 0
 25 30 79 11 94 36 c 0
 98 44 102 56 107 75 c 2
 158 281 l 1
 90 260 l 1
 90 260 88 267 88 277 c 0
 88 286 90 295 90 295 c 1
 167 319 l 1
 227 561 l 2
 229 569 231 577 231 583 c 0
 231 632 154 604 154 626 c 0
 154 630 155 634 156 636 c 1
EndSplineSet
EndChar

StartChar: ldot
Encoding: 320 320 345
Width: 391
VWidth: 0
Flags: HW
HStem: 0 21G<16.5 214.5> 281 93<266.28 346.557> 644 20G<93.5 148.5>
VStem: 77 77<22.8749 595.22> 258 96<289.49 366.508>
AnchorPoint: "l;hi2" 10 670 basechar 0
AnchorPoint: "r;o" 391 200 basechar 0
AnchorPoint: "r;hi" 231 610 basechar 0
AnchorPoint: "r;x" 391 385 basechar 0
AnchorPoint: "r;bl" 231 10 basechar 0
AnchorPoint: "l;o" 10 200 basechar 0
AnchorPoint: "l;x" 20 385 basechar 0
AnchorPoint: "l;bl" 0 10 basechar 0
LayerCount: 3
Fore
SplineSet
77 62 m 2
 77 552 l 2
 77 623 16 584 16 609 c 0
 16 640 40 607 147 664 c 1
 150 664 155 662 156 658 c 0
 156 656 154 609 154 605 c 2
 154 62 l 2
 154 0 216 30 216 8 c 0
 216 5 215 2 214 0 c 1
 17 0 l 1
 16 2 15 5 15 8 c 0
 15 30 77 -2 77 62 c 2
304 374 m 0
 338 374 354 350 354 327 c 0
 354 304 339 281 308 281 c 0
 277 281 258 305 258 330 c 0
 258 350 271 374 304 374 c 0
EndSplineSet
EndChar

StartChar: kgreenlandic
Encoding: 312 312 346
Width: 377
VWidth: 0
Flags: W
HStem: 0 21G<16.5 66 219 346.5> 348 58<86.7762 160.651> 379 20G<279 310.5>
VStem: 95 80<303.249 388.788> 266 68<284.132 398.488>
DStem2: 9.8555 0 70.5228 0 0.241922 0.970296<9.31471 188.446 212.943 348.192>
LayerCount: 3
Back
SplineSet
274 398 m 4
 293.093027086 404.738715442 309 408 323 408 c 4
 353 408 369 390 369 350 c 4
 369 259 303 237 193 192 c 5
 267 38 260 24 323 20 c 4
 337 19 348 17 348 8 c 4
 348 5 347 2 346 0 c 5
 229 0 l 6
 209 0 212 3 134 173 c 5
 115 168 l 5
 79 34 l 6
 73 12 71 0 61 0 c 6
 20 0 l 6
 13 0 8 0 8 8 c 4
 8 12 26 74 49 157 c 6
 90 307 l 6
 93 319 95 330 95 338 c 4
 95 346 91 348 88 348 c 4
 71 348 45 319 33 304 c 4
 24 293 18 284 13 284 c 4
 10 284 5 286 5 294 c 4
 5 324 90 406 147 406 c 4
 169 406 175 392 175 378 c 4
 175 360 164 339 164 339 c 5
 203 366 242.093027086 386.738715442 274 398 c 4
120 192 m 5
 215 221 304 247 304 329 c 4
 304 357 293 368 271 368 c 4
 232 368 154 308 154 308 c 5
 120 192 l 5
EndSplineSet
Fore
SplineSet
348 8 m 0xb8
 348 5 347 2 346 0 c 1
 229 0 l 2
 209 0 212 3 134 173 c 1
 115 168 l 1
 79 34 l 2
 73 12 71 0 61 0 c 2
 20 0 l 2
 13 0 8 0 8 8 c 0
 8 12 26 74 49 157 c 2
 90 307 l 2
 93 319 95 330 95 338 c 0
 95 346 91 348 88 348 c 0
 71 348 45 319 33 304 c 0
 24 293 18 284 13 284 c 0
 10 284 5 286 5 294 c 0
 5 324 90 406 147 406 c 0xd8
 169 406 175 392 175 378 c 0
 175 360 168 356 120 192 c 1
 213 220 266 241 266 380 c 0
 266 390 271 399 287 399 c 2
 302 399 l 2
 319 399 334 397 334 367 c 0
 334 248 236 210 193 192 c 1
 242 91 256 50 277 33 c 0
 303 12 348 28 348 8 c 0xb8
EndSplineSet
EndChar

StartChar: uni0302.cap
Encoding: 65545 -1 347
Width: 0
Flags: W
HStem: 496 135
VStem: -348 234<502 509>
AnchorPoint: "top" -230 540 mark 0
LayerCount: 3
Fore
SplineSet
-231 562 m 1
 -303 514 -327 496 -337 496 c 0
 -340 496 -348 502 -348 505 c 0
 -348 509 -314 537 -249 629 c 1
 -249 629 -237 631 -230 631 c 0
 -226 631 -213 629 -213 629 c 1
 -148 537 -114 509 -114 505 c 0
 -114 502 -122 496 -125 496 c 0
 -135 496 -160 513 -231 562 c 1
EndSplineSet
Validated: 1
EndChar

StartChar: uni0237.ld
Encoding: 65546 -1 348
Width: 267
VWidth: 0
Flags: W
HStem: -282 30<-87.5 4.74858> 361 47<146.611 228.426>
VStem: 169 73<289.233 395.041>
AnchorPoint: "top" 205 540 basechar 0
LayerCount: 3
Fore
SplineSet
-98 -185 m 0
 -45 -185 -43 -252 -20 -252 c 0
 6 -252 23 -214 44 -142 c 0
 86 6 169 339 169 346 c 0
 169 355 165 361 156 361 c 0
 134 361 81 296 55 263 c 0
 46 252 41 245 35 245 c 0
 31 245 27 247 27 253 c 0
 27 276 123 408 215 408 c 0
 234 408 242 397 242 385 c 0
 242 364 173 103 124 -88 c 0
 103 -167 98 -207 21 -258 c 0
 -6 -276 -35 -282 -60 -282 c 0
 -115 -282 -141 -252 -141 -225 c 0
 -141 -201 -121 -185 -98 -185 c 0
EndSplineSet
EndChar

StartChar: uni030C.cap
Encoding: 65547 -1 352
Width: 0
Flags: W
HStem: 496 135
VStem: -348 234<618 625>
AnchorPoint: "top" -230 540 mark 0
LayerCount: 3
Fore
SplineSet
-231 565 m 5
 -159 613 -135 631 -125 631 c 4
 -122 631 -114 625 -114 622 c 4
 -114 618 -148 590 -213 498 c 5
 -213 498 -225 496 -232 496 c 4
 -236 496 -249 498 -249 498 c 5
 -314 590 -348 618 -348 622 c 4
 -348 625 -340 631 -337 631 c 4
 -327 631 -302 614 -231 565 c 5
EndSplineSet
Validated: 1
EndChar

StartChar: Iogonek
Encoding: 302 302 353
Width: 384
VWidth: 0
Flags: W
HStem: -222 34<43 123.911> 616 20G<140.5 379.5>
VStem: 3 66<-186.239 -96.0901>
DStem2: 17.9496 -222 105.95 -222 0.241922 0.970296<305.342 828.726>
LayerCount: 3
Fore
SplineSet
3 -165 m 0
 3 -100 59 -50 92 -20 c 0
 105 -8 114 -3 114 -1 c 0
 114 0 111 0 105 0 c 2
 13 0 l 1
 12 2 10 6 10 10 c 0
 10 26 49 17 69 29 c 0
 81 37 86 51 92 75 c 2
 212 561 l 2
 214 569 216 577 216 583 c 0
 216 632 139 604 139 626 c 0
 139 630 140 634 141 636 c 1
 379 636 l 1
 380 634 382 630 382 626 c 0
 382 606 331 625 314 601 c 0
 308 593 305 581 300 561 c 2
 180 75 l 2
 178 67 176 59 176 53 c 0
 176 4 253 32 253 10 c 0
 253 6 252 2 251 0 c 1
 177 0 l 2
 126 0 69 -81 69 -147 c 0
 69 -180 88 -188 100 -188 c 0
 123 -188 133 -172 142 -172 c 0
 146 -172 147 -174 147 -177 c 0
 147 -184 138 -197 121 -207 c 0
 107 -215 89 -222 67 -222 c 0
 19 -222 3 -188 3 -165 c 0
EndSplineSet
EndChar

StartChar: Ldot
Encoding: 319 319 362
Width: 616
VWidth: 0
Flags: HW
HStem: 0 34<210.528 484.967> 281 93<416.28 496.557> 616 20G<31.5 294.5>
VStem: 117 93<35.0577 605.2> 408 96<289.49 366.508>
AnchorPoint: "r;o" 616 200 basechar 0
AnchorPoint: "r;hi" 496 610 basechar 0
AnchorPoint: "r;x" 556 385 basechar 0
AnchorPoint: "r;bl" 596 10 basechar 0
AnchorPoint: "l;o" 20 200 basechar 0
AnchorPoint: "l;hi" 0 610 basechar 0
AnchorPoint: "l;x" 20 385 basechar 0
AnchorPoint: "l;bl" 0 10 basechar 0
LayerCount: 3
Fore
SplineSet
32 0 m 1
 31 2 30 6 30 10 c 0
 30 36 117 -1 117 75 c 2
 117 561 l 2
 117 637 30 600 30 626 c 0
 30 630 31 634 32 636 c 1
 294 636 l 1
 295 634 297 630 297 626 c 0
 297 599 210 639 210 561 c 2
 210 56 l 2
 210 45 217 34 235 34 c 2
 441 34 l 2
 482 34 490 45 557 168 c 0
 561 176 576 172 576 162 c 0
 576 160 576 138 564 80 c 0
 552 25 550 0 534 0 c 2
 32 0 l 1
454 374 m 0
 488 374 504 350 504 327 c 0
 504 304 489 281 458 281 c 0
 427 281 408 305 408 330 c 0
 408 350 421 374 454 374 c 0
EndSplineSet
EndChar

StartChar: uni0308.cap
Encoding: 65548 -1 365
Width: 0
VWidth: 0
Flags: W
HStem: 538 93<-348.72 -268.443 -188.72 -108.443>
VStem: -357 96<546.49 623.508> -197 96<546.49 623.508>
AnchorPoint: "top" -230 540 mark 0
LayerCount: 3
Fore
SplineSet
-151 631 m 0
 -117 631 -101 607 -101 584 c 0
 -101 561 -116 538 -147 538 c 0
 -178 538 -197 562 -197 587 c 0
 -197 607 -184 631 -151 631 c 0
-311 631 m 0
 -277 631 -261 607 -261 584 c 0
 -261 561 -276 538 -307 538 c 0
 -338 538 -357 562 -357 587 c 0
 -357 607 -344 631 -311 631 c 0
EndSplineSet
Validated: 1
EndChar

StartChar: uni0306.cap
Encoding: 65549 -1 366
Width: 0
Flags: W
HStem: 501 59<-295.799 -164.201>
VStem: -344 25<597.411 630.994> -141 25<597.411 630.994>
AnchorPoint: "top" -230 540 mark 0
LayerCount: 3
Fore
SplineSet
-230 560 m 0
 -149 560 -145 618 -141 629 c 1
 -141 629 -136 631 -129 631 c 0
 -122 631 -116 629 -116 629 c 1
 -116 628 l 2
 -116 614 -123 501 -230 501 c 0
 -337 501 -344 614 -344 628 c 2
 -344 629 l 1
 -344 629 -338 631 -331 631 c 0
 -324 631 -319 629 -319 629 c 1
 -315 618 -311 560 -230 560 c 0
EndSplineSet
Validated: 1
EndChar

StartChar: gravecomb.cap
Encoding: 65550 -1 367
Width: 0
VWidth: 0
Flags: W
HStem: 485 151
VStem: -337 131
AnchorPoint: "top" -230 540 mark 0
LayerCount: 3
Fore
SplineSet
-337 605 m 0
 -337 620 -323 636 -304 636 c 0
 -273 636 -259 590 -234 546 c 0
 -218 518 -206 501 -206 496 c 0
 -206 488 -212 485 -215 485 c 0
 -227 485 -236 493 -268 524 c 0
 -284 539 -337 574 -337 605 c 0
EndSplineSet
Validated: 1
EndChar

StartChar: acutecomb.cap
Encoding: 65551 -1 368
Width: 0
VWidth: 0
Flags: W
HStem: 485 151
VStem: -252 131
AnchorPoint: "top" -230 540 mark 0
LayerCount: 3
Fore
SplineSet
-121 605 m 4
 -121 574 -174 539 -190 524 c 4
 -222 493 -231 485 -243 485 c 4
 -246 485 -252 488 -252 496 c 4
 -252 501 -240 518 -224 546 c 4
 -199 590 -185 636 -154 636 c 4
 -135 636 -121 620 -121 605 c 4
EndSplineSet
Validated: 1
EndChar

StartChar: tildecomb.cap
Encoding: 65552 -1 369
Width: 996
VWidth: 0
Flags: W
HStem: 528 60<-219.524 -146.345> 571 60<-312.655 -238.356>
VStem: -352 245
AnchorPoint: "top" -230 540 mark 0
LayerCount: 3
Fore
SplineSet
-185 528 m 0xa0
 -223 528 -255 571 -291 571 c 0
 -321 571 -336 529 -336 529 c 1
 -339 529 -349 530 -352 532 c 1
 -352 532 -324 631 -274 631 c 0x60
 -236 631 -203 588 -168 588 c 0
 -138 588 -123 630 -123 630 c 1
 -120 630 -110 629 -107 627 c 1
 -107 627 -135 528 -185 528 c 0xa0
EndSplineSet
Validated: 1
EndChar

StartChar: uni030B.cap
Encoding: 65553 -1 371
Width: 0
VWidth: 0
Flags: W
HStem: 485 151
VStem: -325 271
AnchorPoint: "top" -230 540 mark 0
LayerCount: 3
Fore
SplineSet
-54 605 m 0
 -54 574 -107 539 -123 524 c 0
 -155 493 -164 485 -176 485 c 0
 -179 485 -185 488 -185 496 c 0
 -185 501 -173 518 -157 546 c 0
 -132 590 -118 636 -87 636 c 0
 -68 636 -54 620 -54 605 c 0
-194 605 m 0
 -194 574 -247 539 -263 524 c 0
 -295 493 -304 485 -316 485 c 0
 -319 485 -325 488 -325 496 c 0
 -325 501 -313 518 -297 546 c 0
 -272 590 -258 636 -227 636 c 0
 -208 636 -194 620 -194 605 c 0
EndSplineSet
Validated: 1
EndChar

StartChar: uni030A.cap
Encoding: 65554 -1 373
Width: 0
VWidth: 0
Flags: W
HStem: 475 37<-262.96 -193.617> 594 37<-263.634 -195.482>
VStem: -310 40<518.865 589.293> -188 40<516.58 587.673>
AnchorPoint: "top" -230 540 mark 0
LayerCount: 3
Fore
SplineSet
-231 631 m 0
 -174 631 -148 591 -148 552 c 0
 -148 513 -177 475 -227 475 c 0
 -277 475 -310 515 -310 557 c 0
 -310 591 -287 631 -231 631 c 0
-231 594 m 0
 -259 594 -270 572 -270 554 c 0
 -270 532 -254 512 -227 512 c 0
 -200 512 -188 532 -188 552 c 0
 -188 572 -202 594 -231 594 c 0
EndSplineSet
Validated: 1
EndChar

StartChar: uni0307.cap
Encoding: 65555 -1 374
Width: 0
VWidth: 0
Flags: W
HStem: 538 93<-268.72 -188.443>
VStem: -277 96<546.49 623.508>
AnchorPoint: "top" -230 540 mark 0
LayerCount: 3
Fore
SplineSet
-231 631 m 0
 -197 631 -181 607 -181 584 c 0
 -181 561 -196 538 -227 538 c 0
 -258 538 -277 562 -277 587 c 0
 -277 607 -264 631 -231 631 c 0
EndSplineSet
Validated: 1
EndChar

StartChar: uni0304.cap
Encoding: 65556 -1 376
Width: 824
VWidth: 0
Flags: W
HStem: 565 45<-346 -112>
VStem: -346 234<565 610>
AnchorPoint: "top" -230 540 mark 0
LayerCount: 3
Fore
SplineSet
-112 565 m 1
 -346 565 l 1
 -346 610 l 1
 -112 610 l 1
 -112 565 l 1
EndSplineSet
Validated: 1
EndChar

StartChar: uni0326
Encoding: 806 806 378
Width: 0
VWidth: 0
Flags: W
HStem: -270 21G<-261.5 -256.5> -138 76<-273.708 -210.103>
VStem: -209 40<-207.747 -114>
AnchorPoint: "cedilla" -230 -80 mark 0
LayerCount: 3
Fore
SplineSet
-169 -138 m 0
 -169 -186 -191 -215 -214 -240 c 0
 -240 -268 -255 -270 -258 -270 c 0
 -265 -270 -268 -267 -270 -260 c 0
 -273 -251 -269 -248 -261 -241 c 0
 -230 -216 -209 -186 -209 -162 c 0
 -209 -146 -218 -138 -242 -138 c 0
 -270 -138 -280 -124 -280 -106 c 0
 -280 -84 -264 -62 -230 -62 c 0
 -199 -62 -169 -90 -169 -138 c 0
EndSplineSet
Validated: 1
EndChar

StartChar: uni0327
Encoding: 807 807 386
Width: 0
VWidth: 0
Flags: W
HStem: -270 21G<-261.5 -256.5> -138 76<-273.708 -210.103>
VStem: -209 40<-207.747 -114>
AnchorPoint: "cedilla" -230 -80 mark 0
LayerCount: 3
Fore
SplineSet
-169 -138 m 4
 -169 -186 -191 -215 -214 -240 c 4
 -240 -268 -255 -270 -258 -270 c 4
 -265 -270 -268 -267 -270 -260 c 4
 -273 -251 -269 -248 -261 -241 c 4
 -230 -216 -209 -186 -209 -162 c 4
 -209 -146 -218 -138 -242 -138 c 4
 -270 -138 -280 -124 -280 -106 c 4
 -280 -84 -264 -62 -230 -62 c 4
 -199 -62 -169 -90 -169 -138 c 4
EndSplineSet
Validated: 1
EndChar

StartChar: uni0312
Encoding: 786 786 394
Width: 0
VWidth: 0
Flags: W
HStem: 454 76<-249.897 -186.292> 642 20G<-203.5 -198.5>
VStem: -291 40<506 599.747>
AnchorPoint: "top" -230 540 mark 0
LayerCount: 3
Fore
SplineSet
-291 530 m 0
 -291 578 -269 607 -246 632 c 0
 -220 660 -205 662 -202 662 c 0
 -195 662 -192 659 -190 652 c 0
 -187 643 -191 640 -199 633 c 0
 -230 608 -251 578 -251 554 c 0
 -251 538 -242 530 -218 530 c 0
 -190 530 -180 516 -180 498 c 0
 -180 476 -196 454 -230 454 c 0
 -261 454 -291 482 -291 530 c 0
EndSplineSet
Validated: 1
EndChar

StartChar: Oslash
Encoding: 216 216 398
Width: 652
VWidth: 0
Flags: W
HStem: -21 32<193.583 307.213> 623 29<331.7 444.831>
VStem: 39 86<116.716 319.68> 515 88<306.274 507.917>
DStem2: 28 -49 54 -66 0.602721 0.797952<-0.907589 118.506 184.201 748.909 811.006 884.72>
LayerCount: 3
Fore
SplineSet
384 623 m 0
 247 623 125 342 125 187 c 0
 125 151 130 122 139 98 c 1
 490 563 l 1
 469 600 435 623 384 623 c 0
102 49 m 1
 59 97 39 165 39 239 c 0
 39 424 164 652 367 652 c 0
 426 652 478 632 517 598 c 1
 559 654 l 1
 571 652 579 644 585 637 c 1
 539 577 l 1
 579 531 603 468 603 397 c 0
 603 190 463 -21 272 -21 c 0
 210 -21 161 -3 124 27 c 1
 54 -66 l 1
 44 -63 35 -57 28 -49 c 1
 102 49 l 1
504 530 m 1
 154 66 l 1
 179 27 216 11 249 11 c 0
 390 11 515 266 515 447 c 0
 515 477 512 505 504 530 c 1
EndSplineSet
EndChar

StartChar: uni0308.narrow
Encoding: 65557 -1 399
Width: 0
VWidth: 0
Flags: W
HStem: 568 93<-348.72 -268.443 -218.72 -138.443>
VStem: -357 96<576.49 653.508> -227 96<576.49 653.508>
AnchorPoint: "top" -230 540 mark 0
LayerCount: 3
Fore
SplineSet
-181 661 m 0
 -147 661 -131 637 -131 614 c 0
 -131 591 -146 568 -177 568 c 0
 -208 568 -227 592 -227 617 c 0
 -227 637 -214 661 -181 661 c 0
-311 661 m 0
 -277 661 -261 637 -261 614 c 0
 -261 591 -276 568 -307 568 c 0
 -338 568 -357 592 -357 617 c 0
 -357 637 -344 661 -311 661 c 0
EndSplineSet
Validated: 1
EndChar

StartChar: uni0315
Encoding: 789 789 400
Width: 0
VWidth: 0
Flags: W
HStem: 454 208.086<-202.129 -199>
VStem: -211 71.3037<562.735 652.587>
AnchorPoint: "commaright" -230 540 mark 0
LayerCount: 3
Fore
SplineSet
-169.274414062 662.0859375 m 0
 -156.012695312 662.0859375 -139.696289062 656.364257812 -139.696289062 633.477539062 c 0
 -139.696289062 617.182617188 -148.909179688 591.439453125 -166 552 c 0
 -192 492 -199 454 -207 454 c 0
 -220 454 -222 460 -222 462 c 0
 -222 467 -216 505 -211 561 c 0
 -207.088867188 606.959960938 -202.12890625 662.0859375 -169.274414062 662.0859375 c 0
EndSplineSet
Validated: 1
EndChar

StartChar: periodcentered
Encoding: 183 183 404
Width: 244
VWidth: 0
Flags: W
HStem: 281 93<82.2803 162.557>
VStem: 74 96<289.49 366.508>
LayerCount: 3
Fore
SplineSet
120 374 m 0
 154 374 170 350 170 327 c 0
 170 304 155 281 124 281 c 0
 93 281 74 305 74 330 c 0
 74 350 87 374 120 374 c 0
EndSplineSet
Validated: 1
EndChar

StartChar: degree
Encoding: 176 176 405
Width: 354
VWidth: 0
Flags: W
HStem: 474 37<131.344 214.241> 628 36<129.879 209.756>
VStem: 73 42<524.677 616.325> 227 42<521.025 614.294>
LayerCount: 3
Fore
SplineSet
169 664 m 0
 238 664 269 614 269 567 c 0
 269 520 233 474 173 474 c 0
 113 474 73 522 73 573 c 0
 73 614 101 664 169 664 c 0
168 628 m 0
 130 628 115 593 115 569 c 0
 115 539 137 511 174 511 c 0
 211 511 227 539 227 567 c 0
 227 595 208 628 168 628 c 0
EndSplineSet
Validated: 1
EndChar

StartChar: eng
Encoding: 331 331 406
Width: 486
VWidth: 0
Flags: W
HStem: -224 29<93.5 182.21> 0 21G<52 108.5> 369 30<119.637 200.923 309.571 410.205>
VStem: 387 68<279.33 369.453>
LayerCount: 3
Fore
SplineSet
387 345 m 0
 387 364 360 374 345 374 c 0
 315 374 295 336 275 304 c 0
 182 152 182 160 134 52 c 0
 112 2 115 0 102 0 c 2
 54 0 l 2
 50 0 48 2 48 7 c 0
 48 18 60 45 80 98 c 0
 115 191 158 311 165 354 c 0
 167 365 161 369 150 369 c 0
 131 369 97 356 76 327 c 0
 53 297 53 259 36 259 c 0
 31 259 29 263 29 272 c 0
 29 323 64 399 222 399 c 0
 234 399 237 394 237 388 c 0
 237 353 172 205 172 194 c 0
 172 193 172 192 173 192 c 0
 180 192 259 336 287 368 c 0
 303 386 327 404 384 404 c 0
 436 404 455 386 455 352 c 0
 455 333 452 319 447 304 c 0
 283 -143 300 -92 266 -140 c 0
 249 -164 195 -224 121 -224 c 0
 66 -224 40 -193 40 -166 c 0
 40 -142 60 -126 83 -126 c 0
 136 -126 122 -195 157 -195 c 0
 178 -195 190.260457827 -189.486796569 238 -64 c 2
 378 304 l 2
 384 319 387 331 387 345 c 0
EndSplineSet
AlternateSubs2: "'aalt' Access All Alternates lookup 0 subtable" eng.ld
AlternateSubs2: "'aalt' Access All Alternates in Latin lookup 0 subtable" eng.ld
Substitution2: "'ss01' Style Set 1 in Latin lookup 1 subtable" eng.ld
EndChar

StartChar: Eng
Encoding: 330 330 407
Width: 786
VWidth: 0
Flags: W
HStem: -224 29<338.5 427.168> 0 21G<24.5 279.5> 613 23<763.139 830.793>
LayerCount: 3
Fore
SplineSet
511 -140 m 0
 494 -164 440 -224 366 -224 c 0
 311 -224 285 -193 285 -166 c 0
 285 -142 305 -126 328 -126 c 0
 381 -126 367 -195 402 -195 c 0
 423 -195 435 -189 483 -64 c 2
 513 14 l 2
 518 27 522 36 522 46 c 0
 522 57 518 69 507 88 c 2
 290 484 l 2
 280 503 278 506 275 506 c 0
 272 506 271 500 262 473 c 0
 232 380 174 165 174 88 c 0
 174 58 181 43 195 34 c 0
 226 15 281 30 281 10 c 0
 281 6 280 2 279 0 c 1
 25 0 l 1
 24 2 22 6 22 10 c 0
 22 25 51 20 71 26 c 0
 96 33 109 51 121 83 c 0
 149 158 190 341 223 447 c 0
 239 498 252 540 252 550 c 0
 252 555 250 559 247 565 c 2
 241 575 l 2
 236 584 231 591 227 597 c 0
 204 626 144 606 144 626 c 0
 144 630 146 634 147 636 c 1
 279 636 l 2
 308 636 314 633 328 607 c 0
 584 143 583 139 588 139 c 0
 593 139 629 231 680 446 c 0
 691 493 695 529 695 556 c 0
 695 582 687 599 664 607 c 0
 634 618 596 609 596 626 c 0
 596 630 597 634 598 636 c 1
 828 636 l 1
 829 634 831 630 831 626 c 0
 831 615 813 616 794 613 c 0
 756 608 749 592 732 530 c 0
 681 337 689 355 654 238 c 0
 563 -67 552 -84 511 -140 c 0
EndSplineSet
Layer: 2
SplineSet
507 88 m 2
 290 484 l 2
 280 503 278 506 275 506 c 0
 272 506 271 500 262 473 c 0
 232 380 174 165 174 88 c 0
 174 58 181 43 195 34 c 0
 226 15 281 30 281 10 c 0
 281 6 280 2 279 0 c 1
 25 0 l 1
 24 2 22 6 22 10 c 0
 22 25 51 20 71 26 c 0
 96 33 109 51 121 83 c 0
 149 158 190 341 223 447 c 0
 239 498 252 540 252 550 c 0
 252 555 250 559 247 565 c 2
 241 575 l 2
 236 584 231 591 227 597 c 0
 204 626 144 606 144 626 c 0
 144 630 146 634 147 636 c 1
 279 636 l 2
 308 636 314 633 328 607 c 0
 584 143 583 139 588 139 c 0
 593 139 629 231 680 446 c 0
 691 493 695 529 695 556 c 0
 695 582 687 599 664 607 c 0
 634 618 596 609 596 626 c 0
 596 630 597 634 598 636 c 1
 828 636 l 1
 829 634 831 630 831 626 c 0
 831 615 813 616 794 613 c 0
 756 608 749 592 732 530 c 0
 681 337 688 355 654 238 c 0
 612 95 627 138 605 75 c 24
 581 4 568 -59 536 -104 c 0
 480 -183 397 -188 378 -188 c 2
 374 -188 l 1
 374 -188 368 -177 368 -168 c 0
 368 -163 369 -159 372 -154 c 1
 428.031056871 -147.300634505 452.1628672 -140.230347538 471.503851065 -98 c 0
 471.504494374 -97.9985953581 517.650727706 -23.3286339617 517.650727706 41.5051718248 c 0
 517.650727706 58.124172398 514.618631117 74.0968759341 507 88 c 2
511 -140 m 4
 494 -164 440 -224 366 -224 c 4
 311 -224 285 -193 285 -166 c 4
 285 -142 305 -126 328 -126 c 4
 381 -126 367 -195 402 -195 c 4
 423 -195 435 -189 483 -64 c 6
 513 14 l 6
 518 27 522 36 522 46 c 4
 522 57 518 69 507 88 c 6
 290 484 l 6
 280 503 278 506 275 506 c 4
 272 506 271 500 262 473 c 4
 232 380 174 165 174 88 c 4
 174 58 181 43 195 34 c 4
 226 15 281 30 281 10 c 4
 281 6 280 2 279 0 c 5
 25 0 l 5
 24 2 22 6 22 10 c 4
 22 25 51 20 71 26 c 4
 96 33 109 51 121 83 c 4
 149 158 190 341 223 447 c 4
 239 498 252 540 252 550 c 4
 252 555 250 559 247 565 c 6
 241 575 l 6
 236 584 231 591 227 597 c 4
 204 626 144 606 144 626 c 4
 144 630 146 634 147 636 c 5
 279 636 l 6
 308 636 314 633 328 607 c 4
 584 143 583 139 588 139 c 4
 593 139 629 231 680 446 c 4
 691 493 695 529 695 556 c 4
 695 582 687 599 664 607 c 4
 634 618 596 609 596 626 c 4
 596 630 597 634 598 636 c 5
 828 636 l 5
 829 634 831 630 831 626 c 4
 831 615 813 616 794 613 c 4
 756 608 749 592 732 530 c 4
 681 337 689 355 654 238 c 4
 563 -67 552 -84 511 -140 c 4
EndSplineSet
AlternateSubs2: "'aalt' Access All Alternates lookup 0 subtable" Eng.ld
AlternateSubs2: "'aalt' Access All Alternates in Latin lookup 0 subtable" Eng.ld
Substitution2: "'ss01' Style Set 1 in Latin lookup 1 subtable" Eng.ld
EndChar

StartChar: aogonek
Encoding: 261 261 408
Width: 384
VWidth: 0
Flags: W
HStem: -222 34<148 228.911> -13 63<40 107.946> 350 54<173.632 231.562>
VStem: 9 68<51.0185 162.276> 109 66<-186.53 -108.117> 294 62<370.375 404>
LayerCount: 3
Back
SplineSet
205 -188 m 4
 233.46875 -188 240.202148438 -172 247 -172 c 4
 253 -172 253 -177 253 -178 c 4
 253 -197 213 -222 172 -222 c 4
 122 -222 115 -178 115 -159 c 4
 115 -98 216 -27 236 -10 c 5
 229 -12 223 -13 217 -13 c 4
 206 -13 196 -9 196 13 c 4
 196 37 224 143 229 170 c 4
 231 182 227 174 224 169 c 4
 202 134 135 -13 52 -13 c 4
 28 -13 9 7 9 54 c 4
 9 197 149 404 220 404 c 4
 265 404 265 315 270 315 c 4
 271 315 273 323 278 340 c 6
 294 394 l 6
 297 403 303 404 313 404 c 6
 336 404 l 6
 346 404 356 403 356 395 c 4
 356 383 315 268 288 172 c 4
 282 150 265 82 265 60 c 4
 265 48 269 44 275 44 c 4
 293 44 328 83 336 83 c 4
 340 83 342 79 342 77 c 4
 342 68 326 46 282 13 c 4
 201 -47 176 -108 176 -140 c 4
 176 -177 194 -188 205 -188 c 4
197 350 m 4
 141 350 77 183 77 98 c 4
 77 69 85 50 102 50 c 4
 135 50 200 172 214 200 c 4
 231 235 245 267 245 290 c 4
 245 325 216 350 197 350 c 4
EndSplineSet
Fore
SplineSet
175 -147 m 4
 175 -180 193 -188 205 -188 c 4
 228 -188 238 -172 247 -172 c 4
 251 -172 252 -174 252 -177 c 4
 252 -184 243 -197 226 -207 c 4
 212 -215 194 -222 172 -222 c 4
 124 -222 109 -188 109 -166 c 4
 109 -136 131 -93 194 -39 c 4
 204 -30 214 -22 220 -18 c 4
 227 -14 222 -13 217 -13 c 4
 206 -13 196 -9 196 13 c 4
 196 37 224 143 229 170 c 0
 231 182 227 174 224 169 c 0
 202 134 135 -13 52 -13 c 0
 28 -13 9 7 9 54 c 0
 9 197 149 404 220 404 c 0
 265 404 265 315 270 315 c 0
 271 315 273 323 278 340 c 2
 294 394 l 2
 297 403 303 404 313 404 c 2
 336 404 l 2
 346 404 356 403 356 395 c 0
 356 383 315 268 288 172 c 0
 282 150 265 82 265 60 c 0
 265 48 269 44 275 44 c 0
 293 44 328 83 336 83 c 0
 340 83 342 79 342 77 c 0
 342 68 326 46 282 13 c 4
 265 1 175 -81 175 -147 c 4
197 350 m 0
 141 350 77 183 77 98 c 0
 77 69 85 50 102 50 c 0
 135 50 200 172 214 200 c 0
 231 235 245 267 245 290 c 0
 245 325 216 350 197 350 c 0
EndSplineSet
EndChar

StartChar: Eng.ld
Encoding: 65565 -1 409
Width: 786
VWidth: 0
Flags: W
HStem: -282 30<300.5 397.918> 0 21G<24.5 279.5> 613 23<763.139 830.793>
LayerCount: 3
Fore
SplineSet
513 14 m 0
 518 27 522 36 522 46 c 0
 522 57 518 69 507 88 c 2
 290 484 l 2
 280 503 278 506 275 506 c 0
 272 506 271 500 262 473 c 0
 232 380 174 165 174 88 c 0
 174 58 181 43 195 34 c 0
 226 15 281 30 281 10 c 0
 281 6 280 2 279 0 c 1
 25 0 l 1
 24 2 22 6 22 10 c 0
 22 25 51 20 71 26 c 0
 96 33 109 51 121 83 c 0
 149 158 190 341 223 447 c 0
 239 498 252 540 252 550 c 0
 252 555 250 559 247 565 c 2
 241 575 l 2
 236 584 231 591 227 597 c 0
 204 626 144 606 144 626 c 0
 144 630 146 634 147 636 c 1
 279 636 l 2
 308 636 314 633 328 607 c 0
 584 143 583 139 588 139 c 0
 593 139 629 231 680 446 c 0
 691 493 695 529 695 556 c 0
 695 582 687 599 664 607 c 0
 634 618 596 609 596 626 c 0
 596 630 597 634 598 636 c 1
 828 636 l 1
 829 634 831 630 831 626 c 0
 831 615 813 616 794 613 c 0
 756 608 749 592 732 530 c 0
 681 337 691 354 654 238 c 2
 585 24 l 2
 531 -145 513 -182 443 -240 c 0
 398 -277 348 -282 328 -282 c 0
 273 -282 247 -252 247 -225 c 0
 247 -201 267 -185 290 -185 c 0
 343 -185 345 -252 368 -252 c 0
 397 -252 421 -232 513 14 c 0
EndSplineSet
EndChar

StartChar: eng.ld
Encoding: 65566 -1 410
Width: 486
VWidth: 0
Flags: W
HStem: -282 30<57.5 154.444> 0 21G<52 108.5> 369 30<119.637 200.923 309.571 410.205>
VStem: 387 68<274.4 369.453>
LayerCount: 3
Fore
SplineSet
378 304 m 12
 384 319 387 331 387 345 c 0
 387 364 360 374 345 374 c 0
 315 374 295 336 275 304 c 0
 182 152 182 160 134 52 c 0
 112 2 115 0 102 0 c 2
 54 0 l 2
 50 0 48 2 48 7 c 0
 48 18 60 45 80 98 c 0
 115 191 158 311 165 354 c 0
 167 365 161 369 150 369 c 0
 131 369 97 356 76 327 c 0
 53 297 53 259 36 259 c 0
 31 259 29 263 29 272 c 0
 29 323 64 399 222 399 c 0
 234 399 237 394 237 388 c 0
 237 353 172 205 172 194 c 0
 172 193 172 192 173 192 c 0
 180 192 259 336 287 368 c 0
 303 386 327 404 384 404 c 0
 436 404 455 386 455 352 c 0
 455 322 446 300 437 277 c 6
 342 24 l 6
 280 -142 270 -182 200 -240 c 4
 155 -277 105 -282 85 -282 c 4
 30 -282 4 -252 4 -225 c 4
 4 -201 24 -185 47 -185 c 4
 100 -185 102 -252 125 -252 c 4
 163 -252 186 -222 378 304 c 12
EndSplineSet
EndChar

StartChar: Aogonek
Encoding: 260 260 411
Width: 720
VWidth: 0
Flags: W
HStem: -222 34<333 413.911> 0 21G<12.5 252.5> 257 36<334.004 509.001> 560 89<550.5 635.52>
VStem: 293 66<-186.425 -106.626>
LayerCount: 3
Back
SplineSet
628 649 m 4
 647 649 648 644 648 625 c 4
 648 595 581 168 581 69 c 4
 581 53 584 42 589 36 c 4
 604 16 663 30 663 10 c 4
 663 6 662 2 661 0 c 5
 392 0 l 5
 391 2 389 6 389 10 c 4
 389 31 444 15 463 34 c 4
 471 42 475 55 479 76 c 4
 488 117 502 192 509 235 c 4
 511 249 506 257 500 257 c 6
 317 257 l 6
 305 257 292 255 283 241 c 6
 177 90 l 6
 160 65 150 47 150 38 c 4
 150 13 254 34 254 10 c 4
 254 6 253 2 252 0 c 5
 13 0 l 5
 12 2 10 6 10 10 c 4
 10 30 40 10 80 44 c 4
 113 72 149 124 193 181 c 4
 263 272 368 407 457 509 c 4
 554 621 594 649 628 649 c 4
EndSplineSet
Fore
SplineSet
628 649 m 0
 647 649 648 644 648 625 c 0
 648 595 581 168 581 69 c 0
 581 53 584 42 589 36 c 0
 604 16 663 30 663 10 c 0
 663 6 662 2 661 0 c 1
 514 0 l 2
 462 0 421 -25 383 -77 c 4
 367 -99 359 -124 359 -147 c 4
 359 -180 378 -188 390 -188 c 4
 413 -188 423 -172 432 -172 c 4
 436 -172 437 -174 437 -177 c 4
 437 -184 428 -197 411 -207 c 4
 397 -215 379 -222 357 -222 c 4
 309 -222 293 -188 293 -166 c 4
 293 -70 460 -7 479 76 c 0
 489 117 502 192 509 235 c 0
 511 249 506 257 500 257 c 2
 317 257 l 2
 305 257 292 255 283 241 c 2
 177 90 l 2
 160 65 150 47 150 38 c 0
 150 13 254 34 254 10 c 0
 254 6 253 2 252 0 c 1
 13 0 l 1
 12 2 10 6 10 10 c 0
 10 30 40 10 80 44 c 0
 113 72 149 124 193 181 c 0
 263 272 368 407 457 509 c 0
 554 621 594 649 628 649 c 0
334 298 m 0
 334 293 340 293 347 293 c 2
 502 293 l 2
 520 293 523 328 527 347 c 2
 551 484 l 2
 557 517 561 537 561 548 c 0
 561 557 559 560 554 560 c 0
 547 560 534 549 525 538 c 0
 508 519 477 481 380 364 c 0
 347 324 334 303 334 298 c 0
EndSplineSet
EndChar

StartChar: eogonek
Encoding: 281 281 412
Width: 323
VWidth: 0
Flags: W
HStem: -222 34<27 107.911> 375 27<207.322 282.5>
VStem: -12 66<-186.53 -108.656> 15 73<34.7589 185.708> 251 66<293.21 374.876>
LayerCount: 3
Back
SplineSet
15 79 m 4
 15 194 121 402 259 402 c 4
 306 402 317 368 317 347 c 4
 317 273 204 223 106 187 c 5
 104 182 88 129 88 87 c 4
 88 51 100 32 120 32 c 4
 144 32 179 60 212 107 c 4
 218 116 224 125 232 125 c 4
 236 125 240 122 240 116 c 4
 240 108 210 46 160 12 c 4
 141 -2 54 -82 54 -147 c 4
 54 -180 72 -188 84 -188 c 4
 107 -188 117 -172 126 -172 c 4
 130 -172 131 -174 131 -177 c 4
 131 -184 122 -197 105 -207 c 4
 91 -215 73 -222 51 -222 c 4
 3 -222 -12 -188 -12 -166 c 4
 -12 -117.282772626 45.4572812177 -57.3362973165 99.6397819168 -18.0000014063 c 4
 114 -8 l 5
 106 -10 98 -11 90 -11 c 4
 40 -11 15 28 15 79 c 4
232 375 m 4
 205 375 152 310 114 209 c 5
 226 255 251 322 251 350 c 4
 251 366 244 375 232 375 c 4
EndSplineSet
Fore
SplineSet
15 79 m 0xd8
 15 194 121 402 259 402 c 0
 306 402 317 368 317 347 c 0
 317 273 204 223 106 187 c 1
 104 182 88 129 88 87 c 0xd8
 88 51 100 32 120 32 c 0
 144 32 179 60 212 107 c 0
 218 116 224 125 232 125 c 0
 236 125 240 122 240 116 c 0
 240 108 210 46 160 12 c 0
 141 -2 54 -82 54 -147 c 0
 54 -180 72 -188 84 -188 c 0
 107 -188 117 -172 126 -172 c 0
 130 -172 131 -174 131 -177 c 0
 131 -184 122 -197 105 -207 c 0
 91 -215 73 -222 51 -222 c 0
 3 -222 -12 -188 -12 -166 c 0xe8
 -12 -117 46 -57 100 -18 c 0
 111 -10 105 -11 90 -11 c 0
 40 -11 15 28 15 79 c 0xd8
232 375 m 0
 205 375 152 310 114 209 c 1
 226 255 251 322 251 350 c 0
 251 366 244 375 232 375 c 0
EndSplineSet
EndChar

StartChar: Eogonek
Encoding: 280 280 413
Width: 634
VWidth: 0
Flags: W
HStem: -222 34<313 393.911> 0 27<197.646 410.559> 330 21<271.311 379.483> 609 27<331.313 517.078>
VStem: 273 66<-186.239 -101.749> 412 27<219.04 302.845>
DStem2: 38.9496 -222 126.95 -222 0.241922 0.970296<300.58 595.401 618.122 828.726>
LayerCount: 3
Fore
SplineSet
405 0 m 4
 281.333333333 0 157.666666667 0 34 0 c 1
 33 2 31 6 31 10 c 0
 31 30 85 11 100 36 c 0
 104 44 108 56 113 75 c 2
 233 561 l 2
 235 569 237 577 237 583 c 0
 237 632 160 604 160 626 c 0
 160 630 161 634 162 636 c 1
 490 636 l 2
 538 636 575 640 585 640 c 0
 601 640 600 638 604 588 c 0
 608 543 614 518 614 505 c 0
 614 496 611 494 603 494 c 0
 592 494 583 521 556 562 c 0
 529 603 490 609 409 609 c 2
 359 609 l 2
 329 609 329 593 321 561 c 2
 275 375 l 2
 273 366 271 361 271 357 c 0
 271 352 276 351 293 351 c 2
 361 351 l 2
 468 351 436 439 467 439 c 0
 475 439 477 434 477 429 c 0
 477 411 469 410 439 241 c 0
 436 225 438 219 424 219 c 0
 413 219 412 225 412 235 c 2
 412 245 l 2
 412 282 408 330 336 330 c 2
 297 330 l 2
 262 330 263 326 259 308 c 2
 201 75 l 2
 198 65 197 56 197 48 c 0
 197 31 204 27 223 27 c 2
 369 27 l 2
 441 27 493 94 544 157 c 0
 548 162 552 162 555 162 c 0
 561 162 566 156 566 153 c 0
 566 147 550 101 540 61 c 0
 528 9 536 0 505 -0 c 2
 484 0 l 6
 459 0 413 -8 363 -77 c 4
 347 -99 339 -124 339 -147 c 4
 339 -180 358 -188 370 -188 c 4
 393 -188 403 -172 412 -172 c 4
 416 -172 417 -174 417 -177 c 4
 417 -184 408 -197 391 -207 c 4
 377 -215 359 -222 337 -222 c 4
 289 -222 273 -188 273 -165 c 4
 273 -100 345 -44 394 -14 c 4
 406 -6 412 -3 412 -1 c 4
 412 0 409 0 405 0 c 4
EndSplineSet
EndChar

StartChar: Uogonek
Encoding: 370 370 414
Width: 698
VWidth: 0
Flags: W
HStem: -222 34<228.5 308.911> -22 62<189.443 278.993> 616 20G<67.5 324.5 497.5 713.5>
VStem: 50 88<88.3198 284.984> 188 66<-186.086 -93.0408> 582 134<536.5 632>
LayerCount: 3
Fore
SplineSet
293 40 m 0
 496 40 513 201 571 459 c 0
 580 498 582 524 582 549 c 0
 582 634 496 604 496 626 c 0
 496 630 497 634 498 636 c 1
 713 636 l 1
 714 634 716 630 716 626 c 0
 716 600 668 637 636 576 c 0
 606 520 564 235 514 132 c 0
 474 51 396 -4 318 -18 c 1
 283 -46 254 -100 254 -147 c 0
 254 -180 273 -188 285 -188 c 0
 308 -188 318 -172 327 -172 c 0
 331 -172 332 -174 332 -177 c 0
 332 -184 323 -197 306 -207 c 0
 292 -215 274 -222 252 -222 c 0
 205 -222 188 -189 188 -163 c 0
 188 -107 227 -65 266 -34 c 0
 277 -25 279 -25 279 -24 c 0
 279 -22 269 -22 254 -22 c 0
 82 -17 50 80 50 145 c 0
 50 193 64 247 75 302 c 0
 96 406 120 487 133 536 c 0
 139 560 143 576 143 583 c 0
 143 632 66 604 66 626 c 0
 66 630 67 634 68 636 c 1
 324 636 l 1
 325 634 327 630 327 626 c 0
 327 606 269 621 246 605 c 0
 234 597 231 577 227 561 c 0
 147 243 138 196 138 156 c 0
 138 63 215 40 293 40 c 0
EndSplineSet
EndChar

StartChar: uogonek
Encoding: 371 371 415
Width: 454
VWidth: 0
Flags: W
HStem: -222 34<228 308.911> -13 39<74.591 150.123> 369 30<96.7597 197>
VStem: 17 23<254.976 309.122> 32 71<26.2255 133.103> 145 79<317.881 390.311> 189 66<-186.53 -108.031>
LayerCount: 3
Back
SplineSet
362 13 m 5
 345 1 255 -81 255 -147 c 4
 255 -180 273 -188 285 -188 c 4
 308 -188 318 -172 327 -172 c 4
 331 -172 332 -174 332 -177 c 4
 332 -184 323 -197 306 -207 c 4
 292 -215 274 -222 252 -222 c 4
 204 -222 189 -188 189 -166 c 4
 189 -136 211 -93 274 -39 c 4
 281.926080444 -31.8665276007 303.673166151 -15.3096425214 315.340208086 -6.75714747387 c 5
 301.421204505 -10.705959653 286.600603025 -13.0000335779 271 -13 c 4
 257 -13 252 -5 252 8 c 4
 252 40 285 110 300 156 c 5
 300 156 310 181 307 181 c 4
 300 181 202 -13 86 -13 c 4
 46 -13 32 8 32 41 c 4
 32 132 145 306 145 361 c 4
 145 366 141 369 134 369 c 4
 115 369 63 352 40 283 c 4
 35 268 36 254 24 254 c 4
 19 254 17 263 17 272 c 4
 17 320 50 399 182 399 c 4
 212 399 224 399 224 382 c 4
 224 338 103 125 103 50 c 4
 103 35 108 26 120 26 c 4
 135 26 159 38 184 62 c 4
 302 176 364 376 373 390 c 4
 378 398 380 399 415 399 c 4
 439 399 441 397 441 392 c 4
 441 371 328 87 328 45 c 4
 328 36 332 32 337 32 c 4
 366 32 429 111 436 111 c 4
 442 111 443 105 443 103 c 4
 443 93.3969617413 418.144274523 53.5347794237 376.000003727 23.1951996998 c 4
 370.274616344 19.0735043021 364.230155179 15.1275560685 357.885593106 11.4570980954 c 5
 362 13 l 5
EndSplineSet
Fore
SplineSet
334 -12 m 0xec
 302 -44 255 -100 255 -147 c 0
 255 -180 273 -188 285 -188 c 0
 308 -188 318 -172 327 -172 c 0
 331 -172 332 -174 332 -177 c 0
 332 -184 323 -197 306 -207 c 0
 292 -215 274 -222 252 -222 c 0
 204 -222 189 -188 189 -166 c 0
 189 -92 309 -15 309 -10 c 0
 309 -7 295 -13 271 -13 c 0
 257 -13 252 -5 252 8 c 0
 252 40 285 110 300 156 c 1
 300 156 310 181 307 181 c 0
 300 181 202 -13 86 -13 c 0
 46 -13 32 8 32 41 c 0xea
 32 132 145 306 145 361 c 0
 145 366 141 369 134 369 c 0
 115 369 63 352 40 283 c 0
 35 268 36 254 24 254 c 0
 19 254 17 263 17 272 c 0xf4
 17 320 50 399 182 399 c 0
 212 399 224 399 224 382 c 0
 224 338 103 125 103 50 c 0
 103 35 108 26 120 26 c 0
 135 26 159 38 184 62 c 0
 302 176 364 376 373 390 c 0
 378 398 380 399 415 399 c 0
 439 399 441 397 441 392 c 0
 441 371 328 87 328 45 c 0
 328 36 332 32 337 32 c 0
 366 32 429 111 436 111 c 0
 442 111 443 105 443 103 c 0
 443 93 418 53 376 23 c 0
 367 16 353 7 334 -12 c 0xec
EndSplineSet
EndChar

StartChar: iogonek.dotless
Encoding: 65567 -1 416
Width: 231
VWidth: 0
Flags: HWO
HStem: -222 34<-2 78.9105> 348 58<112.776 186.761>
VStem: -41 66<-186.53 -107.685> 31 80<3.01952 112.056> 121 80<288.32 388.788>
AnchorPoint: "top" 175 540 basechar 0
LayerCount: 3
Back
SplineSet
132 23 m 5
 115 11 25 -81 25 -147 c 4
 25 -180 43 -188 55 -188 c 4
 78 -188 88 -172 97 -172 c 4
 101 -172 102 -174 102 -177 c 4
 102 -184 93 -197 76 -207 c 4
 62 -215 44 -222 22 -222 c 4
 -26 -222 -41 -188 -41 -166 c 4
 -41 -112.906629711 20.1166637023 -59.7760425322 67.3117878735 -18.0000025201 c 4
 78.6408086801 -7.92144281937 l 5
 73.5036352217 -9.84239844147 68.5912966468 -11.2690284933 64.0000009874 -12.1132498429 c 4
 60.8371658426 -12.6948139922 57.8266818285 -12.9999957013 55 -13 c 4
 40 -13 31 -5 31 16 c 4
 31 90 121 280 121 338 c 4
 121 346 117 348 114 348 c 4
 97 348 71 319 59 304 c 4
 50 293 44 284 39 284 c 4
 36 284 31 286 31 294 c 4
 31 324 116 406 173 406 c 4
 195 406 201 392 201 378 c 4
 201 322 111 103 111 65 c 4
 111 57 113 53 118 53 c 4
 125 53 137 61 151 75 c 4
 175 97 187 118 196 118 c 4
 198 118 204 116 204 110 c 4
 204 89.6488957575 169.852316871 51.3787102694 131.831697738 22.9085307839 c 5
 132 23 l 5
EndSplineSet
Fore
SplineSet
25 -147 m 0
 25 -180 43 -188 55 -188 c 0
 78 -188 88 -172 97 -172 c 0
 101 -172 102 -174 102 -177 c 0
 102 -184 93 -197 76 -207 c 0
 62 -215 44 -222 22 -222 c 0
 -26 -222 -41 -188 -41 -166 c 0
 -41 -113 20 -60 67 -18 c 0
 84 -4 69 -13 55 -13 c 0
 40 -13 31 -5 31 16 c 0
 31 90 121 280 121 338 c 0
 121 346 117 348 114 348 c 0
 97 348 71 319 59 304 c 0
 50 293 44 284 39 284 c 0
 36 284 31 286 31 294 c 0
 31 324 116 406 173 406 c 0
 195 406 201 392 201 378 c 0
 201 322 111 103 111 65 c 0
 111 57 113 53 118 53 c 0
 125 53 137 61 151 75 c 0
 175 97 187 118 196 118 c 0
 198 118 204 116 204 110 c 0
 204 95 184 68 158 44 c 2
 158 44 124 20 94 -15 c 0
 61 -53 25 -102 25 -147 c 0
EndSplineSet
EndChar

StartChar: ordfeminine
Encoding: 170 170 417
Width: 274
VWidth: 0
Flags: W
HStem: 414 40<57.1812 101.275> 636 29<133.548 188.746>
VStem: 21 53<435.468 536.742> 150 54<423.562 530.086>
LayerCount: 3
Fore
SplineSet
88 454 m 0
 125 454 195 584 195 608 c 0
 195 623 172 636 160 636 c 0
 147 636 136 625 126 614 c 0
 99 583 74 520 74 482 c 0
 74 462 79 454 88 454 c 0
165 665 m 0
 193 665 206 630 208 630 c 1
 218 659 l 2
 220 664 224 665 231 665 c 2
 246 665 l 2
 253 665 259 665 259 660 c 0
 259 653 204 497 204 459 c 0
 204 452 206 449 210 449 c 0
 221 449 242 473 247 473 c 0
 249 473 251 470 251 469 c 0
 251 457 197 414 165 414 c 0
 157 414 150 417 150 430 c 0
 150 445 172 509 176 525 c 0
 178 532 175 527 173 524 c 0
 158 503 109 414 56 414 c 0
 40 414 21 426 21 454 c 0
 21 540 117 665 165 665 c 0
EndSplineSet
Layer: 2
SplineSet
155 632 m 4
 119 632 74 533 74 482 c 4
 74 462 79 454 88 454 c 4
 108 454 143 497 167 542 c 4
 178 563 189 582 189 596 c 4
 189 617 167 632 155 632 c 4
165 665 m 4
 193 665 200 611 202 611 c 4
 203 611 204 616 207 626 c 6
 218 659 l 6
 220 664 224 665 231 665 c 6
 246 665 l 6
 253 665 259 665 259 660 c 4
 259 653 204 497 204 459 c 4
 204 452 206 449 210 449 c 4
 221 449 242 473 247 473 c 4
 249 473 251 470 251 469 c 4
 251 457 197 414 165 414 c 4
 157 414 150 417 150 430 c 4
 150 445 172 509 176 525 c 4
 178 532 175 527 173 524 c 4
 158 503 109 414 56 414 c 4
 40 414 21 426 21 454 c 4
 21 540 117 665 165 665 c 4
EndSplineSet
EndChar

StartChar: Euro
Encoding: 8364 8364 418
Width: 684
VWidth: 0
Flags: HW
HStem: -21 32<317.834 484.356> 240 31<-17.9745 42 151 493> 373 31<-17.9998 46 154 557> 627 27<317.56 473.093>
VStem: 40 105<271 373> 614 20<465.093 498.449>
AnchorPoint: "r;o" 684 200 basechar 0
AnchorPoint: "r;hi" 684 610 basechar 0
AnchorPoint: "r;x" 684 385 basechar 0
AnchorPoint: "r;bl" 684 10 basechar 0
AnchorPoint: "l;bl" 50 10 basechar 0
AnchorPoint: "l;x" 0 385 basechar 0
AnchorPoint: "l;hi" 50 610 basechar 0
AnchorPoint: "l;o" 0 200 basechar 0
LayerCount: 3
Fore
SplineSet
590 601 m 0
 595 601 600 623 612 623 c 0
 623 623 623 618 624 603 c 0
 628 538 634 489 634 477 c 0
 634 468 634 467 625 465 c 0
 616 463 615 470 614 473 c 0
 596 540 512 627 399 627 c 0
 263 627 180 533 154 404 c 1
 572 404 l 1
 557 373 l 1
 149 373 l 1
 147 354 145 334 145 313 c 0
 145 298 146 284 147 271 c 1
 508 271 l 1
 493 240 l 1
 151 240 l 1
 178 84 292 11 402 11 c 0
 542 11 598 124 616 158 c 0
 620 165 622 167 626 167 c 0
 630 167 632 165 632 161 c 2
 624 56 l 2
 622 25 617 29 596 25 c 0
 583 23 568 20 560 16 c 0
 496 -11 442 -21 390 -21 c 0
 195 -21 76 100 47 240 c 1
 -16 240 l 1
 -17 245 -18 249 -18 254 c 0
 -18 260 -17 265 -16 271 c 1
 42 271 l 1
 41 283 40 296 40 308 c 0
 40 329 42 351 46 373 c 1
 -16 373 l 1
 -18 378 -18 383 -18 388 c 0
 -18 393 -18 399 -16 404 c 1
 53 404 l 1
 90 535 204 654 393 654 c 0
 500 654 588 601 590 601 c 0
EndSplineSet
EndChar

StartChar: f.ld
Encoding: 65568 -1 419
Width: 242
VWidth: 0
Flags: W
HStem: -282 36<-155 -68.5273> 351 26<17.7728 101 172 251.227> 606 58<232.5 321.9>
DStem2: -56.8246 -282 10.5611 -282 0.241922 0.970296<429.974 652.378 694.783 898.292>
LayerCount: 3
Fore
SplineSet
236 606 m 0
 229 606 222 575 203 500 c 2
 172 377 l 1
 252 377 l 1
 254 371 252 357 249 351 c 1
 167 351 l 1
 126 181 l 2
 96 57 64 -96 9 -189 c 0
 -11 -223 -64 -282 -135 -282 c 0
 -175 -282 -193 -258 -193 -234 c 0
 -193 -212 -178 -191 -151 -191 c 0
 -108 -191 -101 -246 -76 -246 c 0
 -24 -246 92 317 101 351 c 1
 17 351 l 1
 15 358 17 370 20 377 c 1
 106 377 l 1
 142 522 174 583 205 615 c 0
 218 628 263 664 301 664 c 0
 333 664 349 642 349 620 c 0
 349 599 335 578 307 578 c 0
 267 578 254 606 236 606 c 0
EndSplineSet
Layer: 2
SplineSet
172 377 m 1
 252 377 l 1
 254 371 252 357 249 351 c 1
 167 351 l 1
 126 181 l 2
 96 57 64 -96 9 -189 c 0
 -11 -223 -64 -282 -135 -282 c 0
 -175 -282 -193 -258 -193 -234 c 0
 -193 -212 -178 -191 -151 -191 c 0
 -108 -191 -101 -246 -76 -246 c 0
 -24 -246 92 317 101 351 c 1
 17 351 l 1
 15 358 17 370 20 377 c 1
 106 377 l 1
 142 522 174 583 205 615 c 0
 218 628 263 664 301 664 c 0
 330 664 349 638 349 614 c 0
 349 594 336 574 306 574 c 0
 264 574 254 606 236 606 c 0
 229 606 222 575 203 500 c 2
 172 377 l 1
-76 -246 m 4
 -24 -246 92 317 101 351 c 5
 17 351 l 5
 15 358 17 370 20 377 c 5
 106 377 l 5
 156 580 199 618 242 643 c 4
 253 650 276 664 301 664 c 4
 329 664 349 647 349 613 c 4
 349 586 335 561 306 561 c 4
 264 561 254 606 236 606 c 4
 216 606 222 575 203 500 c 6
 172 377 l 5
 252 377 l 5
 254 371 252 357 249 351 c 5
 167 351 l 5
 126 181 l 6
 96 57 64 -96 9 -189 c 4
 -11 -223 -64 -282 -135 -282 c 4
 -175 -282 -193 -258 -193 -234 c 4
 -193 -212 -178 -191 -151 -191 c 4
 -108 -191 -101 -246 -76 -246 c 4
EndSplineSet
EndChar

StartChar: longs.ld
Encoding: 65569 -1 420
Width: 202
VWidth: 0
Flags: W
HStem: -282 36<-155 -68.5477> 606 58<232.5 321.9>
LayerCount: 3
Fore
SplineSet
236 606 m 0
 229 606 222 575 203 500 c 2
 126 181 l 2
 97 57 64 -96 9 -189 c 0
 -11 -223 -64 -282 -135 -282 c 0
 -175 -282 -193 -258 -193 -234 c 0
 -193 -212 -178 -191 -151 -191 c 0
 -108 -191 -101 -246 -76 -246 c 0
 -45 -246 9.43266295592 -50.3303564736 48 118 c 0
 105.432662956 368.669643526 135 543 205 615 c 0
 218 628 263 664 301 664 c 0
 333 664 349 642 349 620 c 0
 349 599 335 578 307 578 c 0
 267 578 254 606 236 606 c 0
EndSplineSet
Layer: 2
SplineSet
-76 -246 m 4
 -45 -246 8 -50 48 118 c 4
 104 357 103 376 129 460 c 4
 170 591 206 622 242 643 c 4
 253 650 276 664 301 664 c 4
 329 664 349 647 349 613 c 4
 349 586 335 561 306 561 c 4
 264 561 254 606 236 606 c 4
 216 606 222 575 203 500 c 6
 126 181 l 6
 96 57 64 -96 9 -189 c 4
 -11 -223 -64 -282 -135 -282 c 4
 -175 -282 -193 -258 -193 -234 c 4
 -193 -212 -178 -191 -151 -191 c 4
 -108 -191 -101 -246 -76 -246 c 4
EndSplineSet
EndChar
